G04 #@! TF.GenerationSoftware,KiCad,Pcbnew,(5.1.0)-1*
G04 #@! TF.CreationDate,2019-04-13T14:57:07-07:00*
G04 #@! TF.ProjectId,AS.001.revA,41532e30-3031-42e7-9265-76412e6b6963,Rev A*
G04 #@! TF.SameCoordinates,Original*
G04 #@! TF.FileFunction,Soldermask,Bot*
G04 #@! TF.FilePolarity,Negative*
%FSLAX46Y46*%
G04 Gerber Fmt 4.6, Leading zero omitted, Abs format (unit mm)*
G04 Created by KiCad (PCBNEW (5.1.0)-1) date 2019-04-13 14:57:07*
%MOMM*%
%LPD*%
G04 APERTURE LIST*
%ADD10C,0.100000*%
G04 APERTURE END LIST*
D10*
G36*
X145028169Y-98971895D02*
G01*
X145183005Y-99036031D01*
X145322354Y-99129140D01*
X145440860Y-99247646D01*
X145533969Y-99386995D01*
X145598105Y-99541831D01*
X145630800Y-99706203D01*
X145630800Y-99873797D01*
X145598105Y-100038169D01*
X145533969Y-100193005D01*
X145440860Y-100332354D01*
X145322354Y-100450860D01*
X145183005Y-100543969D01*
X145028169Y-100608105D01*
X144863797Y-100640800D01*
X144696203Y-100640800D01*
X144531831Y-100608105D01*
X144376995Y-100543969D01*
X144237646Y-100450860D01*
X144119140Y-100332354D01*
X144026031Y-100193005D01*
X143961895Y-100038169D01*
X143929200Y-99873797D01*
X143929200Y-99706203D01*
X143961895Y-99541831D01*
X144026031Y-99386995D01*
X144119140Y-99247646D01*
X144237646Y-99129140D01*
X144376995Y-99036031D01*
X144531831Y-98971895D01*
X144696203Y-98939200D01*
X144863797Y-98939200D01*
X145028169Y-98971895D01*
X145028169Y-98971895D01*
G37*
G36*
X80262611Y-96259065D02*
G01*
X80462352Y-96298796D01*
X80744579Y-96415699D01*
X80998578Y-96585415D01*
X81214585Y-96801422D01*
X81384301Y-97055421D01*
X81501204Y-97337648D01*
X81560800Y-97637259D01*
X81560800Y-97942741D01*
X81501204Y-98242352D01*
X81384301Y-98524579D01*
X81214585Y-98778578D01*
X80998578Y-98994585D01*
X80744579Y-99164301D01*
X80462352Y-99281204D01*
X80262611Y-99320935D01*
X80162742Y-99340800D01*
X79857258Y-99340800D01*
X79757389Y-99320935D01*
X79557648Y-99281204D01*
X79275421Y-99164301D01*
X79021422Y-98994585D01*
X78805415Y-98778578D01*
X78635699Y-98524579D01*
X78518796Y-98242352D01*
X78459200Y-97942741D01*
X78459200Y-97637259D01*
X78518796Y-97337648D01*
X78635699Y-97055421D01*
X78805415Y-96801422D01*
X79021422Y-96585415D01*
X79275421Y-96415699D01*
X79557648Y-96298796D01*
X79757389Y-96259065D01*
X79857258Y-96239200D01*
X80162742Y-96239200D01*
X80262611Y-96259065D01*
X80262611Y-96259065D01*
G37*
G36*
X75182611Y-96259065D02*
G01*
X75382352Y-96298796D01*
X75664579Y-96415699D01*
X75918578Y-96585415D01*
X76134585Y-96801422D01*
X76304301Y-97055421D01*
X76421204Y-97337648D01*
X76480800Y-97637259D01*
X76480800Y-97942741D01*
X76421204Y-98242352D01*
X76304301Y-98524579D01*
X76134585Y-98778578D01*
X75918578Y-98994585D01*
X75664579Y-99164301D01*
X75382352Y-99281204D01*
X75182611Y-99320935D01*
X75082742Y-99340800D01*
X74777258Y-99340800D01*
X74677389Y-99320935D01*
X74477648Y-99281204D01*
X74195421Y-99164301D01*
X73941422Y-98994585D01*
X73725415Y-98778578D01*
X73555699Y-98524579D01*
X73438796Y-98242352D01*
X73379200Y-97942741D01*
X73379200Y-97637259D01*
X73438796Y-97337648D01*
X73555699Y-97055421D01*
X73725415Y-96801422D01*
X73941422Y-96585415D01*
X74195421Y-96415699D01*
X74477648Y-96298796D01*
X74677389Y-96259065D01*
X74777258Y-96239200D01*
X75082742Y-96239200D01*
X75182611Y-96259065D01*
X75182611Y-96259065D01*
G37*
G36*
X70102611Y-96259065D02*
G01*
X70302352Y-96298796D01*
X70584579Y-96415699D01*
X70838578Y-96585415D01*
X71054585Y-96801422D01*
X71224301Y-97055421D01*
X71341204Y-97337648D01*
X71400800Y-97637259D01*
X71400800Y-97942741D01*
X71341204Y-98242352D01*
X71224301Y-98524579D01*
X71054585Y-98778578D01*
X70838578Y-98994585D01*
X70584579Y-99164301D01*
X70302352Y-99281204D01*
X70102611Y-99320935D01*
X70002742Y-99340800D01*
X69697258Y-99340800D01*
X69597389Y-99320935D01*
X69397648Y-99281204D01*
X69115421Y-99164301D01*
X68861422Y-98994585D01*
X68645415Y-98778578D01*
X68475699Y-98524579D01*
X68358796Y-98242352D01*
X68299200Y-97942741D01*
X68299200Y-97637259D01*
X68358796Y-97337648D01*
X68475699Y-97055421D01*
X68645415Y-96801422D01*
X68861422Y-96585415D01*
X69115421Y-96415699D01*
X69397648Y-96298796D01*
X69597389Y-96259065D01*
X69697258Y-96239200D01*
X70002742Y-96239200D01*
X70102611Y-96259065D01*
X70102611Y-96259065D01*
G37*
G36*
X140850800Y-98940800D02*
G01*
X138549200Y-98940800D01*
X138549200Y-96639200D01*
X140850800Y-96639200D01*
X140850800Y-98940800D01*
X140850800Y-98940800D01*
G37*
G36*
X145630800Y-98640800D02*
G01*
X143929200Y-98640800D01*
X143929200Y-96939200D01*
X145630800Y-96939200D01*
X145630800Y-98640800D01*
X145630800Y-98640800D01*
G37*
G36*
X75182611Y-89909065D02*
G01*
X75382352Y-89948796D01*
X75664579Y-90065699D01*
X75918578Y-90235415D01*
X76134585Y-90451422D01*
X76304301Y-90705421D01*
X76421204Y-90987648D01*
X76480800Y-91287259D01*
X76480800Y-91592741D01*
X76421204Y-91892352D01*
X76304301Y-92174579D01*
X76134585Y-92428578D01*
X75918578Y-92644585D01*
X75664579Y-92814301D01*
X75382352Y-92931204D01*
X75182611Y-92970935D01*
X75082742Y-92990800D01*
X74777258Y-92990800D01*
X74677389Y-92970935D01*
X74477648Y-92931204D01*
X74195421Y-92814301D01*
X73941422Y-92644585D01*
X73725415Y-92428578D01*
X73555699Y-92174579D01*
X73438796Y-91892352D01*
X73379200Y-91592741D01*
X73379200Y-91287259D01*
X73438796Y-90987648D01*
X73555699Y-90705421D01*
X73725415Y-90451422D01*
X73941422Y-90235415D01*
X74195421Y-90065699D01*
X74477648Y-89948796D01*
X74677389Y-89909065D01*
X74777258Y-89889200D01*
X75082742Y-89889200D01*
X75182611Y-89909065D01*
X75182611Y-89909065D01*
G37*
G36*
X80262611Y-89909065D02*
G01*
X80462352Y-89948796D01*
X80744579Y-90065699D01*
X80998578Y-90235415D01*
X81214585Y-90451422D01*
X81384301Y-90705421D01*
X81501204Y-90987648D01*
X81560800Y-91287259D01*
X81560800Y-91592741D01*
X81501204Y-91892352D01*
X81384301Y-92174579D01*
X81214585Y-92428578D01*
X80998578Y-92644585D01*
X80744579Y-92814301D01*
X80462352Y-92931204D01*
X80262611Y-92970935D01*
X80162742Y-92990800D01*
X79857258Y-92990800D01*
X79757389Y-92970935D01*
X79557648Y-92931204D01*
X79275421Y-92814301D01*
X79021422Y-92644585D01*
X78805415Y-92428578D01*
X78635699Y-92174579D01*
X78518796Y-91892352D01*
X78459200Y-91592741D01*
X78459200Y-91287259D01*
X78518796Y-90987648D01*
X78635699Y-90705421D01*
X78805415Y-90451422D01*
X79021422Y-90235415D01*
X79275421Y-90065699D01*
X79557648Y-89948796D01*
X79757389Y-89909065D01*
X79857258Y-89889200D01*
X80162742Y-89889200D01*
X80262611Y-89909065D01*
X80262611Y-89909065D01*
G37*
G36*
X70102611Y-89909065D02*
G01*
X70302352Y-89948796D01*
X70584579Y-90065699D01*
X70838578Y-90235415D01*
X71054585Y-90451422D01*
X71224301Y-90705421D01*
X71341204Y-90987648D01*
X71400800Y-91287259D01*
X71400800Y-91592741D01*
X71341204Y-91892352D01*
X71224301Y-92174579D01*
X71054585Y-92428578D01*
X70838578Y-92644585D01*
X70584579Y-92814301D01*
X70302352Y-92931204D01*
X70102611Y-92970935D01*
X70002742Y-92990800D01*
X69697258Y-92990800D01*
X69597389Y-92970935D01*
X69397648Y-92931204D01*
X69115421Y-92814301D01*
X68861422Y-92644585D01*
X68645415Y-92428578D01*
X68475699Y-92174579D01*
X68358796Y-91892352D01*
X68299200Y-91592741D01*
X68299200Y-91287259D01*
X68358796Y-90987648D01*
X68475699Y-90705421D01*
X68645415Y-90451422D01*
X68861422Y-90235415D01*
X69115421Y-90065699D01*
X69397648Y-89948796D01*
X69597389Y-89909065D01*
X69697258Y-89889200D01*
X70002742Y-89889200D01*
X70102611Y-89909065D01*
X70102611Y-89909065D01*
G37*
G36*
X151218362Y-90543545D02*
G01*
X151306588Y-90552234D01*
X151476389Y-90603743D01*
X151476392Y-90603744D01*
X151632878Y-90687388D01*
X151770044Y-90799956D01*
X151882612Y-90937122D01*
X151966256Y-91093608D01*
X151966257Y-91093611D01*
X152017766Y-91263412D01*
X152035158Y-91440000D01*
X152017766Y-91616588D01*
X151966257Y-91786389D01*
X151966256Y-91786392D01*
X151882612Y-91942878D01*
X151770044Y-92080044D01*
X151632878Y-92192612D01*
X151476392Y-92276256D01*
X151476389Y-92276257D01*
X151306588Y-92327766D01*
X151218362Y-92336455D01*
X151174250Y-92340800D01*
X151085750Y-92340800D01*
X151041638Y-92336455D01*
X150953412Y-92327766D01*
X150783611Y-92276257D01*
X150783608Y-92276256D01*
X150627122Y-92192612D01*
X150489956Y-92080044D01*
X150377388Y-91942878D01*
X150293744Y-91786392D01*
X150293743Y-91786389D01*
X150242234Y-91616588D01*
X150224842Y-91440000D01*
X150242234Y-91263412D01*
X150293743Y-91093611D01*
X150293744Y-91093608D01*
X150377388Y-90937122D01*
X150489956Y-90799956D01*
X150627122Y-90687388D01*
X150783608Y-90603744D01*
X150783611Y-90603743D01*
X150953412Y-90552234D01*
X151041638Y-90543545D01*
X151085750Y-90539200D01*
X151174250Y-90539200D01*
X151218362Y-90543545D01*
X151218362Y-90543545D01*
G37*
G36*
X152030800Y-89800800D02*
G01*
X150229200Y-89800800D01*
X150229200Y-87999200D01*
X152030800Y-87999200D01*
X152030800Y-89800800D01*
X152030800Y-89800800D01*
G37*
G36*
X139812888Y-86484750D02*
G01*
X139925596Y-86495851D01*
X140142523Y-86561655D01*
X140142525Y-86561656D01*
X140342439Y-86668512D01*
X140342440Y-86668513D01*
X140342444Y-86668515D01*
X140517676Y-86812324D01*
X140661485Y-86987556D01*
X140661487Y-86987560D01*
X140661488Y-86987561D01*
X140714984Y-87087646D01*
X140768345Y-87187477D01*
X140834149Y-87404404D01*
X140856368Y-87630000D01*
X140834149Y-87855596D01*
X140768345Y-88072523D01*
X140768344Y-88072525D01*
X140662769Y-88270043D01*
X140661485Y-88272444D01*
X140517676Y-88447676D01*
X140342444Y-88591485D01*
X140342440Y-88591487D01*
X140342439Y-88591488D01*
X140142525Y-88698344D01*
X140142523Y-88698345D01*
X139925596Y-88764149D01*
X139812888Y-88775250D01*
X139756535Y-88780800D01*
X139643465Y-88780800D01*
X139587112Y-88775250D01*
X139474404Y-88764149D01*
X139257477Y-88698345D01*
X139257475Y-88698344D01*
X139057561Y-88591488D01*
X139057560Y-88591487D01*
X139057556Y-88591485D01*
X138882324Y-88447676D01*
X138738515Y-88272444D01*
X138737232Y-88270043D01*
X138631656Y-88072525D01*
X138631655Y-88072523D01*
X138565851Y-87855596D01*
X138543632Y-87630000D01*
X138565851Y-87404404D01*
X138631655Y-87187477D01*
X138685016Y-87087646D01*
X138738512Y-86987561D01*
X138738513Y-86987560D01*
X138738515Y-86987556D01*
X138882324Y-86812324D01*
X139057556Y-86668515D01*
X139057560Y-86668513D01*
X139057561Y-86668512D01*
X139257475Y-86561656D01*
X139257477Y-86561655D01*
X139474404Y-86495851D01*
X139587112Y-86484750D01*
X139643465Y-86479200D01*
X139756535Y-86479200D01*
X139812888Y-86484750D01*
X139812888Y-86484750D01*
G37*
G36*
X97878362Y-86733545D02*
G01*
X97966588Y-86742234D01*
X98136389Y-86793743D01*
X98136392Y-86793744D01*
X98292878Y-86877388D01*
X98430044Y-86989956D01*
X98542612Y-87127122D01*
X98626256Y-87283608D01*
X98626257Y-87283611D01*
X98677766Y-87453412D01*
X98695158Y-87630000D01*
X98677766Y-87806588D01*
X98662900Y-87855594D01*
X98626256Y-87976392D01*
X98542612Y-88132878D01*
X98430044Y-88270044D01*
X98292878Y-88382612D01*
X98136392Y-88466256D01*
X98136389Y-88466257D01*
X97966588Y-88517766D01*
X97878362Y-88526455D01*
X97834250Y-88530800D01*
X97745750Y-88530800D01*
X97701638Y-88526455D01*
X97613412Y-88517766D01*
X97443611Y-88466257D01*
X97443608Y-88466256D01*
X97287122Y-88382612D01*
X97149956Y-88270044D01*
X97037388Y-88132878D01*
X96953744Y-87976392D01*
X96917100Y-87855594D01*
X96902234Y-87806588D01*
X96884842Y-87630000D01*
X96902234Y-87453412D01*
X96953743Y-87283611D01*
X96953744Y-87283608D01*
X97037388Y-87127122D01*
X97149956Y-86989956D01*
X97287122Y-86877388D01*
X97443608Y-86793744D01*
X97443611Y-86793743D01*
X97613412Y-86742234D01*
X97701638Y-86733545D01*
X97745750Y-86729200D01*
X97834250Y-86729200D01*
X97878362Y-86733545D01*
X97878362Y-86733545D01*
G37*
G36*
X115658362Y-86733545D02*
G01*
X115746588Y-86742234D01*
X115916389Y-86793743D01*
X115916392Y-86793744D01*
X116072878Y-86877388D01*
X116210044Y-86989956D01*
X116322612Y-87127122D01*
X116406256Y-87283608D01*
X116406257Y-87283611D01*
X116457766Y-87453412D01*
X116475158Y-87630000D01*
X116457766Y-87806588D01*
X116442900Y-87855594D01*
X116406256Y-87976392D01*
X116322612Y-88132878D01*
X116210044Y-88270044D01*
X116072878Y-88382612D01*
X115916392Y-88466256D01*
X115916389Y-88466257D01*
X115746588Y-88517766D01*
X115658362Y-88526455D01*
X115614250Y-88530800D01*
X115525750Y-88530800D01*
X115481638Y-88526455D01*
X115393412Y-88517766D01*
X115223611Y-88466257D01*
X115223608Y-88466256D01*
X115067122Y-88382612D01*
X114929956Y-88270044D01*
X114817388Y-88132878D01*
X114733744Y-87976392D01*
X114697100Y-87855594D01*
X114682234Y-87806588D01*
X114664842Y-87630000D01*
X114682234Y-87453412D01*
X114733743Y-87283611D01*
X114733744Y-87283608D01*
X114817388Y-87127122D01*
X114929956Y-86989956D01*
X115067122Y-86877388D01*
X115223608Y-86793744D01*
X115223611Y-86793743D01*
X115393412Y-86742234D01*
X115481638Y-86733545D01*
X115525750Y-86729200D01*
X115614250Y-86729200D01*
X115658362Y-86733545D01*
X115658362Y-86733545D01*
G37*
G36*
X110578362Y-86733545D02*
G01*
X110666588Y-86742234D01*
X110836389Y-86793743D01*
X110836392Y-86793744D01*
X110992878Y-86877388D01*
X111130044Y-86989956D01*
X111242612Y-87127122D01*
X111326256Y-87283608D01*
X111326257Y-87283611D01*
X111377766Y-87453412D01*
X111395158Y-87630000D01*
X111377766Y-87806588D01*
X111362900Y-87855594D01*
X111326256Y-87976392D01*
X111242612Y-88132878D01*
X111130044Y-88270044D01*
X110992878Y-88382612D01*
X110836392Y-88466256D01*
X110836389Y-88466257D01*
X110666588Y-88517766D01*
X110578362Y-88526455D01*
X110534250Y-88530800D01*
X110445750Y-88530800D01*
X110401638Y-88526455D01*
X110313412Y-88517766D01*
X110143611Y-88466257D01*
X110143608Y-88466256D01*
X109987122Y-88382612D01*
X109849956Y-88270044D01*
X109737388Y-88132878D01*
X109653744Y-87976392D01*
X109617100Y-87855594D01*
X109602234Y-87806588D01*
X109584842Y-87630000D01*
X109602234Y-87453412D01*
X109653743Y-87283611D01*
X109653744Y-87283608D01*
X109737388Y-87127122D01*
X109849956Y-86989956D01*
X109987122Y-86877388D01*
X110143608Y-86793744D01*
X110143611Y-86793743D01*
X110313412Y-86742234D01*
X110401638Y-86733545D01*
X110445750Y-86729200D01*
X110534250Y-86729200D01*
X110578362Y-86733545D01*
X110578362Y-86733545D01*
G37*
G36*
X108038362Y-86733545D02*
G01*
X108126588Y-86742234D01*
X108296389Y-86793743D01*
X108296392Y-86793744D01*
X108452878Y-86877388D01*
X108590044Y-86989956D01*
X108702612Y-87127122D01*
X108786256Y-87283608D01*
X108786257Y-87283611D01*
X108837766Y-87453412D01*
X108855158Y-87630000D01*
X108837766Y-87806588D01*
X108822900Y-87855594D01*
X108786256Y-87976392D01*
X108702612Y-88132878D01*
X108590044Y-88270044D01*
X108452878Y-88382612D01*
X108296392Y-88466256D01*
X108296389Y-88466257D01*
X108126588Y-88517766D01*
X108038362Y-88526455D01*
X107994250Y-88530800D01*
X107905750Y-88530800D01*
X107861638Y-88526455D01*
X107773412Y-88517766D01*
X107603611Y-88466257D01*
X107603608Y-88466256D01*
X107447122Y-88382612D01*
X107309956Y-88270044D01*
X107197388Y-88132878D01*
X107113744Y-87976392D01*
X107077100Y-87855594D01*
X107062234Y-87806588D01*
X107044842Y-87630000D01*
X107062234Y-87453412D01*
X107113743Y-87283611D01*
X107113744Y-87283608D01*
X107197388Y-87127122D01*
X107309956Y-86989956D01*
X107447122Y-86877388D01*
X107603608Y-86793744D01*
X107603611Y-86793743D01*
X107773412Y-86742234D01*
X107861638Y-86733545D01*
X107905750Y-86729200D01*
X107994250Y-86729200D01*
X108038362Y-86733545D01*
X108038362Y-86733545D01*
G37*
G36*
X93610800Y-88530800D02*
G01*
X91809200Y-88530800D01*
X91809200Y-86729200D01*
X93610800Y-86729200D01*
X93610800Y-88530800D01*
X93610800Y-88530800D01*
G37*
G36*
X95338362Y-86733545D02*
G01*
X95426588Y-86742234D01*
X95596389Y-86793743D01*
X95596392Y-86793744D01*
X95752878Y-86877388D01*
X95890044Y-86989956D01*
X96002612Y-87127122D01*
X96086256Y-87283608D01*
X96086257Y-87283611D01*
X96137766Y-87453412D01*
X96155158Y-87630000D01*
X96137766Y-87806588D01*
X96122900Y-87855594D01*
X96086256Y-87976392D01*
X96002612Y-88132878D01*
X95890044Y-88270044D01*
X95752878Y-88382612D01*
X95596392Y-88466256D01*
X95596389Y-88466257D01*
X95426588Y-88517766D01*
X95338362Y-88526455D01*
X95294250Y-88530800D01*
X95205750Y-88530800D01*
X95161638Y-88526455D01*
X95073412Y-88517766D01*
X94903611Y-88466257D01*
X94903608Y-88466256D01*
X94747122Y-88382612D01*
X94609956Y-88270044D01*
X94497388Y-88132878D01*
X94413744Y-87976392D01*
X94377100Y-87855594D01*
X94362234Y-87806588D01*
X94344842Y-87630000D01*
X94362234Y-87453412D01*
X94413743Y-87283611D01*
X94413744Y-87283608D01*
X94497388Y-87127122D01*
X94609956Y-86989956D01*
X94747122Y-86877388D01*
X94903608Y-86793744D01*
X94903611Y-86793743D01*
X95073412Y-86742234D01*
X95161638Y-86733545D01*
X95205750Y-86729200D01*
X95294250Y-86729200D01*
X95338362Y-86733545D01*
X95338362Y-86733545D01*
G37*
G36*
X100418362Y-86733545D02*
G01*
X100506588Y-86742234D01*
X100676389Y-86793743D01*
X100676392Y-86793744D01*
X100832878Y-86877388D01*
X100970044Y-86989956D01*
X101082612Y-87127122D01*
X101166256Y-87283608D01*
X101166257Y-87283611D01*
X101217766Y-87453412D01*
X101235158Y-87630000D01*
X101217766Y-87806588D01*
X101202900Y-87855594D01*
X101166256Y-87976392D01*
X101082612Y-88132878D01*
X100970044Y-88270044D01*
X100832878Y-88382612D01*
X100676392Y-88466256D01*
X100676389Y-88466257D01*
X100506588Y-88517766D01*
X100418362Y-88526455D01*
X100374250Y-88530800D01*
X100285750Y-88530800D01*
X100241638Y-88526455D01*
X100153412Y-88517766D01*
X99983611Y-88466257D01*
X99983608Y-88466256D01*
X99827122Y-88382612D01*
X99689956Y-88270044D01*
X99577388Y-88132878D01*
X99493744Y-87976392D01*
X99457100Y-87855594D01*
X99442234Y-87806588D01*
X99424842Y-87630000D01*
X99442234Y-87453412D01*
X99493743Y-87283611D01*
X99493744Y-87283608D01*
X99577388Y-87127122D01*
X99689956Y-86989956D01*
X99827122Y-86877388D01*
X99983608Y-86793744D01*
X99983611Y-86793743D01*
X100153412Y-86742234D01*
X100241638Y-86733545D01*
X100285750Y-86729200D01*
X100374250Y-86729200D01*
X100418362Y-86733545D01*
X100418362Y-86733545D01*
G37*
G36*
X102958362Y-86733545D02*
G01*
X103046588Y-86742234D01*
X103216389Y-86793743D01*
X103216392Y-86793744D01*
X103372878Y-86877388D01*
X103510044Y-86989956D01*
X103622612Y-87127122D01*
X103706256Y-87283608D01*
X103706257Y-87283611D01*
X103757766Y-87453412D01*
X103775158Y-87630000D01*
X103757766Y-87806588D01*
X103742900Y-87855594D01*
X103706256Y-87976392D01*
X103622612Y-88132878D01*
X103510044Y-88270044D01*
X103372878Y-88382612D01*
X103216392Y-88466256D01*
X103216389Y-88466257D01*
X103046588Y-88517766D01*
X102958362Y-88526455D01*
X102914250Y-88530800D01*
X102825750Y-88530800D01*
X102781638Y-88526455D01*
X102693412Y-88517766D01*
X102523611Y-88466257D01*
X102523608Y-88466256D01*
X102367122Y-88382612D01*
X102229956Y-88270044D01*
X102117388Y-88132878D01*
X102033744Y-87976392D01*
X101997100Y-87855594D01*
X101982234Y-87806588D01*
X101964842Y-87630000D01*
X101982234Y-87453412D01*
X102033743Y-87283611D01*
X102033744Y-87283608D01*
X102117388Y-87127122D01*
X102229956Y-86989956D01*
X102367122Y-86877388D01*
X102523608Y-86793744D01*
X102523611Y-86793743D01*
X102693412Y-86742234D01*
X102781638Y-86733545D01*
X102825750Y-86729200D01*
X102914250Y-86729200D01*
X102958362Y-86733545D01*
X102958362Y-86733545D01*
G37*
G36*
X113118362Y-86733545D02*
G01*
X113206588Y-86742234D01*
X113376389Y-86793743D01*
X113376392Y-86793744D01*
X113532878Y-86877388D01*
X113670044Y-86989956D01*
X113782612Y-87127122D01*
X113866256Y-87283608D01*
X113866257Y-87283611D01*
X113917766Y-87453412D01*
X113935158Y-87630000D01*
X113917766Y-87806588D01*
X113902900Y-87855594D01*
X113866256Y-87976392D01*
X113782612Y-88132878D01*
X113670044Y-88270044D01*
X113532878Y-88382612D01*
X113376392Y-88466256D01*
X113376389Y-88466257D01*
X113206588Y-88517766D01*
X113118362Y-88526455D01*
X113074250Y-88530800D01*
X112985750Y-88530800D01*
X112941638Y-88526455D01*
X112853412Y-88517766D01*
X112683611Y-88466257D01*
X112683608Y-88466256D01*
X112527122Y-88382612D01*
X112389956Y-88270044D01*
X112277388Y-88132878D01*
X112193744Y-87976392D01*
X112157100Y-87855594D01*
X112142234Y-87806588D01*
X112124842Y-87630000D01*
X112142234Y-87453412D01*
X112193743Y-87283611D01*
X112193744Y-87283608D01*
X112277388Y-87127122D01*
X112389956Y-86989956D01*
X112527122Y-86877388D01*
X112683608Y-86793744D01*
X112683611Y-86793743D01*
X112853412Y-86742234D01*
X112941638Y-86733545D01*
X112985750Y-86729200D01*
X113074250Y-86729200D01*
X113118362Y-86733545D01*
X113118362Y-86733545D01*
G37*
G36*
X105498362Y-86733545D02*
G01*
X105586588Y-86742234D01*
X105756389Y-86793743D01*
X105756392Y-86793744D01*
X105912878Y-86877388D01*
X106050044Y-86989956D01*
X106162612Y-87127122D01*
X106246256Y-87283608D01*
X106246257Y-87283611D01*
X106297766Y-87453412D01*
X106315158Y-87630000D01*
X106297766Y-87806588D01*
X106282900Y-87855594D01*
X106246256Y-87976392D01*
X106162612Y-88132878D01*
X106050044Y-88270044D01*
X105912878Y-88382612D01*
X105756392Y-88466256D01*
X105756389Y-88466257D01*
X105586588Y-88517766D01*
X105498362Y-88526455D01*
X105454250Y-88530800D01*
X105365750Y-88530800D01*
X105321638Y-88526455D01*
X105233412Y-88517766D01*
X105063611Y-88466257D01*
X105063608Y-88466256D01*
X104907122Y-88382612D01*
X104769956Y-88270044D01*
X104657388Y-88132878D01*
X104573744Y-87976392D01*
X104537100Y-87855594D01*
X104522234Y-87806588D01*
X104504842Y-87630000D01*
X104522234Y-87453412D01*
X104573743Y-87283611D01*
X104573744Y-87283608D01*
X104657388Y-87127122D01*
X104769956Y-86989956D01*
X104907122Y-86877388D01*
X105063608Y-86793744D01*
X105063611Y-86793743D01*
X105233412Y-86742234D01*
X105321638Y-86733545D01*
X105365750Y-86729200D01*
X105454250Y-86729200D01*
X105498362Y-86733545D01*
X105498362Y-86733545D01*
G37*
G36*
X126580800Y-88480800D02*
G01*
X124879200Y-88480800D01*
X124879200Y-86779200D01*
X126580800Y-86779200D01*
X126580800Y-88480800D01*
X126580800Y-88480800D01*
G37*
G36*
X123978169Y-86811895D02*
G01*
X124133005Y-86876031D01*
X124272354Y-86969140D01*
X124390860Y-87087646D01*
X124483969Y-87226995D01*
X124548105Y-87381831D01*
X124580800Y-87546203D01*
X124580800Y-87713797D01*
X124548105Y-87878169D01*
X124483969Y-88033005D01*
X124390860Y-88172354D01*
X124272354Y-88290860D01*
X124133005Y-88383969D01*
X123978169Y-88448105D01*
X123813797Y-88480800D01*
X123646203Y-88480800D01*
X123481831Y-88448105D01*
X123326995Y-88383969D01*
X123187646Y-88290860D01*
X123069140Y-88172354D01*
X122976031Y-88033005D01*
X122911895Y-87878169D01*
X122879200Y-87713797D01*
X122879200Y-87546203D01*
X122911895Y-87381831D01*
X122976031Y-87226995D01*
X123069140Y-87087646D01*
X123187646Y-86969140D01*
X123326995Y-86876031D01*
X123481831Y-86811895D01*
X123646203Y-86779200D01*
X123813797Y-86779200D01*
X123978169Y-86811895D01*
X123978169Y-86811895D01*
G37*
G36*
X118395772Y-81324911D02*
G01*
X118476741Y-81341017D01*
X118705555Y-81435795D01*
X118911482Y-81573391D01*
X119086609Y-81748518D01*
X119224205Y-81954445D01*
X119318983Y-82183259D01*
X119367300Y-82426167D01*
X119367300Y-82673833D01*
X119318983Y-82916741D01*
X119224205Y-83145555D01*
X119086609Y-83351482D01*
X118911482Y-83526609D01*
X118705555Y-83664205D01*
X118476741Y-83758983D01*
X118395772Y-83775089D01*
X118233835Y-83807300D01*
X117986165Y-83807300D01*
X117824228Y-83775089D01*
X117743259Y-83758983D01*
X117514445Y-83664205D01*
X117308518Y-83526609D01*
X117133391Y-83351482D01*
X116995795Y-83145555D01*
X116901017Y-82916741D01*
X116852700Y-82673833D01*
X116852700Y-82426167D01*
X116901017Y-82183259D01*
X116995795Y-81954445D01*
X117133391Y-81748518D01*
X117308518Y-81573391D01*
X117514445Y-81435795D01*
X117743259Y-81341017D01*
X117824228Y-81324911D01*
X117986165Y-81292700D01*
X118233835Y-81292700D01*
X118395772Y-81324911D01*
X118395772Y-81324911D01*
G37*
G36*
X113315772Y-81324911D02*
G01*
X113396741Y-81341017D01*
X113625555Y-81435795D01*
X113831482Y-81573391D01*
X114006609Y-81748518D01*
X114144205Y-81954445D01*
X114238983Y-82183259D01*
X114287300Y-82426167D01*
X114287300Y-82673833D01*
X114238983Y-82916741D01*
X114144205Y-83145555D01*
X114006609Y-83351482D01*
X113831482Y-83526609D01*
X113625555Y-83664205D01*
X113396741Y-83758983D01*
X113315772Y-83775089D01*
X113153835Y-83807300D01*
X112906165Y-83807300D01*
X112744228Y-83775089D01*
X112663259Y-83758983D01*
X112434445Y-83664205D01*
X112228518Y-83526609D01*
X112053391Y-83351482D01*
X111915795Y-83145555D01*
X111821017Y-82916741D01*
X111772700Y-82673833D01*
X111772700Y-82426167D01*
X111821017Y-82183259D01*
X111915795Y-81954445D01*
X112053391Y-81748518D01*
X112228518Y-81573391D01*
X112434445Y-81435795D01*
X112663259Y-81341017D01*
X112744228Y-81324911D01*
X112906165Y-81292700D01*
X113153835Y-81292700D01*
X113315772Y-81324911D01*
X113315772Y-81324911D01*
G37*
G36*
X128555772Y-81324911D02*
G01*
X128636741Y-81341017D01*
X128865555Y-81435795D01*
X129071482Y-81573391D01*
X129246609Y-81748518D01*
X129384205Y-81954445D01*
X129478983Y-82183259D01*
X129527300Y-82426167D01*
X129527300Y-82673833D01*
X129478983Y-82916741D01*
X129384205Y-83145555D01*
X129246609Y-83351482D01*
X129071482Y-83526609D01*
X128865555Y-83664205D01*
X128636741Y-83758983D01*
X128555772Y-83775089D01*
X128393835Y-83807300D01*
X128146165Y-83807300D01*
X127984228Y-83775089D01*
X127903259Y-83758983D01*
X127674445Y-83664205D01*
X127468518Y-83526609D01*
X127293391Y-83351482D01*
X127155795Y-83145555D01*
X127061017Y-82916741D01*
X127012700Y-82673833D01*
X127012700Y-82426167D01*
X127061017Y-82183259D01*
X127155795Y-81954445D01*
X127293391Y-81748518D01*
X127468518Y-81573391D01*
X127674445Y-81435795D01*
X127903259Y-81341017D01*
X127984228Y-81324911D01*
X128146165Y-81292700D01*
X128393835Y-81292700D01*
X128555772Y-81324911D01*
X128555772Y-81324911D01*
G37*
G36*
X133635772Y-81324911D02*
G01*
X133716741Y-81341017D01*
X133945555Y-81435795D01*
X134151482Y-81573391D01*
X134326609Y-81748518D01*
X134464205Y-81954445D01*
X134558983Y-82183259D01*
X134607300Y-82426167D01*
X134607300Y-82673833D01*
X134558983Y-82916741D01*
X134464205Y-83145555D01*
X134326609Y-83351482D01*
X134151482Y-83526609D01*
X133945555Y-83664205D01*
X133716741Y-83758983D01*
X133635772Y-83775089D01*
X133473835Y-83807300D01*
X133226165Y-83807300D01*
X133064228Y-83775089D01*
X132983259Y-83758983D01*
X132754445Y-83664205D01*
X132548518Y-83526609D01*
X132373391Y-83351482D01*
X132235795Y-83145555D01*
X132141017Y-82916741D01*
X132092700Y-82673833D01*
X132092700Y-82426167D01*
X132141017Y-82183259D01*
X132235795Y-81954445D01*
X132373391Y-81748518D01*
X132548518Y-81573391D01*
X132754445Y-81435795D01*
X132983259Y-81341017D01*
X133064228Y-81324911D01*
X133226165Y-81292700D01*
X133473835Y-81292700D01*
X133635772Y-81324911D01*
X133635772Y-81324911D01*
G37*
G36*
X103155772Y-81324911D02*
G01*
X103236741Y-81341017D01*
X103465555Y-81435795D01*
X103671482Y-81573391D01*
X103846609Y-81748518D01*
X103984205Y-81954445D01*
X104078983Y-82183259D01*
X104127300Y-82426167D01*
X104127300Y-82673833D01*
X104078983Y-82916741D01*
X103984205Y-83145555D01*
X103846609Y-83351482D01*
X103671482Y-83526609D01*
X103465555Y-83664205D01*
X103236741Y-83758983D01*
X103155772Y-83775089D01*
X102993835Y-83807300D01*
X102746165Y-83807300D01*
X102584228Y-83775089D01*
X102503259Y-83758983D01*
X102274445Y-83664205D01*
X102068518Y-83526609D01*
X101893391Y-83351482D01*
X101755795Y-83145555D01*
X101661017Y-82916741D01*
X101612700Y-82673833D01*
X101612700Y-82426167D01*
X101661017Y-82183259D01*
X101755795Y-81954445D01*
X101893391Y-81748518D01*
X102068518Y-81573391D01*
X102274445Y-81435795D01*
X102503259Y-81341017D01*
X102584228Y-81324911D01*
X102746165Y-81292700D01*
X102993835Y-81292700D01*
X103155772Y-81324911D01*
X103155772Y-81324911D01*
G37*
G36*
X98075772Y-81324911D02*
G01*
X98156741Y-81341017D01*
X98385555Y-81435795D01*
X98591482Y-81573391D01*
X98766609Y-81748518D01*
X98904205Y-81954445D01*
X98998983Y-82183259D01*
X99047300Y-82426167D01*
X99047300Y-82673833D01*
X98998983Y-82916741D01*
X98904205Y-83145555D01*
X98766609Y-83351482D01*
X98591482Y-83526609D01*
X98385555Y-83664205D01*
X98156741Y-83758983D01*
X98075772Y-83775089D01*
X97913835Y-83807300D01*
X97666165Y-83807300D01*
X97504228Y-83775089D01*
X97423259Y-83758983D01*
X97194445Y-83664205D01*
X96988518Y-83526609D01*
X96813391Y-83351482D01*
X96675795Y-83145555D01*
X96581017Y-82916741D01*
X96532700Y-82673833D01*
X96532700Y-82426167D01*
X96581017Y-82183259D01*
X96675795Y-81954445D01*
X96813391Y-81748518D01*
X96988518Y-81573391D01*
X97194445Y-81435795D01*
X97423259Y-81341017D01*
X97504228Y-81324911D01*
X97666165Y-81292700D01*
X97913835Y-81292700D01*
X98075772Y-81324911D01*
X98075772Y-81324911D01*
G37*
G36*
X87915772Y-81324911D02*
G01*
X87996741Y-81341017D01*
X88225555Y-81435795D01*
X88431482Y-81573391D01*
X88606609Y-81748518D01*
X88744205Y-81954445D01*
X88838983Y-82183259D01*
X88887300Y-82426167D01*
X88887300Y-82673833D01*
X88838983Y-82916741D01*
X88744205Y-83145555D01*
X88606609Y-83351482D01*
X88431482Y-83526609D01*
X88225555Y-83664205D01*
X87996741Y-83758983D01*
X87915772Y-83775089D01*
X87753835Y-83807300D01*
X87506165Y-83807300D01*
X87344228Y-83775089D01*
X87263259Y-83758983D01*
X87034445Y-83664205D01*
X86828518Y-83526609D01*
X86653391Y-83351482D01*
X86515795Y-83145555D01*
X86421017Y-82916741D01*
X86372700Y-82673833D01*
X86372700Y-82426167D01*
X86421017Y-82183259D01*
X86515795Y-81954445D01*
X86653391Y-81748518D01*
X86828518Y-81573391D01*
X87034445Y-81435795D01*
X87263259Y-81341017D01*
X87344228Y-81324911D01*
X87506165Y-81292700D01*
X87753835Y-81292700D01*
X87915772Y-81324911D01*
X87915772Y-81324911D01*
G37*
G36*
X82835772Y-81324911D02*
G01*
X82916741Y-81341017D01*
X83145555Y-81435795D01*
X83351482Y-81573391D01*
X83526609Y-81748518D01*
X83664205Y-81954445D01*
X83758983Y-82183259D01*
X83807300Y-82426167D01*
X83807300Y-82673833D01*
X83758983Y-82916741D01*
X83664205Y-83145555D01*
X83526609Y-83351482D01*
X83351482Y-83526609D01*
X83145555Y-83664205D01*
X82916741Y-83758983D01*
X82835772Y-83775089D01*
X82673835Y-83807300D01*
X82426165Y-83807300D01*
X82264228Y-83775089D01*
X82183259Y-83758983D01*
X81954445Y-83664205D01*
X81748518Y-83526609D01*
X81573391Y-83351482D01*
X81435795Y-83145555D01*
X81341017Y-82916741D01*
X81292700Y-82673833D01*
X81292700Y-82426167D01*
X81341017Y-82183259D01*
X81435795Y-81954445D01*
X81573391Y-81748518D01*
X81748518Y-81573391D01*
X81954445Y-81435795D01*
X82183259Y-81341017D01*
X82264228Y-81324911D01*
X82426165Y-81292700D01*
X82673835Y-81292700D01*
X82835772Y-81324911D01*
X82835772Y-81324911D01*
G37*
G36*
X72675772Y-81324911D02*
G01*
X72756741Y-81341017D01*
X72985555Y-81435795D01*
X73191482Y-81573391D01*
X73366609Y-81748518D01*
X73504205Y-81954445D01*
X73598983Y-82183259D01*
X73647300Y-82426167D01*
X73647300Y-82673833D01*
X73598983Y-82916741D01*
X73504205Y-83145555D01*
X73366609Y-83351482D01*
X73191482Y-83526609D01*
X72985555Y-83664205D01*
X72756741Y-83758983D01*
X72675772Y-83775089D01*
X72513835Y-83807300D01*
X72266165Y-83807300D01*
X72104228Y-83775089D01*
X72023259Y-83758983D01*
X71794445Y-83664205D01*
X71588518Y-83526609D01*
X71413391Y-83351482D01*
X71275795Y-83145555D01*
X71181017Y-82916741D01*
X71132700Y-82673833D01*
X71132700Y-82426167D01*
X71181017Y-82183259D01*
X71275795Y-81954445D01*
X71413391Y-81748518D01*
X71588518Y-81573391D01*
X71794445Y-81435795D01*
X72023259Y-81341017D01*
X72104228Y-81324911D01*
X72266165Y-81292700D01*
X72513835Y-81292700D01*
X72675772Y-81324911D01*
X72675772Y-81324911D01*
G37*
G36*
X67595772Y-81324911D02*
G01*
X67676741Y-81341017D01*
X67905555Y-81435795D01*
X68111482Y-81573391D01*
X68286609Y-81748518D01*
X68424205Y-81954445D01*
X68518983Y-82183259D01*
X68567300Y-82426167D01*
X68567300Y-82673833D01*
X68518983Y-82916741D01*
X68424205Y-83145555D01*
X68286609Y-83351482D01*
X68111482Y-83526609D01*
X67905555Y-83664205D01*
X67676741Y-83758983D01*
X67595772Y-83775089D01*
X67433835Y-83807300D01*
X67186165Y-83807300D01*
X67024228Y-83775089D01*
X66943259Y-83758983D01*
X66714445Y-83664205D01*
X66508518Y-83526609D01*
X66333391Y-83351482D01*
X66195795Y-83145555D01*
X66101017Y-82916741D01*
X66052700Y-82673833D01*
X66052700Y-82426167D01*
X66101017Y-82183259D01*
X66195795Y-81954445D01*
X66333391Y-81748518D01*
X66508518Y-81573391D01*
X66714445Y-81435795D01*
X66943259Y-81341017D01*
X67024228Y-81324911D01*
X67186165Y-81292700D01*
X67433835Y-81292700D01*
X67595772Y-81324911D01*
X67595772Y-81324911D01*
G37*
G36*
X53532631Y-79514679D02*
G01*
X53652817Y-79564461D01*
X53652818Y-79564462D01*
X53760978Y-79636732D01*
X53852968Y-79728722D01*
X53856886Y-79734586D01*
X53925239Y-79836883D01*
X53975021Y-79957069D01*
X54000400Y-80084656D01*
X54000400Y-80214744D01*
X53975021Y-80342331D01*
X53925239Y-80462517D01*
X53925238Y-80462518D01*
X53852968Y-80570678D01*
X53760978Y-80662668D01*
X53688871Y-80710848D01*
X53652817Y-80734939D01*
X53532631Y-80784721D01*
X53405044Y-80810100D01*
X53274956Y-80810100D01*
X53147369Y-80784721D01*
X53027183Y-80734939D01*
X52991129Y-80710848D01*
X52919022Y-80662668D01*
X52827032Y-80570678D01*
X52754762Y-80462518D01*
X52754761Y-80462517D01*
X52704979Y-80342331D01*
X52679600Y-80214744D01*
X52679600Y-80084656D01*
X52704979Y-79957069D01*
X52754761Y-79836883D01*
X52823114Y-79734586D01*
X52827032Y-79728722D01*
X52919022Y-79636732D01*
X53027182Y-79564462D01*
X53027183Y-79564461D01*
X53147369Y-79514679D01*
X53274956Y-79489300D01*
X53405044Y-79489300D01*
X53532631Y-79514679D01*
X53532631Y-79514679D01*
G37*
G36*
X61152631Y-79514679D02*
G01*
X61272817Y-79564461D01*
X61272818Y-79564462D01*
X61380978Y-79636732D01*
X61472968Y-79728722D01*
X61476886Y-79734586D01*
X61545239Y-79836883D01*
X61595021Y-79957069D01*
X61620400Y-80084656D01*
X61620400Y-80214744D01*
X61595021Y-80342331D01*
X61545239Y-80462517D01*
X61545238Y-80462518D01*
X61472968Y-80570678D01*
X61380978Y-80662668D01*
X61308871Y-80710848D01*
X61272817Y-80734939D01*
X61152631Y-80784721D01*
X61025044Y-80810100D01*
X60894956Y-80810100D01*
X60767369Y-80784721D01*
X60647183Y-80734939D01*
X60611129Y-80710848D01*
X60539022Y-80662668D01*
X60447032Y-80570678D01*
X60374762Y-80462518D01*
X60374761Y-80462517D01*
X60324979Y-80342331D01*
X60299600Y-80214744D01*
X60299600Y-80084656D01*
X60324979Y-79957069D01*
X60374761Y-79836883D01*
X60443114Y-79734586D01*
X60447032Y-79728722D01*
X60539022Y-79636732D01*
X60647182Y-79564462D01*
X60647183Y-79564461D01*
X60767369Y-79514679D01*
X60894956Y-79489300D01*
X61025044Y-79489300D01*
X61152631Y-79514679D01*
X61152631Y-79514679D01*
G37*
G36*
X147495247Y-78872288D02*
G01*
X147604586Y-78917578D01*
X147702988Y-78983328D01*
X147786672Y-79067012D01*
X147852422Y-79165414D01*
X147897712Y-79274753D01*
X147920800Y-79390826D01*
X147920800Y-79509174D01*
X147897712Y-79625247D01*
X147852422Y-79734586D01*
X147786672Y-79832988D01*
X147702988Y-79916672D01*
X147604586Y-79982422D01*
X147604585Y-79982423D01*
X147604584Y-79982423D01*
X147495247Y-80027712D01*
X147379175Y-80050800D01*
X147260825Y-80050800D01*
X147144753Y-80027712D01*
X147035416Y-79982423D01*
X147035415Y-79982423D01*
X147035414Y-79982422D01*
X146937012Y-79916672D01*
X146853328Y-79832988D01*
X146787578Y-79734586D01*
X146742288Y-79625247D01*
X146719200Y-79509174D01*
X146719200Y-79390826D01*
X146742288Y-79274753D01*
X146787578Y-79165414D01*
X146853328Y-79067012D01*
X146937012Y-78983328D01*
X147035414Y-78917578D01*
X147144753Y-78872288D01*
X147260825Y-78849200D01*
X147379175Y-78849200D01*
X147495247Y-78872288D01*
X147495247Y-78872288D01*
G37*
G36*
X61152631Y-74155279D02*
G01*
X61272817Y-74205061D01*
X61272818Y-74205062D01*
X61380978Y-74277332D01*
X61472968Y-74369322D01*
X61521148Y-74441429D01*
X61545239Y-74477483D01*
X61595021Y-74597669D01*
X61620400Y-74725256D01*
X61620400Y-74855344D01*
X61595021Y-74982931D01*
X61545239Y-75103117D01*
X61545238Y-75103118D01*
X61472968Y-75211278D01*
X61380978Y-75303268D01*
X61308871Y-75351448D01*
X61272817Y-75375539D01*
X61152631Y-75425321D01*
X61025044Y-75450700D01*
X60894956Y-75450700D01*
X60767369Y-75425321D01*
X60647183Y-75375539D01*
X60611129Y-75351448D01*
X60539022Y-75303268D01*
X60447032Y-75211278D01*
X60374762Y-75103118D01*
X60374761Y-75103117D01*
X60324979Y-74982931D01*
X60299600Y-74855344D01*
X60299600Y-74725256D01*
X60324979Y-74597669D01*
X60374761Y-74477483D01*
X60398852Y-74441429D01*
X60447032Y-74369322D01*
X60539022Y-74277332D01*
X60647182Y-74205062D01*
X60647183Y-74205061D01*
X60767369Y-74155279D01*
X60894956Y-74129900D01*
X61025044Y-74129900D01*
X61152631Y-74155279D01*
X61152631Y-74155279D01*
G37*
G36*
X53532631Y-74155279D02*
G01*
X53652817Y-74205061D01*
X53652818Y-74205062D01*
X53760978Y-74277332D01*
X53852968Y-74369322D01*
X53901148Y-74441429D01*
X53925239Y-74477483D01*
X53975021Y-74597669D01*
X54000400Y-74725256D01*
X54000400Y-74855344D01*
X53975021Y-74982931D01*
X53925239Y-75103117D01*
X53925238Y-75103118D01*
X53852968Y-75211278D01*
X53760978Y-75303268D01*
X53688871Y-75351448D01*
X53652817Y-75375539D01*
X53532631Y-75425321D01*
X53405044Y-75450700D01*
X53274956Y-75450700D01*
X53147369Y-75425321D01*
X53027183Y-75375539D01*
X52991129Y-75351448D01*
X52919022Y-75303268D01*
X52827032Y-75211278D01*
X52754762Y-75103118D01*
X52754761Y-75103117D01*
X52704979Y-74982931D01*
X52679600Y-74855344D01*
X52679600Y-74725256D01*
X52704979Y-74597669D01*
X52754761Y-74477483D01*
X52778852Y-74441429D01*
X52827032Y-74369322D01*
X52919022Y-74277332D01*
X53027182Y-74205062D01*
X53027183Y-74205061D01*
X53147369Y-74155279D01*
X53274956Y-74129900D01*
X53405044Y-74129900D01*
X53532631Y-74155279D01*
X53532631Y-74155279D01*
G37*
G36*
X147495247Y-72372288D02*
G01*
X147604586Y-72417578D01*
X147702988Y-72483328D01*
X147786672Y-72567012D01*
X147852422Y-72665414D01*
X147897712Y-72774753D01*
X147920800Y-72890826D01*
X147920800Y-73009174D01*
X147897712Y-73125247D01*
X147852422Y-73234586D01*
X147786672Y-73332988D01*
X147702988Y-73416672D01*
X147604586Y-73482422D01*
X147604585Y-73482423D01*
X147604584Y-73482423D01*
X147495247Y-73527712D01*
X147379175Y-73550800D01*
X147260825Y-73550800D01*
X147144753Y-73527712D01*
X147035416Y-73482423D01*
X147035415Y-73482423D01*
X147035414Y-73482422D01*
X146937012Y-73416672D01*
X146853328Y-73332988D01*
X146787578Y-73234586D01*
X146742288Y-73125247D01*
X146719200Y-73009174D01*
X146719200Y-72890826D01*
X146742288Y-72774753D01*
X146787578Y-72665414D01*
X146853328Y-72567012D01*
X146937012Y-72483328D01*
X147035414Y-72417578D01*
X147144753Y-72372288D01*
X147260825Y-72349200D01*
X147379175Y-72349200D01*
X147495247Y-72372288D01*
X147495247Y-72372288D01*
G37*
G36*
X87915772Y-68624911D02*
G01*
X87996741Y-68641017D01*
X88225555Y-68735795D01*
X88431482Y-68873391D01*
X88606609Y-69048518D01*
X88744205Y-69254445D01*
X88838983Y-69483259D01*
X88887300Y-69726167D01*
X88887300Y-69973833D01*
X88838983Y-70216741D01*
X88744205Y-70445555D01*
X88606609Y-70651482D01*
X88431482Y-70826609D01*
X88225555Y-70964205D01*
X87996741Y-71058983D01*
X87915772Y-71075089D01*
X87753835Y-71107300D01*
X87506165Y-71107300D01*
X87344228Y-71075089D01*
X87263259Y-71058983D01*
X87034445Y-70964205D01*
X86828518Y-70826609D01*
X86653391Y-70651482D01*
X86515795Y-70445555D01*
X86421017Y-70216741D01*
X86372700Y-69973833D01*
X86372700Y-69726167D01*
X86421017Y-69483259D01*
X86515795Y-69254445D01*
X86653391Y-69048518D01*
X86828518Y-68873391D01*
X87034445Y-68735795D01*
X87263259Y-68641017D01*
X87344228Y-68624911D01*
X87506165Y-68592700D01*
X87753835Y-68592700D01*
X87915772Y-68624911D01*
X87915772Y-68624911D01*
G37*
G36*
X67595772Y-68624911D02*
G01*
X67676741Y-68641017D01*
X67905555Y-68735795D01*
X68111482Y-68873391D01*
X68286609Y-69048518D01*
X68424205Y-69254445D01*
X68518983Y-69483259D01*
X68567300Y-69726167D01*
X68567300Y-69973833D01*
X68518983Y-70216741D01*
X68424205Y-70445555D01*
X68286609Y-70651482D01*
X68111482Y-70826609D01*
X67905555Y-70964205D01*
X67676741Y-71058983D01*
X67595772Y-71075089D01*
X67433835Y-71107300D01*
X67186165Y-71107300D01*
X67024228Y-71075089D01*
X66943259Y-71058983D01*
X66714445Y-70964205D01*
X66508518Y-70826609D01*
X66333391Y-70651482D01*
X66195795Y-70445555D01*
X66101017Y-70216741D01*
X66052700Y-69973833D01*
X66052700Y-69726167D01*
X66101017Y-69483259D01*
X66195795Y-69254445D01*
X66333391Y-69048518D01*
X66508518Y-68873391D01*
X66714445Y-68735795D01*
X66943259Y-68641017D01*
X67024228Y-68624911D01*
X67186165Y-68592700D01*
X67433835Y-68592700D01*
X67595772Y-68624911D01*
X67595772Y-68624911D01*
G37*
G36*
X98075772Y-68624911D02*
G01*
X98156741Y-68641017D01*
X98385555Y-68735795D01*
X98591482Y-68873391D01*
X98766609Y-69048518D01*
X98904205Y-69254445D01*
X98998983Y-69483259D01*
X99047300Y-69726167D01*
X99047300Y-69973833D01*
X98998983Y-70216741D01*
X98904205Y-70445555D01*
X98766609Y-70651482D01*
X98591482Y-70826609D01*
X98385555Y-70964205D01*
X98156741Y-71058983D01*
X98075772Y-71075089D01*
X97913835Y-71107300D01*
X97666165Y-71107300D01*
X97504228Y-71075089D01*
X97423259Y-71058983D01*
X97194445Y-70964205D01*
X96988518Y-70826609D01*
X96813391Y-70651482D01*
X96675795Y-70445555D01*
X96581017Y-70216741D01*
X96532700Y-69973833D01*
X96532700Y-69726167D01*
X96581017Y-69483259D01*
X96675795Y-69254445D01*
X96813391Y-69048518D01*
X96988518Y-68873391D01*
X97194445Y-68735795D01*
X97423259Y-68641017D01*
X97504228Y-68624911D01*
X97666165Y-68592700D01*
X97913835Y-68592700D01*
X98075772Y-68624911D01*
X98075772Y-68624911D01*
G37*
G36*
X103155772Y-68624911D02*
G01*
X103236741Y-68641017D01*
X103465555Y-68735795D01*
X103671482Y-68873391D01*
X103846609Y-69048518D01*
X103984205Y-69254445D01*
X104078983Y-69483259D01*
X104127300Y-69726167D01*
X104127300Y-69973833D01*
X104078983Y-70216741D01*
X103984205Y-70445555D01*
X103846609Y-70651482D01*
X103671482Y-70826609D01*
X103465555Y-70964205D01*
X103236741Y-71058983D01*
X103155772Y-71075089D01*
X102993835Y-71107300D01*
X102746165Y-71107300D01*
X102584228Y-71075089D01*
X102503259Y-71058983D01*
X102274445Y-70964205D01*
X102068518Y-70826609D01*
X101893391Y-70651482D01*
X101755795Y-70445555D01*
X101661017Y-70216741D01*
X101612700Y-69973833D01*
X101612700Y-69726167D01*
X101661017Y-69483259D01*
X101755795Y-69254445D01*
X101893391Y-69048518D01*
X102068518Y-68873391D01*
X102274445Y-68735795D01*
X102503259Y-68641017D01*
X102584228Y-68624911D01*
X102746165Y-68592700D01*
X102993835Y-68592700D01*
X103155772Y-68624911D01*
X103155772Y-68624911D01*
G37*
G36*
X82835772Y-68624911D02*
G01*
X82916741Y-68641017D01*
X83145555Y-68735795D01*
X83351482Y-68873391D01*
X83526609Y-69048518D01*
X83664205Y-69254445D01*
X83758983Y-69483259D01*
X83807300Y-69726167D01*
X83807300Y-69973833D01*
X83758983Y-70216741D01*
X83664205Y-70445555D01*
X83526609Y-70651482D01*
X83351482Y-70826609D01*
X83145555Y-70964205D01*
X82916741Y-71058983D01*
X82835772Y-71075089D01*
X82673835Y-71107300D01*
X82426165Y-71107300D01*
X82264228Y-71075089D01*
X82183259Y-71058983D01*
X81954445Y-70964205D01*
X81748518Y-70826609D01*
X81573391Y-70651482D01*
X81435795Y-70445555D01*
X81341017Y-70216741D01*
X81292700Y-69973833D01*
X81292700Y-69726167D01*
X81341017Y-69483259D01*
X81435795Y-69254445D01*
X81573391Y-69048518D01*
X81748518Y-68873391D01*
X81954445Y-68735795D01*
X82183259Y-68641017D01*
X82264228Y-68624911D01*
X82426165Y-68592700D01*
X82673835Y-68592700D01*
X82835772Y-68624911D01*
X82835772Y-68624911D01*
G37*
G36*
X118395772Y-68624911D02*
G01*
X118476741Y-68641017D01*
X118705555Y-68735795D01*
X118911482Y-68873391D01*
X119086609Y-69048518D01*
X119224205Y-69254445D01*
X119318983Y-69483259D01*
X119367300Y-69726167D01*
X119367300Y-69973833D01*
X119318983Y-70216741D01*
X119224205Y-70445555D01*
X119086609Y-70651482D01*
X118911482Y-70826609D01*
X118705555Y-70964205D01*
X118476741Y-71058983D01*
X118395772Y-71075089D01*
X118233835Y-71107300D01*
X117986165Y-71107300D01*
X117824228Y-71075089D01*
X117743259Y-71058983D01*
X117514445Y-70964205D01*
X117308518Y-70826609D01*
X117133391Y-70651482D01*
X116995795Y-70445555D01*
X116901017Y-70216741D01*
X116852700Y-69973833D01*
X116852700Y-69726167D01*
X116901017Y-69483259D01*
X116995795Y-69254445D01*
X117133391Y-69048518D01*
X117308518Y-68873391D01*
X117514445Y-68735795D01*
X117743259Y-68641017D01*
X117824228Y-68624911D01*
X117986165Y-68592700D01*
X118233835Y-68592700D01*
X118395772Y-68624911D01*
X118395772Y-68624911D01*
G37*
G36*
X113315772Y-68624911D02*
G01*
X113396741Y-68641017D01*
X113625555Y-68735795D01*
X113831482Y-68873391D01*
X114006609Y-69048518D01*
X114144205Y-69254445D01*
X114238983Y-69483259D01*
X114287300Y-69726167D01*
X114287300Y-69973833D01*
X114238983Y-70216741D01*
X114144205Y-70445555D01*
X114006609Y-70651482D01*
X113831482Y-70826609D01*
X113625555Y-70964205D01*
X113396741Y-71058983D01*
X113315772Y-71075089D01*
X113153835Y-71107300D01*
X112906165Y-71107300D01*
X112744228Y-71075089D01*
X112663259Y-71058983D01*
X112434445Y-70964205D01*
X112228518Y-70826609D01*
X112053391Y-70651482D01*
X111915795Y-70445555D01*
X111821017Y-70216741D01*
X111772700Y-69973833D01*
X111772700Y-69726167D01*
X111821017Y-69483259D01*
X111915795Y-69254445D01*
X112053391Y-69048518D01*
X112228518Y-68873391D01*
X112434445Y-68735795D01*
X112663259Y-68641017D01*
X112744228Y-68624911D01*
X112906165Y-68592700D01*
X113153835Y-68592700D01*
X113315772Y-68624911D01*
X113315772Y-68624911D01*
G37*
G36*
X128555772Y-68624911D02*
G01*
X128636741Y-68641017D01*
X128865555Y-68735795D01*
X129071482Y-68873391D01*
X129246609Y-69048518D01*
X129384205Y-69254445D01*
X129478983Y-69483259D01*
X129527300Y-69726167D01*
X129527300Y-69973833D01*
X129478983Y-70216741D01*
X129384205Y-70445555D01*
X129246609Y-70651482D01*
X129071482Y-70826609D01*
X128865555Y-70964205D01*
X128636741Y-71058983D01*
X128555772Y-71075089D01*
X128393835Y-71107300D01*
X128146165Y-71107300D01*
X127984228Y-71075089D01*
X127903259Y-71058983D01*
X127674445Y-70964205D01*
X127468518Y-70826609D01*
X127293391Y-70651482D01*
X127155795Y-70445555D01*
X127061017Y-70216741D01*
X127012700Y-69973833D01*
X127012700Y-69726167D01*
X127061017Y-69483259D01*
X127155795Y-69254445D01*
X127293391Y-69048518D01*
X127468518Y-68873391D01*
X127674445Y-68735795D01*
X127903259Y-68641017D01*
X127984228Y-68624911D01*
X128146165Y-68592700D01*
X128393835Y-68592700D01*
X128555772Y-68624911D01*
X128555772Y-68624911D01*
G37*
G36*
X133635772Y-68624911D02*
G01*
X133716741Y-68641017D01*
X133945555Y-68735795D01*
X134151482Y-68873391D01*
X134326609Y-69048518D01*
X134464205Y-69254445D01*
X134558983Y-69483259D01*
X134607300Y-69726167D01*
X134607300Y-69973833D01*
X134558983Y-70216741D01*
X134464205Y-70445555D01*
X134326609Y-70651482D01*
X134151482Y-70826609D01*
X133945555Y-70964205D01*
X133716741Y-71058983D01*
X133635772Y-71075089D01*
X133473835Y-71107300D01*
X133226165Y-71107300D01*
X133064228Y-71075089D01*
X132983259Y-71058983D01*
X132754445Y-70964205D01*
X132548518Y-70826609D01*
X132373391Y-70651482D01*
X132235795Y-70445555D01*
X132141017Y-70216741D01*
X132092700Y-69973833D01*
X132092700Y-69726167D01*
X132141017Y-69483259D01*
X132235795Y-69254445D01*
X132373391Y-69048518D01*
X132548518Y-68873391D01*
X132754445Y-68735795D01*
X132983259Y-68641017D01*
X133064228Y-68624911D01*
X133226165Y-68592700D01*
X133473835Y-68592700D01*
X133635772Y-68624911D01*
X133635772Y-68624911D01*
G37*
G36*
X72675772Y-68624911D02*
G01*
X72756741Y-68641017D01*
X72985555Y-68735795D01*
X73191482Y-68873391D01*
X73366609Y-69048518D01*
X73504205Y-69254445D01*
X73598983Y-69483259D01*
X73647300Y-69726167D01*
X73647300Y-69973833D01*
X73598983Y-70216741D01*
X73504205Y-70445555D01*
X73366609Y-70651482D01*
X73191482Y-70826609D01*
X72985555Y-70964205D01*
X72756741Y-71058983D01*
X72675772Y-71075089D01*
X72513835Y-71107300D01*
X72266165Y-71107300D01*
X72104228Y-71075089D01*
X72023259Y-71058983D01*
X71794445Y-70964205D01*
X71588518Y-70826609D01*
X71413391Y-70651482D01*
X71275795Y-70445555D01*
X71181017Y-70216741D01*
X71132700Y-69973833D01*
X71132700Y-69726167D01*
X71181017Y-69483259D01*
X71275795Y-69254445D01*
X71413391Y-69048518D01*
X71588518Y-68873391D01*
X71794445Y-68735795D01*
X72023259Y-68641017D01*
X72104228Y-68624911D01*
X72266165Y-68592700D01*
X72513835Y-68592700D01*
X72675772Y-68624911D01*
X72675772Y-68624911D01*
G37*
G36*
X153922611Y-65779065D02*
G01*
X154122352Y-65818796D01*
X154404579Y-65935699D01*
X154658578Y-66105415D01*
X154874585Y-66321422D01*
X155044301Y-66575421D01*
X155161204Y-66857648D01*
X155220800Y-67157259D01*
X155220800Y-67462741D01*
X155161204Y-67762352D01*
X155044301Y-68044579D01*
X154874585Y-68298578D01*
X154658578Y-68514585D01*
X154404579Y-68684301D01*
X154122352Y-68801204D01*
X153922611Y-68840935D01*
X153822742Y-68860800D01*
X153517258Y-68860800D01*
X153417389Y-68840935D01*
X153217648Y-68801204D01*
X152935421Y-68684301D01*
X152681422Y-68514585D01*
X152465415Y-68298578D01*
X152295699Y-68044579D01*
X152178796Y-67762352D01*
X152119200Y-67462741D01*
X152119200Y-67157259D01*
X152178796Y-66857648D01*
X152295699Y-66575421D01*
X152465415Y-66321422D01*
X152681422Y-66105415D01*
X152935421Y-65935699D01*
X153217648Y-65818796D01*
X153417389Y-65779065D01*
X153517258Y-65759200D01*
X153822742Y-65759200D01*
X153922611Y-65779065D01*
X153922611Y-65779065D01*
G37*
G36*
X153922611Y-60699065D02*
G01*
X154122352Y-60738796D01*
X154404579Y-60855699D01*
X154658578Y-61025415D01*
X154874585Y-61241422D01*
X155044301Y-61495421D01*
X155161204Y-61777648D01*
X155220800Y-62077259D01*
X155220800Y-62382741D01*
X155161204Y-62682352D01*
X155044301Y-62964579D01*
X154874585Y-63218578D01*
X154658578Y-63434585D01*
X154404579Y-63604301D01*
X154122352Y-63721204D01*
X153922611Y-63760935D01*
X153822742Y-63780800D01*
X153517258Y-63780800D01*
X153417389Y-63760935D01*
X153217648Y-63721204D01*
X152935421Y-63604301D01*
X152681422Y-63434585D01*
X152465415Y-63218578D01*
X152295699Y-62964579D01*
X152178796Y-62682352D01*
X152119200Y-62382741D01*
X152119200Y-62077259D01*
X152178796Y-61777648D01*
X152295699Y-61495421D01*
X152465415Y-61241422D01*
X152681422Y-61025415D01*
X152935421Y-60855699D01*
X153217648Y-60738796D01*
X153417389Y-60699065D01*
X153517258Y-60679200D01*
X153822742Y-60679200D01*
X153922611Y-60699065D01*
X153922611Y-60699065D01*
G37*
G36*
X77100800Y-63130800D02*
G01*
X75299200Y-63130800D01*
X75299200Y-61329200D01*
X77100800Y-61329200D01*
X77100800Y-63130800D01*
X77100800Y-63130800D01*
G37*
G36*
X101766787Y-61391510D02*
G01*
X101927162Y-61440160D01*
X102074965Y-61519162D01*
X102204517Y-61625483D01*
X102310838Y-61755035D01*
X102389840Y-61902838D01*
X102438490Y-62063213D01*
X102454916Y-62230000D01*
X102438490Y-62396787D01*
X102389840Y-62557162D01*
X102310838Y-62704965D01*
X102204517Y-62834517D01*
X102074965Y-62940838D01*
X101927162Y-63019840D01*
X101766787Y-63068490D01*
X101641794Y-63080800D01*
X101558206Y-63080800D01*
X101433213Y-63068490D01*
X101272838Y-63019840D01*
X101125035Y-62940838D01*
X100995483Y-62834517D01*
X100889162Y-62704965D01*
X100810160Y-62557162D01*
X100761510Y-62396787D01*
X100745084Y-62230000D01*
X100761510Y-62063213D01*
X100810160Y-61902838D01*
X100889162Y-61755035D01*
X100995483Y-61625483D01*
X101125035Y-61519162D01*
X101272838Y-61440160D01*
X101433213Y-61391510D01*
X101558206Y-61379200D01*
X101641794Y-61379200D01*
X101766787Y-61391510D01*
X101766787Y-61391510D01*
G37*
G36*
X99226787Y-61391510D02*
G01*
X99387162Y-61440160D01*
X99534965Y-61519162D01*
X99664517Y-61625483D01*
X99770838Y-61755035D01*
X99849840Y-61902838D01*
X99898490Y-62063213D01*
X99914916Y-62230000D01*
X99898490Y-62396787D01*
X99849840Y-62557162D01*
X99770838Y-62704965D01*
X99664517Y-62834517D01*
X99534965Y-62940838D01*
X99387162Y-63019840D01*
X99226787Y-63068490D01*
X99101794Y-63080800D01*
X99018206Y-63080800D01*
X98893213Y-63068490D01*
X98732838Y-63019840D01*
X98585035Y-62940838D01*
X98455483Y-62834517D01*
X98349162Y-62704965D01*
X98270160Y-62557162D01*
X98221510Y-62396787D01*
X98205084Y-62230000D01*
X98221510Y-62063213D01*
X98270160Y-61902838D01*
X98349162Y-61755035D01*
X98455483Y-61625483D01*
X98585035Y-61519162D01*
X98732838Y-61440160D01*
X98893213Y-61391510D01*
X99018206Y-61379200D01*
X99101794Y-61379200D01*
X99226787Y-61391510D01*
X99226787Y-61391510D01*
G37*
G36*
X96686787Y-61391510D02*
G01*
X96847162Y-61440160D01*
X96994965Y-61519162D01*
X97124517Y-61625483D01*
X97230838Y-61755035D01*
X97309840Y-61902838D01*
X97358490Y-62063213D01*
X97374916Y-62230000D01*
X97358490Y-62396787D01*
X97309840Y-62557162D01*
X97230838Y-62704965D01*
X97124517Y-62834517D01*
X96994965Y-62940838D01*
X96847162Y-63019840D01*
X96686787Y-63068490D01*
X96561794Y-63080800D01*
X96478206Y-63080800D01*
X96353213Y-63068490D01*
X96192838Y-63019840D01*
X96045035Y-62940838D01*
X95915483Y-62834517D01*
X95809162Y-62704965D01*
X95730160Y-62557162D01*
X95681510Y-62396787D01*
X95665084Y-62230000D01*
X95681510Y-62063213D01*
X95730160Y-61902838D01*
X95809162Y-61755035D01*
X95915483Y-61625483D01*
X96045035Y-61519162D01*
X96192838Y-61440160D01*
X96353213Y-61391510D01*
X96478206Y-61379200D01*
X96561794Y-61379200D01*
X96686787Y-61391510D01*
X96686787Y-61391510D01*
G37*
G36*
X94146787Y-61391510D02*
G01*
X94307162Y-61440160D01*
X94454965Y-61519162D01*
X94584517Y-61625483D01*
X94690838Y-61755035D01*
X94769840Y-61902838D01*
X94818490Y-62063213D01*
X94834916Y-62230000D01*
X94818490Y-62396787D01*
X94769840Y-62557162D01*
X94690838Y-62704965D01*
X94584517Y-62834517D01*
X94454965Y-62940838D01*
X94307162Y-63019840D01*
X94146787Y-63068490D01*
X94021794Y-63080800D01*
X93938206Y-63080800D01*
X93813213Y-63068490D01*
X93652838Y-63019840D01*
X93505035Y-62940838D01*
X93375483Y-62834517D01*
X93269162Y-62704965D01*
X93190160Y-62557162D01*
X93141510Y-62396787D01*
X93125084Y-62230000D01*
X93141510Y-62063213D01*
X93190160Y-61902838D01*
X93269162Y-61755035D01*
X93375483Y-61625483D01*
X93505035Y-61519162D01*
X93652838Y-61440160D01*
X93813213Y-61391510D01*
X93938206Y-61379200D01*
X94021794Y-61379200D01*
X94146787Y-61391510D01*
X94146787Y-61391510D01*
G37*
G36*
X91606787Y-61391510D02*
G01*
X91767162Y-61440160D01*
X91914965Y-61519162D01*
X92044517Y-61625483D01*
X92150838Y-61755035D01*
X92229840Y-61902838D01*
X92278490Y-62063213D01*
X92294916Y-62230000D01*
X92278490Y-62396787D01*
X92229840Y-62557162D01*
X92150838Y-62704965D01*
X92044517Y-62834517D01*
X91914965Y-62940838D01*
X91767162Y-63019840D01*
X91606787Y-63068490D01*
X91481794Y-63080800D01*
X91398206Y-63080800D01*
X91273213Y-63068490D01*
X91112838Y-63019840D01*
X90965035Y-62940838D01*
X90835483Y-62834517D01*
X90729162Y-62704965D01*
X90650160Y-62557162D01*
X90601510Y-62396787D01*
X90585084Y-62230000D01*
X90601510Y-62063213D01*
X90650160Y-61902838D01*
X90729162Y-61755035D01*
X90835483Y-61625483D01*
X90965035Y-61519162D01*
X91112838Y-61440160D01*
X91273213Y-61391510D01*
X91398206Y-61379200D01*
X91481794Y-61379200D01*
X91606787Y-61391510D01*
X91606787Y-61391510D01*
G37*
G36*
X89750800Y-63080800D02*
G01*
X88049200Y-63080800D01*
X88049200Y-61379200D01*
X89750800Y-61379200D01*
X89750800Y-63080800D01*
X89750800Y-63080800D01*
G37*
G36*
X119546787Y-61391510D02*
G01*
X119707162Y-61440160D01*
X119854965Y-61519162D01*
X119984517Y-61625483D01*
X120090838Y-61755035D01*
X120169840Y-61902838D01*
X120218490Y-62063213D01*
X120234916Y-62230000D01*
X120218490Y-62396787D01*
X120169840Y-62557162D01*
X120090838Y-62704965D01*
X119984517Y-62834517D01*
X119854965Y-62940838D01*
X119707162Y-63019840D01*
X119546787Y-63068490D01*
X119421794Y-63080800D01*
X119338206Y-63080800D01*
X119213213Y-63068490D01*
X119052838Y-63019840D01*
X118905035Y-62940838D01*
X118775483Y-62834517D01*
X118669162Y-62704965D01*
X118590160Y-62557162D01*
X118541510Y-62396787D01*
X118525084Y-62230000D01*
X118541510Y-62063213D01*
X118590160Y-61902838D01*
X118669162Y-61755035D01*
X118775483Y-61625483D01*
X118905035Y-61519162D01*
X119052838Y-61440160D01*
X119213213Y-61391510D01*
X119338206Y-61379200D01*
X119421794Y-61379200D01*
X119546787Y-61391510D01*
X119546787Y-61391510D01*
G37*
G36*
X109386787Y-61391510D02*
G01*
X109547162Y-61440160D01*
X109694965Y-61519162D01*
X109824517Y-61625483D01*
X109930838Y-61755035D01*
X110009840Y-61902838D01*
X110058490Y-62063213D01*
X110074916Y-62230000D01*
X110058490Y-62396787D01*
X110009840Y-62557162D01*
X109930838Y-62704965D01*
X109824517Y-62834517D01*
X109694965Y-62940838D01*
X109547162Y-63019840D01*
X109386787Y-63068490D01*
X109261794Y-63080800D01*
X109178206Y-63080800D01*
X109053213Y-63068490D01*
X108892838Y-63019840D01*
X108745035Y-62940838D01*
X108615483Y-62834517D01*
X108509162Y-62704965D01*
X108430160Y-62557162D01*
X108381510Y-62396787D01*
X108365084Y-62230000D01*
X108381510Y-62063213D01*
X108430160Y-61902838D01*
X108509162Y-61755035D01*
X108615483Y-61625483D01*
X108745035Y-61519162D01*
X108892838Y-61440160D01*
X109053213Y-61391510D01*
X109178206Y-61379200D01*
X109261794Y-61379200D01*
X109386787Y-61391510D01*
X109386787Y-61391510D01*
G37*
G36*
X111926787Y-61391510D02*
G01*
X112087162Y-61440160D01*
X112234965Y-61519162D01*
X112364517Y-61625483D01*
X112470838Y-61755035D01*
X112549840Y-61902838D01*
X112598490Y-62063213D01*
X112614916Y-62230000D01*
X112598490Y-62396787D01*
X112549840Y-62557162D01*
X112470838Y-62704965D01*
X112364517Y-62834517D01*
X112234965Y-62940838D01*
X112087162Y-63019840D01*
X111926787Y-63068490D01*
X111801794Y-63080800D01*
X111718206Y-63080800D01*
X111593213Y-63068490D01*
X111432838Y-63019840D01*
X111285035Y-62940838D01*
X111155483Y-62834517D01*
X111049162Y-62704965D01*
X110970160Y-62557162D01*
X110921510Y-62396787D01*
X110905084Y-62230000D01*
X110921510Y-62063213D01*
X110970160Y-61902838D01*
X111049162Y-61755035D01*
X111155483Y-61625483D01*
X111285035Y-61519162D01*
X111432838Y-61440160D01*
X111593213Y-61391510D01*
X111718206Y-61379200D01*
X111801794Y-61379200D01*
X111926787Y-61391510D01*
X111926787Y-61391510D01*
G37*
G36*
X114466787Y-61391510D02*
G01*
X114627162Y-61440160D01*
X114774965Y-61519162D01*
X114904517Y-61625483D01*
X115010838Y-61755035D01*
X115089840Y-61902838D01*
X115138490Y-62063213D01*
X115154916Y-62230000D01*
X115138490Y-62396787D01*
X115089840Y-62557162D01*
X115010838Y-62704965D01*
X114904517Y-62834517D01*
X114774965Y-62940838D01*
X114627162Y-63019840D01*
X114466787Y-63068490D01*
X114341794Y-63080800D01*
X114258206Y-63080800D01*
X114133213Y-63068490D01*
X113972838Y-63019840D01*
X113825035Y-62940838D01*
X113695483Y-62834517D01*
X113589162Y-62704965D01*
X113510160Y-62557162D01*
X113461510Y-62396787D01*
X113445084Y-62230000D01*
X113461510Y-62063213D01*
X113510160Y-61902838D01*
X113589162Y-61755035D01*
X113695483Y-61625483D01*
X113825035Y-61519162D01*
X113972838Y-61440160D01*
X114133213Y-61391510D01*
X114258206Y-61379200D01*
X114341794Y-61379200D01*
X114466787Y-61391510D01*
X114466787Y-61391510D01*
G37*
G36*
X117006787Y-61391510D02*
G01*
X117167162Y-61440160D01*
X117314965Y-61519162D01*
X117444517Y-61625483D01*
X117550838Y-61755035D01*
X117629840Y-61902838D01*
X117678490Y-62063213D01*
X117694916Y-62230000D01*
X117678490Y-62396787D01*
X117629840Y-62557162D01*
X117550838Y-62704965D01*
X117444517Y-62834517D01*
X117314965Y-62940838D01*
X117167162Y-63019840D01*
X117006787Y-63068490D01*
X116881794Y-63080800D01*
X116798206Y-63080800D01*
X116673213Y-63068490D01*
X116512838Y-63019840D01*
X116365035Y-62940838D01*
X116235483Y-62834517D01*
X116129162Y-62704965D01*
X116050160Y-62557162D01*
X116001510Y-62396787D01*
X115985084Y-62230000D01*
X116001510Y-62063213D01*
X116050160Y-61902838D01*
X116129162Y-61755035D01*
X116235483Y-61625483D01*
X116365035Y-61519162D01*
X116512838Y-61440160D01*
X116673213Y-61391510D01*
X116798206Y-61379200D01*
X116881794Y-61379200D01*
X117006787Y-61391510D01*
X117006787Y-61391510D01*
G37*
G36*
X104306787Y-61391510D02*
G01*
X104467162Y-61440160D01*
X104614965Y-61519162D01*
X104744517Y-61625483D01*
X104850838Y-61755035D01*
X104929840Y-61902838D01*
X104978490Y-62063213D01*
X104994916Y-62230000D01*
X104978490Y-62396787D01*
X104929840Y-62557162D01*
X104850838Y-62704965D01*
X104744517Y-62834517D01*
X104614965Y-62940838D01*
X104467162Y-63019840D01*
X104306787Y-63068490D01*
X104181794Y-63080800D01*
X104098206Y-63080800D01*
X103973213Y-63068490D01*
X103812838Y-63019840D01*
X103665035Y-62940838D01*
X103535483Y-62834517D01*
X103429162Y-62704965D01*
X103350160Y-62557162D01*
X103301510Y-62396787D01*
X103285084Y-62230000D01*
X103301510Y-62063213D01*
X103350160Y-61902838D01*
X103429162Y-61755035D01*
X103535483Y-61625483D01*
X103665035Y-61519162D01*
X103812838Y-61440160D01*
X103973213Y-61391510D01*
X104098206Y-61379200D01*
X104181794Y-61379200D01*
X104306787Y-61391510D01*
X104306787Y-61391510D01*
G37*
G36*
X122086787Y-61391510D02*
G01*
X122247162Y-61440160D01*
X122394965Y-61519162D01*
X122524517Y-61625483D01*
X122630838Y-61755035D01*
X122709840Y-61902838D01*
X122758490Y-62063213D01*
X122774916Y-62230000D01*
X122758490Y-62396787D01*
X122709840Y-62557162D01*
X122630838Y-62704965D01*
X122524517Y-62834517D01*
X122394965Y-62940838D01*
X122247162Y-63019840D01*
X122086787Y-63068490D01*
X121961794Y-63080800D01*
X121878206Y-63080800D01*
X121753213Y-63068490D01*
X121592838Y-63019840D01*
X121445035Y-62940838D01*
X121315483Y-62834517D01*
X121209162Y-62704965D01*
X121130160Y-62557162D01*
X121081510Y-62396787D01*
X121065084Y-62230000D01*
X121081510Y-62063213D01*
X121130160Y-61902838D01*
X121209162Y-61755035D01*
X121315483Y-61625483D01*
X121445035Y-61519162D01*
X121592838Y-61440160D01*
X121753213Y-61391510D01*
X121878206Y-61379200D01*
X121961794Y-61379200D01*
X122086787Y-61391510D01*
X122086787Y-61391510D01*
G37*
G36*
X106846787Y-61391510D02*
G01*
X107007162Y-61440160D01*
X107154965Y-61519162D01*
X107284517Y-61625483D01*
X107390838Y-61755035D01*
X107469840Y-61902838D01*
X107518490Y-62063213D01*
X107534916Y-62230000D01*
X107518490Y-62396787D01*
X107469840Y-62557162D01*
X107390838Y-62704965D01*
X107284517Y-62834517D01*
X107154965Y-62940838D01*
X107007162Y-63019840D01*
X106846787Y-63068490D01*
X106721794Y-63080800D01*
X106638206Y-63080800D01*
X106513213Y-63068490D01*
X106352838Y-63019840D01*
X106205035Y-62940838D01*
X106075483Y-62834517D01*
X105969162Y-62704965D01*
X105890160Y-62557162D01*
X105841510Y-62396787D01*
X105825084Y-62230000D01*
X105841510Y-62063213D01*
X105890160Y-61902838D01*
X105969162Y-61755035D01*
X106075483Y-61625483D01*
X106205035Y-61519162D01*
X106352838Y-61440160D01*
X106513213Y-61391510D01*
X106638206Y-61379200D01*
X106721794Y-61379200D01*
X106846787Y-61391510D01*
X106846787Y-61391510D01*
G37*
G36*
X76288362Y-58793545D02*
G01*
X76376588Y-58802234D01*
X76546389Y-58853743D01*
X76546392Y-58853744D01*
X76702878Y-58937388D01*
X76840044Y-59049956D01*
X76952612Y-59187122D01*
X77036256Y-59343608D01*
X77036257Y-59343611D01*
X77087766Y-59513412D01*
X77105158Y-59690000D01*
X77087766Y-59866588D01*
X77036257Y-60036389D01*
X77036256Y-60036392D01*
X76952612Y-60192878D01*
X76840044Y-60330044D01*
X76702878Y-60442612D01*
X76546392Y-60526256D01*
X76546389Y-60526257D01*
X76376588Y-60577766D01*
X76288362Y-60586455D01*
X76244250Y-60590800D01*
X76155750Y-60590800D01*
X76111638Y-60586455D01*
X76023412Y-60577766D01*
X75853611Y-60526257D01*
X75853608Y-60526256D01*
X75697122Y-60442612D01*
X75559956Y-60330044D01*
X75447388Y-60192878D01*
X75363744Y-60036392D01*
X75363743Y-60036389D01*
X75312234Y-59866588D01*
X75294842Y-59690000D01*
X75312234Y-59513412D01*
X75363743Y-59343611D01*
X75363744Y-59343608D01*
X75447388Y-59187122D01*
X75559956Y-59049956D01*
X75697122Y-58937388D01*
X75853608Y-58853744D01*
X75853611Y-58853743D01*
X76023412Y-58802234D01*
X76111638Y-58793545D01*
X76155750Y-58789200D01*
X76244250Y-58789200D01*
X76288362Y-58793545D01*
X76288362Y-58793545D01*
G37*
G36*
X131243585Y-57649974D02*
G01*
X131389321Y-57710340D01*
X131520480Y-57797978D01*
X131632022Y-57909520D01*
X131719660Y-58040679D01*
X131780026Y-58186415D01*
X131810800Y-58341128D01*
X131810800Y-58498872D01*
X131780026Y-58653585D01*
X131719660Y-58799321D01*
X131632022Y-58930480D01*
X131520480Y-59042022D01*
X131389321Y-59129660D01*
X131389320Y-59129661D01*
X131389319Y-59129661D01*
X131243585Y-59190026D01*
X131088873Y-59220800D01*
X130931127Y-59220800D01*
X130776415Y-59190026D01*
X130630681Y-59129661D01*
X130630680Y-59129661D01*
X130630679Y-59129660D01*
X130499520Y-59042022D01*
X130387978Y-58930480D01*
X130300340Y-58799321D01*
X130239974Y-58653585D01*
X130209200Y-58498872D01*
X130209200Y-58341128D01*
X130239974Y-58186415D01*
X130300340Y-58040679D01*
X130387978Y-57909520D01*
X130499520Y-57797978D01*
X130630679Y-57710340D01*
X130776415Y-57649974D01*
X130931127Y-57619200D01*
X131088873Y-57619200D01*
X131243585Y-57649974D01*
X131243585Y-57649974D01*
G37*
G36*
X136123585Y-57649974D02*
G01*
X136269321Y-57710340D01*
X136400480Y-57797978D01*
X136512022Y-57909520D01*
X136599660Y-58040679D01*
X136660026Y-58186415D01*
X136690800Y-58341128D01*
X136690800Y-58498872D01*
X136660026Y-58653585D01*
X136599660Y-58799321D01*
X136512022Y-58930480D01*
X136400480Y-59042022D01*
X136269321Y-59129660D01*
X136269320Y-59129661D01*
X136269319Y-59129661D01*
X136123585Y-59190026D01*
X135968873Y-59220800D01*
X135811127Y-59220800D01*
X135656415Y-59190026D01*
X135510681Y-59129661D01*
X135510680Y-59129661D01*
X135510679Y-59129660D01*
X135379520Y-59042022D01*
X135267978Y-58930480D01*
X135180340Y-58799321D01*
X135119974Y-58653585D01*
X135089200Y-58498872D01*
X135089200Y-58341128D01*
X135119974Y-58186415D01*
X135180340Y-58040679D01*
X135267978Y-57909520D01*
X135379520Y-57797978D01*
X135510679Y-57710340D01*
X135656415Y-57649974D01*
X135811127Y-57619200D01*
X135968873Y-57619200D01*
X136123585Y-57649974D01*
X136123585Y-57649974D01*
G37*
G36*
X76288362Y-56253545D02*
G01*
X76376588Y-56262234D01*
X76546389Y-56313743D01*
X76546392Y-56313744D01*
X76702878Y-56397388D01*
X76840044Y-56509956D01*
X76952612Y-56647122D01*
X77036256Y-56803608D01*
X77036257Y-56803611D01*
X77087766Y-56973412D01*
X77105158Y-57150000D01*
X77087766Y-57326588D01*
X77056153Y-57430800D01*
X77036256Y-57496392D01*
X76952612Y-57652878D01*
X76840044Y-57790044D01*
X76702878Y-57902612D01*
X76546392Y-57986256D01*
X76546389Y-57986257D01*
X76376588Y-58037766D01*
X76288362Y-58046455D01*
X76244250Y-58050800D01*
X76155750Y-58050800D01*
X76111638Y-58046455D01*
X76023412Y-58037766D01*
X75853611Y-57986257D01*
X75853608Y-57986256D01*
X75697122Y-57902612D01*
X75559956Y-57790044D01*
X75447388Y-57652878D01*
X75363744Y-57496392D01*
X75343847Y-57430800D01*
X75312234Y-57326588D01*
X75294842Y-57150000D01*
X75312234Y-56973412D01*
X75363743Y-56803611D01*
X75363744Y-56803608D01*
X75447388Y-56647122D01*
X75559956Y-56509956D01*
X75697122Y-56397388D01*
X75853608Y-56313744D01*
X75853611Y-56313743D01*
X76023412Y-56262234D01*
X76111638Y-56253545D01*
X76155750Y-56249200D01*
X76244250Y-56249200D01*
X76288362Y-56253545D01*
X76288362Y-56253545D01*
G37*
G36*
X67562611Y-54349065D02*
G01*
X67762352Y-54388796D01*
X68044579Y-54505699D01*
X68298578Y-54675415D01*
X68514585Y-54891422D01*
X68684301Y-55145421D01*
X68801204Y-55427648D01*
X68860800Y-55727259D01*
X68860800Y-56032741D01*
X68801204Y-56332352D01*
X68684301Y-56614579D01*
X68514585Y-56868578D01*
X68298578Y-57084585D01*
X68044579Y-57254301D01*
X67762352Y-57371204D01*
X67562611Y-57410935D01*
X67462742Y-57430800D01*
X67157258Y-57430800D01*
X67057389Y-57410935D01*
X66857648Y-57371204D01*
X66575421Y-57254301D01*
X66321422Y-57084585D01*
X66105415Y-56868578D01*
X65935699Y-56614579D01*
X65818796Y-56332352D01*
X65759200Y-56032741D01*
X65759200Y-55727259D01*
X65818796Y-55427648D01*
X65935699Y-55145421D01*
X66105415Y-54891422D01*
X66321422Y-54675415D01*
X66575421Y-54505699D01*
X66857648Y-54388796D01*
X67057389Y-54349065D01*
X67157258Y-54329200D01*
X67462742Y-54329200D01*
X67562611Y-54349065D01*
X67562611Y-54349065D01*
G37*
G36*
X146302611Y-54349065D02*
G01*
X146502352Y-54388796D01*
X146784579Y-54505699D01*
X147038578Y-54675415D01*
X147254585Y-54891422D01*
X147424301Y-55145421D01*
X147541204Y-55427648D01*
X147600800Y-55727259D01*
X147600800Y-56032741D01*
X147541204Y-56332352D01*
X147424301Y-56614579D01*
X147254585Y-56868578D01*
X147038578Y-57084585D01*
X146784579Y-57254301D01*
X146502352Y-57371204D01*
X146302611Y-57410935D01*
X146202742Y-57430800D01*
X145897258Y-57430800D01*
X145797389Y-57410935D01*
X145597648Y-57371204D01*
X145315421Y-57254301D01*
X145061422Y-57084585D01*
X144845415Y-56868578D01*
X144675699Y-56614579D01*
X144558796Y-56332352D01*
X144499200Y-56032741D01*
X144499200Y-55727259D01*
X144558796Y-55427648D01*
X144675699Y-55145421D01*
X144845415Y-54891422D01*
X145061422Y-54675415D01*
X145315421Y-54505699D01*
X145597648Y-54388796D01*
X145797389Y-54349065D01*
X145897258Y-54329200D01*
X146202742Y-54329200D01*
X146302611Y-54349065D01*
X146302611Y-54349065D01*
G37*
G36*
X76288362Y-53713545D02*
G01*
X76376588Y-53722234D01*
X76539031Y-53771511D01*
X76546392Y-53773744D01*
X76702878Y-53857388D01*
X76840044Y-53969956D01*
X76952612Y-54107122D01*
X77036256Y-54263608D01*
X77036257Y-54263611D01*
X77087766Y-54433412D01*
X77105158Y-54610000D01*
X77087766Y-54786588D01*
X77055964Y-54891424D01*
X77036256Y-54956392D01*
X76952612Y-55112878D01*
X76840044Y-55250044D01*
X76702878Y-55362612D01*
X76546392Y-55446256D01*
X76546389Y-55446257D01*
X76376588Y-55497766D01*
X76288362Y-55506455D01*
X76244250Y-55510800D01*
X76155750Y-55510800D01*
X76111638Y-55506455D01*
X76023412Y-55497766D01*
X75853611Y-55446257D01*
X75853608Y-55446256D01*
X75697122Y-55362612D01*
X75559956Y-55250044D01*
X75447388Y-55112878D01*
X75363744Y-54956392D01*
X75344036Y-54891424D01*
X75312234Y-54786588D01*
X75294842Y-54610000D01*
X75312234Y-54433412D01*
X75363743Y-54263611D01*
X75363744Y-54263608D01*
X75447388Y-54107122D01*
X75559956Y-53969956D01*
X75697122Y-53857388D01*
X75853608Y-53773744D01*
X75860969Y-53771511D01*
X76023412Y-53722234D01*
X76111638Y-53713545D01*
X76155750Y-53709200D01*
X76244250Y-53709200D01*
X76288362Y-53713545D01*
X76288362Y-53713545D01*
G37*
G36*
X119546787Y-53771510D02*
G01*
X119707162Y-53820160D01*
X119854965Y-53899162D01*
X119984517Y-54005483D01*
X120090838Y-54135035D01*
X120169840Y-54282838D01*
X120218490Y-54443213D01*
X120234916Y-54610000D01*
X120218490Y-54776787D01*
X120169840Y-54937162D01*
X120090838Y-55084965D01*
X119984517Y-55214517D01*
X119854965Y-55320838D01*
X119707162Y-55399840D01*
X119546787Y-55448490D01*
X119421794Y-55460800D01*
X119338206Y-55460800D01*
X119213213Y-55448490D01*
X119052838Y-55399840D01*
X118905035Y-55320838D01*
X118775483Y-55214517D01*
X118669162Y-55084965D01*
X118590160Y-54937162D01*
X118541510Y-54776787D01*
X118525084Y-54610000D01*
X118541510Y-54443213D01*
X118590160Y-54282838D01*
X118669162Y-54135035D01*
X118775483Y-54005483D01*
X118905035Y-53899162D01*
X119052838Y-53820160D01*
X119213213Y-53771510D01*
X119338206Y-53759200D01*
X119421794Y-53759200D01*
X119546787Y-53771510D01*
X119546787Y-53771510D01*
G37*
G36*
X122086787Y-53771510D02*
G01*
X122247162Y-53820160D01*
X122394965Y-53899162D01*
X122524517Y-54005483D01*
X122630838Y-54135035D01*
X122709840Y-54282838D01*
X122758490Y-54443213D01*
X122774916Y-54610000D01*
X122758490Y-54776787D01*
X122709840Y-54937162D01*
X122630838Y-55084965D01*
X122524517Y-55214517D01*
X122394965Y-55320838D01*
X122247162Y-55399840D01*
X122086787Y-55448490D01*
X121961794Y-55460800D01*
X121878206Y-55460800D01*
X121753213Y-55448490D01*
X121592838Y-55399840D01*
X121445035Y-55320838D01*
X121315483Y-55214517D01*
X121209162Y-55084965D01*
X121130160Y-54937162D01*
X121081510Y-54776787D01*
X121065084Y-54610000D01*
X121081510Y-54443213D01*
X121130160Y-54282838D01*
X121209162Y-54135035D01*
X121315483Y-54005483D01*
X121445035Y-53899162D01*
X121592838Y-53820160D01*
X121753213Y-53771510D01*
X121878206Y-53759200D01*
X121961794Y-53759200D01*
X122086787Y-53771510D01*
X122086787Y-53771510D01*
G37*
G36*
X114466787Y-53771510D02*
G01*
X114627162Y-53820160D01*
X114774965Y-53899162D01*
X114904517Y-54005483D01*
X115010838Y-54135035D01*
X115089840Y-54282838D01*
X115138490Y-54443213D01*
X115154916Y-54610000D01*
X115138490Y-54776787D01*
X115089840Y-54937162D01*
X115010838Y-55084965D01*
X114904517Y-55214517D01*
X114774965Y-55320838D01*
X114627162Y-55399840D01*
X114466787Y-55448490D01*
X114341794Y-55460800D01*
X114258206Y-55460800D01*
X114133213Y-55448490D01*
X113972838Y-55399840D01*
X113825035Y-55320838D01*
X113695483Y-55214517D01*
X113589162Y-55084965D01*
X113510160Y-54937162D01*
X113461510Y-54776787D01*
X113445084Y-54610000D01*
X113461510Y-54443213D01*
X113510160Y-54282838D01*
X113589162Y-54135035D01*
X113695483Y-54005483D01*
X113825035Y-53899162D01*
X113972838Y-53820160D01*
X114133213Y-53771510D01*
X114258206Y-53759200D01*
X114341794Y-53759200D01*
X114466787Y-53771510D01*
X114466787Y-53771510D01*
G37*
G36*
X111926787Y-53771510D02*
G01*
X112087162Y-53820160D01*
X112234965Y-53899162D01*
X112364517Y-54005483D01*
X112470838Y-54135035D01*
X112549840Y-54282838D01*
X112598490Y-54443213D01*
X112614916Y-54610000D01*
X112598490Y-54776787D01*
X112549840Y-54937162D01*
X112470838Y-55084965D01*
X112364517Y-55214517D01*
X112234965Y-55320838D01*
X112087162Y-55399840D01*
X111926787Y-55448490D01*
X111801794Y-55460800D01*
X111718206Y-55460800D01*
X111593213Y-55448490D01*
X111432838Y-55399840D01*
X111285035Y-55320838D01*
X111155483Y-55214517D01*
X111049162Y-55084965D01*
X110970160Y-54937162D01*
X110921510Y-54776787D01*
X110905084Y-54610000D01*
X110921510Y-54443213D01*
X110970160Y-54282838D01*
X111049162Y-54135035D01*
X111155483Y-54005483D01*
X111285035Y-53899162D01*
X111432838Y-53820160D01*
X111593213Y-53771510D01*
X111718206Y-53759200D01*
X111801794Y-53759200D01*
X111926787Y-53771510D01*
X111926787Y-53771510D01*
G37*
G36*
X109386787Y-53771510D02*
G01*
X109547162Y-53820160D01*
X109694965Y-53899162D01*
X109824517Y-54005483D01*
X109930838Y-54135035D01*
X110009840Y-54282838D01*
X110058490Y-54443213D01*
X110074916Y-54610000D01*
X110058490Y-54776787D01*
X110009840Y-54937162D01*
X109930838Y-55084965D01*
X109824517Y-55214517D01*
X109694965Y-55320838D01*
X109547162Y-55399840D01*
X109386787Y-55448490D01*
X109261794Y-55460800D01*
X109178206Y-55460800D01*
X109053213Y-55448490D01*
X108892838Y-55399840D01*
X108745035Y-55320838D01*
X108615483Y-55214517D01*
X108509162Y-55084965D01*
X108430160Y-54937162D01*
X108381510Y-54776787D01*
X108365084Y-54610000D01*
X108381510Y-54443213D01*
X108430160Y-54282838D01*
X108509162Y-54135035D01*
X108615483Y-54005483D01*
X108745035Y-53899162D01*
X108892838Y-53820160D01*
X109053213Y-53771510D01*
X109178206Y-53759200D01*
X109261794Y-53759200D01*
X109386787Y-53771510D01*
X109386787Y-53771510D01*
G37*
G36*
X106846787Y-53771510D02*
G01*
X107007162Y-53820160D01*
X107154965Y-53899162D01*
X107284517Y-54005483D01*
X107390838Y-54135035D01*
X107469840Y-54282838D01*
X107518490Y-54443213D01*
X107534916Y-54610000D01*
X107518490Y-54776787D01*
X107469840Y-54937162D01*
X107390838Y-55084965D01*
X107284517Y-55214517D01*
X107154965Y-55320838D01*
X107007162Y-55399840D01*
X106846787Y-55448490D01*
X106721794Y-55460800D01*
X106638206Y-55460800D01*
X106513213Y-55448490D01*
X106352838Y-55399840D01*
X106205035Y-55320838D01*
X106075483Y-55214517D01*
X105969162Y-55084965D01*
X105890160Y-54937162D01*
X105841510Y-54776787D01*
X105825084Y-54610000D01*
X105841510Y-54443213D01*
X105890160Y-54282838D01*
X105969162Y-54135035D01*
X106075483Y-54005483D01*
X106205035Y-53899162D01*
X106352838Y-53820160D01*
X106513213Y-53771510D01*
X106638206Y-53759200D01*
X106721794Y-53759200D01*
X106846787Y-53771510D01*
X106846787Y-53771510D01*
G37*
G36*
X117006787Y-53771510D02*
G01*
X117167162Y-53820160D01*
X117314965Y-53899162D01*
X117444517Y-54005483D01*
X117550838Y-54135035D01*
X117629840Y-54282838D01*
X117678490Y-54443213D01*
X117694916Y-54610000D01*
X117678490Y-54776787D01*
X117629840Y-54937162D01*
X117550838Y-55084965D01*
X117444517Y-55214517D01*
X117314965Y-55320838D01*
X117167162Y-55399840D01*
X117006787Y-55448490D01*
X116881794Y-55460800D01*
X116798206Y-55460800D01*
X116673213Y-55448490D01*
X116512838Y-55399840D01*
X116365035Y-55320838D01*
X116235483Y-55214517D01*
X116129162Y-55084965D01*
X116050160Y-54937162D01*
X116001510Y-54776787D01*
X115985084Y-54610000D01*
X116001510Y-54443213D01*
X116050160Y-54282838D01*
X116129162Y-54135035D01*
X116235483Y-54005483D01*
X116365035Y-53899162D01*
X116512838Y-53820160D01*
X116673213Y-53771510D01*
X116798206Y-53759200D01*
X116881794Y-53759200D01*
X117006787Y-53771510D01*
X117006787Y-53771510D01*
G37*
G36*
X89066787Y-53771510D02*
G01*
X89227162Y-53820160D01*
X89374965Y-53899162D01*
X89504517Y-54005483D01*
X89610838Y-54135035D01*
X89689840Y-54282838D01*
X89738490Y-54443213D01*
X89754916Y-54610000D01*
X89738490Y-54776787D01*
X89689840Y-54937162D01*
X89610838Y-55084965D01*
X89504517Y-55214517D01*
X89374965Y-55320838D01*
X89227162Y-55399840D01*
X89066787Y-55448490D01*
X88941794Y-55460800D01*
X88858206Y-55460800D01*
X88733213Y-55448490D01*
X88572838Y-55399840D01*
X88425035Y-55320838D01*
X88295483Y-55214517D01*
X88189162Y-55084965D01*
X88110160Y-54937162D01*
X88061510Y-54776787D01*
X88045084Y-54610000D01*
X88061510Y-54443213D01*
X88110160Y-54282838D01*
X88189162Y-54135035D01*
X88295483Y-54005483D01*
X88425035Y-53899162D01*
X88572838Y-53820160D01*
X88733213Y-53771510D01*
X88858206Y-53759200D01*
X88941794Y-53759200D01*
X89066787Y-53771510D01*
X89066787Y-53771510D01*
G37*
G36*
X91606787Y-53771510D02*
G01*
X91767162Y-53820160D01*
X91914965Y-53899162D01*
X92044517Y-54005483D01*
X92150838Y-54135035D01*
X92229840Y-54282838D01*
X92278490Y-54443213D01*
X92294916Y-54610000D01*
X92278490Y-54776787D01*
X92229840Y-54937162D01*
X92150838Y-55084965D01*
X92044517Y-55214517D01*
X91914965Y-55320838D01*
X91767162Y-55399840D01*
X91606787Y-55448490D01*
X91481794Y-55460800D01*
X91398206Y-55460800D01*
X91273213Y-55448490D01*
X91112838Y-55399840D01*
X90965035Y-55320838D01*
X90835483Y-55214517D01*
X90729162Y-55084965D01*
X90650160Y-54937162D01*
X90601510Y-54776787D01*
X90585084Y-54610000D01*
X90601510Y-54443213D01*
X90650160Y-54282838D01*
X90729162Y-54135035D01*
X90835483Y-54005483D01*
X90965035Y-53899162D01*
X91112838Y-53820160D01*
X91273213Y-53771510D01*
X91398206Y-53759200D01*
X91481794Y-53759200D01*
X91606787Y-53771510D01*
X91606787Y-53771510D01*
G37*
G36*
X94146787Y-53771510D02*
G01*
X94307162Y-53820160D01*
X94454965Y-53899162D01*
X94584517Y-54005483D01*
X94690838Y-54135035D01*
X94769840Y-54282838D01*
X94818490Y-54443213D01*
X94834916Y-54610000D01*
X94818490Y-54776787D01*
X94769840Y-54937162D01*
X94690838Y-55084965D01*
X94584517Y-55214517D01*
X94454965Y-55320838D01*
X94307162Y-55399840D01*
X94146787Y-55448490D01*
X94021794Y-55460800D01*
X93938206Y-55460800D01*
X93813213Y-55448490D01*
X93652838Y-55399840D01*
X93505035Y-55320838D01*
X93375483Y-55214517D01*
X93269162Y-55084965D01*
X93190160Y-54937162D01*
X93141510Y-54776787D01*
X93125084Y-54610000D01*
X93141510Y-54443213D01*
X93190160Y-54282838D01*
X93269162Y-54135035D01*
X93375483Y-54005483D01*
X93505035Y-53899162D01*
X93652838Y-53820160D01*
X93813213Y-53771510D01*
X93938206Y-53759200D01*
X94021794Y-53759200D01*
X94146787Y-53771510D01*
X94146787Y-53771510D01*
G37*
G36*
X96686787Y-53771510D02*
G01*
X96847162Y-53820160D01*
X96994965Y-53899162D01*
X97124517Y-54005483D01*
X97230838Y-54135035D01*
X97309840Y-54282838D01*
X97358490Y-54443213D01*
X97374916Y-54610000D01*
X97358490Y-54776787D01*
X97309840Y-54937162D01*
X97230838Y-55084965D01*
X97124517Y-55214517D01*
X96994965Y-55320838D01*
X96847162Y-55399840D01*
X96686787Y-55448490D01*
X96561794Y-55460800D01*
X96478206Y-55460800D01*
X96353213Y-55448490D01*
X96192838Y-55399840D01*
X96045035Y-55320838D01*
X95915483Y-55214517D01*
X95809162Y-55084965D01*
X95730160Y-54937162D01*
X95681510Y-54776787D01*
X95665084Y-54610000D01*
X95681510Y-54443213D01*
X95730160Y-54282838D01*
X95809162Y-54135035D01*
X95915483Y-54005483D01*
X96045035Y-53899162D01*
X96192838Y-53820160D01*
X96353213Y-53771510D01*
X96478206Y-53759200D01*
X96561794Y-53759200D01*
X96686787Y-53771510D01*
X96686787Y-53771510D01*
G37*
G36*
X99226787Y-53771510D02*
G01*
X99387162Y-53820160D01*
X99534965Y-53899162D01*
X99664517Y-54005483D01*
X99770838Y-54135035D01*
X99849840Y-54282838D01*
X99898490Y-54443213D01*
X99914916Y-54610000D01*
X99898490Y-54776787D01*
X99849840Y-54937162D01*
X99770838Y-55084965D01*
X99664517Y-55214517D01*
X99534965Y-55320838D01*
X99387162Y-55399840D01*
X99226787Y-55448490D01*
X99101794Y-55460800D01*
X99018206Y-55460800D01*
X98893213Y-55448490D01*
X98732838Y-55399840D01*
X98585035Y-55320838D01*
X98455483Y-55214517D01*
X98349162Y-55084965D01*
X98270160Y-54937162D01*
X98221510Y-54776787D01*
X98205084Y-54610000D01*
X98221510Y-54443213D01*
X98270160Y-54282838D01*
X98349162Y-54135035D01*
X98455483Y-54005483D01*
X98585035Y-53899162D01*
X98732838Y-53820160D01*
X98893213Y-53771510D01*
X99018206Y-53759200D01*
X99101794Y-53759200D01*
X99226787Y-53771510D01*
X99226787Y-53771510D01*
G37*
G36*
X104306787Y-53771510D02*
G01*
X104467162Y-53820160D01*
X104614965Y-53899162D01*
X104744517Y-54005483D01*
X104850838Y-54135035D01*
X104929840Y-54282838D01*
X104978490Y-54443213D01*
X104994916Y-54610000D01*
X104978490Y-54776787D01*
X104929840Y-54937162D01*
X104850838Y-55084965D01*
X104744517Y-55214517D01*
X104614965Y-55320838D01*
X104467162Y-55399840D01*
X104306787Y-55448490D01*
X104181794Y-55460800D01*
X104098206Y-55460800D01*
X103973213Y-55448490D01*
X103812838Y-55399840D01*
X103665035Y-55320838D01*
X103535483Y-55214517D01*
X103429162Y-55084965D01*
X103350160Y-54937162D01*
X103301510Y-54776787D01*
X103285084Y-54610000D01*
X103301510Y-54443213D01*
X103350160Y-54282838D01*
X103429162Y-54135035D01*
X103535483Y-54005483D01*
X103665035Y-53899162D01*
X103812838Y-53820160D01*
X103973213Y-53771510D01*
X104098206Y-53759200D01*
X104181794Y-53759200D01*
X104306787Y-53771510D01*
X104306787Y-53771510D01*
G37*
G36*
X101766787Y-53771510D02*
G01*
X101927162Y-53820160D01*
X102074965Y-53899162D01*
X102204517Y-54005483D01*
X102310838Y-54135035D01*
X102389840Y-54282838D01*
X102438490Y-54443213D01*
X102454916Y-54610000D01*
X102438490Y-54776787D01*
X102389840Y-54937162D01*
X102310838Y-55084965D01*
X102204517Y-55214517D01*
X102074965Y-55320838D01*
X101927162Y-55399840D01*
X101766787Y-55448490D01*
X101641794Y-55460800D01*
X101558206Y-55460800D01*
X101433213Y-55448490D01*
X101272838Y-55399840D01*
X101125035Y-55320838D01*
X100995483Y-55214517D01*
X100889162Y-55084965D01*
X100810160Y-54937162D01*
X100761510Y-54776787D01*
X100745084Y-54610000D01*
X100761510Y-54443213D01*
X100810160Y-54282838D01*
X100889162Y-54135035D01*
X100995483Y-54005483D01*
X101125035Y-53899162D01*
X101272838Y-53820160D01*
X101433213Y-53771510D01*
X101558206Y-53759200D01*
X101641794Y-53759200D01*
X101766787Y-53771510D01*
X101766787Y-53771510D01*
G37*
M02*
