G04 #@! TF.GenerationSoftware,KiCad,Pcbnew,(5.1.0)-1*
G04 #@! TF.CreationDate,2019-04-13T14:57:07-07:00*
G04 #@! TF.ProjectId,AS.001.revA,41532e30-3031-42e7-9265-76412e6b6963,Rev A*
G04 #@! TF.SameCoordinates,Original*
G04 #@! TF.FileFunction,Copper,L2,Bot*
G04 #@! TF.FilePolarity,Positive*
%FSLAX46Y46*%
G04 Gerber Fmt 4.6, Leading zero omitted, Abs format (unit mm)*
G04 Created by KiCad (PCBNEW (5.1.0)-1) date 2019-04-13 14:57:07*
%MOMM*%
%LPD*%
G04 APERTURE LIST*
%ADD10C,1.600000*%
%ADD11R,1.600000X1.600000*%
%ADD12R,2.200000X2.200000*%
%ADD13O,2.200000X2.200000*%
%ADD14R,1.700000X1.700000*%
%ADD15O,1.700000X1.700000*%
%ADD16C,1.100000*%
%ADD17C,2.413000*%
%ADD18C,1.219200*%
%ADD19C,3.000000*%
%ADD20O,1.600000X1.600000*%
%ADD21C,1.500000*%
%ADD22C,1.016000*%
%ADD23C,0.762000*%
%ADD24C,0.508000*%
%ADD25C,0.762000*%
%ADD26C,0.254000*%
G04 APERTURE END LIST*
D10*
X144780000Y-99790000D03*
D11*
X144780000Y-97790000D03*
X125730000Y-87630000D03*
D10*
X123730000Y-87630000D03*
D12*
X139700000Y-97790000D03*
D13*
X139700000Y-87630000D03*
D14*
X151130000Y-88900000D03*
D15*
X151130000Y-91440000D03*
D14*
X92710000Y-87630000D03*
D15*
X95250000Y-87630000D03*
X97790000Y-87630000D03*
X100330000Y-87630000D03*
X102870000Y-87630000D03*
X105410000Y-87630000D03*
X107950000Y-87630000D03*
X110490000Y-87630000D03*
X113030000Y-87630000D03*
X115570000Y-87630000D03*
D14*
X76200000Y-62230000D03*
D15*
X76200000Y-59690000D03*
X76200000Y-57150000D03*
X76200000Y-54610000D03*
D16*
X147320000Y-72950000D03*
X147320000Y-79450000D03*
D17*
X133350000Y-82550000D03*
X133350000Y-69850000D03*
X128270000Y-82550000D03*
X128270000Y-69850000D03*
X113030000Y-69850000D03*
X113030000Y-82550000D03*
X118110000Y-69850000D03*
X118110000Y-82550000D03*
X102870000Y-82550000D03*
X102870000Y-69850000D03*
X97790000Y-82550000D03*
X97790000Y-69850000D03*
X82550000Y-69850000D03*
X82550000Y-82550000D03*
X87630000Y-69850000D03*
X87630000Y-82550000D03*
X67310000Y-69850000D03*
X67310000Y-82550000D03*
X72390000Y-69850000D03*
X72390000Y-82550000D03*
D18*
X60960000Y-80149700D03*
X53340000Y-80149700D03*
X60960000Y-74790300D03*
X53340000Y-74790300D03*
D19*
X153670000Y-62230000D03*
X153670000Y-67310000D03*
X80010000Y-97790000D03*
X74930000Y-97790000D03*
X80010000Y-91440000D03*
X146050000Y-55880000D03*
X74930000Y-91440000D03*
X69850000Y-91440000D03*
X69850000Y-97790000D03*
X67310000Y-55880000D03*
D11*
X88900000Y-62230000D03*
D20*
X121920000Y-54610000D03*
X91440000Y-62230000D03*
X119380000Y-54610000D03*
X93980000Y-62230000D03*
X116840000Y-54610000D03*
X96520000Y-62230000D03*
X114300000Y-54610000D03*
X99060000Y-62230000D03*
X111760000Y-54610000D03*
X101600000Y-62230000D03*
X109220000Y-54610000D03*
X104140000Y-62230000D03*
X106680000Y-54610000D03*
X106680000Y-62230000D03*
X104140000Y-54610000D03*
X109220000Y-62230000D03*
X101600000Y-54610000D03*
X111760000Y-62230000D03*
X99060000Y-54610000D03*
X114300000Y-62230000D03*
X96520000Y-54610000D03*
X116840000Y-62230000D03*
X93980000Y-54610000D03*
X119380000Y-62230000D03*
X91440000Y-54610000D03*
X121920000Y-62230000D03*
X88900000Y-54610000D03*
D21*
X135890000Y-58420000D03*
X131010000Y-58420000D03*
D22*
X134620000Y-64516000D03*
X68072000Y-77216000D03*
D23*
X85090000Y-77216000D03*
X91948000Y-79756000D03*
D22*
X100838000Y-76708000D03*
D23*
X129794000Y-61214000D03*
X120650000Y-65024000D03*
X118110000Y-90932000D03*
X119888000Y-75946000D03*
X90932000Y-78994000D03*
X97536000Y-74930000D03*
X116332000Y-66548000D03*
X101346000Y-72898000D03*
X108966000Y-59690000D03*
X81534000Y-63754000D03*
D24*
X68072000Y-77216000D02*
X85090000Y-77216000D01*
D25*
X91948000Y-79756000D02*
X97790000Y-79756000D01*
X97790000Y-79756000D02*
X100838000Y-76708000D01*
D26*
X131010000Y-58420000D02*
X131010000Y-59744000D01*
X113030000Y-58420000D02*
X109220000Y-62230000D01*
X131010000Y-58420000D02*
X113030000Y-58420000D01*
X131010000Y-59744000D02*
X131010000Y-59998000D01*
X131010000Y-59998000D02*
X129794000Y-61214000D01*
X79502000Y-62992000D02*
X79502000Y-65024000D01*
X76200000Y-59690000D02*
X79502000Y-62992000D01*
X88646000Y-65024000D02*
X91440000Y-62230000D01*
X79502000Y-65024000D02*
X88646000Y-65024000D01*
X75350001Y-57999999D02*
X75350001Y-58253999D01*
X76200000Y-57150000D02*
X75350001Y-57999999D01*
X75350001Y-58253999D02*
X62738000Y-70866000D01*
X62738000Y-78371700D02*
X60960000Y-80149700D01*
X62738000Y-70866000D02*
X62738000Y-78371700D01*
X147549999Y-57379999D02*
X147549999Y-58903999D01*
X146050000Y-55880000D02*
X147549999Y-57379999D01*
X147549999Y-58903999D02*
X149352000Y-60706000D01*
X149352000Y-70918000D02*
X147320000Y-72950000D01*
X149352000Y-60706000D02*
X149352000Y-70918000D01*
X99859999Y-63029999D02*
X99060000Y-62230000D01*
X101473001Y-64643001D02*
X99859999Y-63029999D01*
X120269001Y-64643001D02*
X101473001Y-64643001D01*
X120650000Y-65024000D02*
X120269001Y-64643001D01*
X84836000Y-92964000D02*
X84836000Y-80772000D01*
X80010000Y-97790000D02*
X84836000Y-92964000D01*
X84836000Y-80772000D02*
X94488000Y-71120000D01*
X94488000Y-66802000D02*
X99060000Y-62230000D01*
X94488000Y-71120000D02*
X94488000Y-66802000D01*
X118110000Y-90932000D02*
X118110000Y-86106000D01*
X118110000Y-86106000D02*
X120904000Y-83312000D01*
X120904000Y-83312000D02*
X120904000Y-76962000D01*
X120904000Y-76962000D02*
X119888000Y-75946000D01*
X91312999Y-78613001D02*
X93852999Y-78613001D01*
X90932000Y-78994000D02*
X91312999Y-78613001D01*
X93852999Y-78613001D02*
X97536000Y-74930000D01*
X116332000Y-66548000D02*
X115793185Y-66548000D01*
X115793185Y-66548000D02*
X110236000Y-66548000D01*
X110236000Y-66548000D02*
X103886000Y-72898000D01*
X103886000Y-72898000D02*
X101346000Y-72898000D01*
X95161001Y-61841117D02*
X95161001Y-62826999D01*
X108966000Y-59690000D02*
X97312118Y-59690000D01*
X97312118Y-59690000D02*
X95161001Y-61841117D01*
X95161001Y-62826999D02*
X90424000Y-67564000D01*
X84836000Y-67564000D02*
X82550000Y-69850000D01*
X90424000Y-67564000D02*
X84836000Y-67564000D01*
X81534000Y-63754000D02*
X81534000Y-53848000D01*
X81534000Y-53848000D02*
X83058000Y-52324000D01*
X114554000Y-52324000D02*
X116840000Y-54610000D01*
X83058000Y-52324000D02*
X114554000Y-52324000D01*
G36*
X149760000Y-57748895D02*
G01*
X149756444Y-57785000D01*
X149770635Y-57929085D01*
X149812663Y-58067633D01*
X149880913Y-58195320D01*
X149972762Y-58307238D01*
X150040194Y-58362578D01*
X150084680Y-58399087D01*
X150212367Y-58467337D01*
X150350915Y-58509365D01*
X150495000Y-58523556D01*
X150531105Y-58520000D01*
X156745001Y-58520000D01*
X156745000Y-95150000D01*
X150531105Y-95150000D01*
X150495000Y-95146444D01*
X150458895Y-95150000D01*
X150350915Y-95160635D01*
X150212367Y-95202663D01*
X150084680Y-95270913D01*
X149972762Y-95362762D01*
X149880913Y-95474680D01*
X149812663Y-95602367D01*
X149770635Y-95740915D01*
X149756444Y-95885000D01*
X149760001Y-95921115D01*
X149760000Y-102135000D01*
X58520000Y-102135000D01*
X58520000Y-100782702D01*
X143966903Y-100782702D01*
X144038486Y-101026671D01*
X144293996Y-101147571D01*
X144568184Y-101216300D01*
X144850512Y-101230217D01*
X145130130Y-101188787D01*
X145396292Y-101093603D01*
X145521514Y-101026671D01*
X145593097Y-100782702D01*
X144780000Y-99969605D01*
X143966903Y-100782702D01*
X58520000Y-100782702D01*
X58520000Y-97579721D01*
X67715000Y-97579721D01*
X67715000Y-98000279D01*
X67797047Y-98412756D01*
X67957988Y-98801302D01*
X68191637Y-99150983D01*
X68489017Y-99448363D01*
X68838698Y-99682012D01*
X69227244Y-99842953D01*
X69639721Y-99925000D01*
X70060279Y-99925000D01*
X70472756Y-99842953D01*
X70861302Y-99682012D01*
X71210983Y-99448363D01*
X71508363Y-99150983D01*
X71742012Y-98801302D01*
X71902953Y-98412756D01*
X71985000Y-98000279D01*
X71985000Y-97579721D01*
X72795000Y-97579721D01*
X72795000Y-98000279D01*
X72877047Y-98412756D01*
X73037988Y-98801302D01*
X73271637Y-99150983D01*
X73569017Y-99448363D01*
X73918698Y-99682012D01*
X74307244Y-99842953D01*
X74719721Y-99925000D01*
X75140279Y-99925000D01*
X75552756Y-99842953D01*
X75941302Y-99682012D01*
X76290983Y-99448363D01*
X76588363Y-99150983D01*
X76822012Y-98801302D01*
X76982953Y-98412756D01*
X77065000Y-98000279D01*
X77065000Y-97579721D01*
X76982953Y-97167244D01*
X76822012Y-96778698D01*
X76588363Y-96429017D01*
X76290983Y-96131637D01*
X75941302Y-95897988D01*
X75552756Y-95737047D01*
X75140279Y-95655000D01*
X74719721Y-95655000D01*
X74307244Y-95737047D01*
X73918698Y-95897988D01*
X73569017Y-96131637D01*
X73271637Y-96429017D01*
X73037988Y-96778698D01*
X72877047Y-97167244D01*
X72795000Y-97579721D01*
X71985000Y-97579721D01*
X71902953Y-97167244D01*
X71742012Y-96778698D01*
X71508363Y-96429017D01*
X71210983Y-96131637D01*
X70861302Y-95897988D01*
X70472756Y-95737047D01*
X70060279Y-95655000D01*
X69639721Y-95655000D01*
X69227244Y-95737047D01*
X68838698Y-95897988D01*
X68489017Y-96131637D01*
X68191637Y-96429017D01*
X67957988Y-96778698D01*
X67797047Y-97167244D01*
X67715000Y-97579721D01*
X58520000Y-97579721D01*
X58520000Y-95921104D01*
X58523556Y-95885000D01*
X58509365Y-95740915D01*
X58467337Y-95602367D01*
X58399087Y-95474680D01*
X58307238Y-95362762D01*
X58195320Y-95270913D01*
X58067633Y-95202663D01*
X57929085Y-95160635D01*
X57821105Y-95150000D01*
X57785000Y-95146444D01*
X57748895Y-95150000D01*
X51535000Y-95150000D01*
X51535000Y-90900857D01*
X60484226Y-90900857D01*
X60534643Y-91350335D01*
X60671404Y-91781460D01*
X60889299Y-92177811D01*
X61180030Y-92524290D01*
X61532522Y-92807701D01*
X61933349Y-93017249D01*
X62367244Y-93144951D01*
X62817679Y-93185944D01*
X63267498Y-93138666D01*
X63699567Y-93004918D01*
X64097430Y-92789795D01*
X64445930Y-92501490D01*
X64731795Y-92150985D01*
X64944135Y-91751631D01*
X65074864Y-91318638D01*
X65083582Y-91229721D01*
X67715000Y-91229721D01*
X67715000Y-91650279D01*
X67797047Y-92062756D01*
X67957988Y-92451302D01*
X68191637Y-92800983D01*
X68489017Y-93098363D01*
X68838698Y-93332012D01*
X69227244Y-93492953D01*
X69639721Y-93575000D01*
X70060279Y-93575000D01*
X70472756Y-93492953D01*
X70861302Y-93332012D01*
X71210983Y-93098363D01*
X71508363Y-92800983D01*
X71742012Y-92451302D01*
X71902953Y-92062756D01*
X71985000Y-91650279D01*
X71985000Y-91229721D01*
X72795000Y-91229721D01*
X72795000Y-91650279D01*
X72877047Y-92062756D01*
X73037988Y-92451302D01*
X73271637Y-92800983D01*
X73569017Y-93098363D01*
X73918698Y-93332012D01*
X74307244Y-93492953D01*
X74719721Y-93575000D01*
X75140279Y-93575000D01*
X75552756Y-93492953D01*
X75941302Y-93332012D01*
X76290983Y-93098363D01*
X76588363Y-92800983D01*
X76822012Y-92451302D01*
X76982953Y-92062756D01*
X77065000Y-91650279D01*
X77065000Y-91229721D01*
X77875000Y-91229721D01*
X77875000Y-91650279D01*
X77957047Y-92062756D01*
X78117988Y-92451302D01*
X78351637Y-92800983D01*
X78649017Y-93098363D01*
X78998698Y-93332012D01*
X79387244Y-93492953D01*
X79799721Y-93575000D01*
X80220279Y-93575000D01*
X80632756Y-93492953D01*
X81021302Y-93332012D01*
X81370983Y-93098363D01*
X81668363Y-92800983D01*
X81902012Y-92451302D01*
X82062953Y-92062756D01*
X82145000Y-91650279D01*
X82145000Y-91229721D01*
X82062953Y-90817244D01*
X81902012Y-90428698D01*
X81668363Y-90079017D01*
X81370983Y-89781637D01*
X81021302Y-89547988D01*
X80632756Y-89387047D01*
X80220279Y-89305000D01*
X79799721Y-89305000D01*
X79387244Y-89387047D01*
X78998698Y-89547988D01*
X78649017Y-89781637D01*
X78351637Y-90079017D01*
X78117988Y-90428698D01*
X77957047Y-90817244D01*
X77875000Y-91229721D01*
X77065000Y-91229721D01*
X76982953Y-90817244D01*
X76822012Y-90428698D01*
X76588363Y-90079017D01*
X76290983Y-89781637D01*
X75941302Y-89547988D01*
X75552756Y-89387047D01*
X75140279Y-89305000D01*
X74719721Y-89305000D01*
X74307244Y-89387047D01*
X73918698Y-89547988D01*
X73569017Y-89781637D01*
X73271637Y-90079017D01*
X73037988Y-90428698D01*
X72877047Y-90817244D01*
X72795000Y-91229721D01*
X71985000Y-91229721D01*
X71902953Y-90817244D01*
X71742012Y-90428698D01*
X71508363Y-90079017D01*
X71210983Y-89781637D01*
X70861302Y-89547988D01*
X70472756Y-89387047D01*
X70060279Y-89305000D01*
X69639721Y-89305000D01*
X69227244Y-89387047D01*
X68838698Y-89547988D01*
X68489017Y-89781637D01*
X68191637Y-90079017D01*
X67957988Y-90428698D01*
X67797047Y-90817244D01*
X67715000Y-91229721D01*
X65083582Y-91229721D01*
X65119000Y-90868500D01*
X65118096Y-90803792D01*
X65061409Y-90355061D01*
X64918642Y-89925888D01*
X64695233Y-89532618D01*
X64399693Y-89190232D01*
X64043279Y-88911770D01*
X63639565Y-88707840D01*
X63203930Y-88586208D01*
X62752966Y-88551508D01*
X62303851Y-88605062D01*
X61873691Y-88744829D01*
X61478871Y-88965487D01*
X61134430Y-89258629D01*
X60853487Y-89613091D01*
X60646743Y-90015371D01*
X60522073Y-90450147D01*
X60484226Y-90900857D01*
X51535000Y-90900857D01*
X51535000Y-82368628D01*
X65468500Y-82368628D01*
X65468500Y-82731372D01*
X65539268Y-83087146D01*
X65678084Y-83422277D01*
X65879614Y-83723888D01*
X66136112Y-83980386D01*
X66437723Y-84181916D01*
X66772854Y-84320732D01*
X67128628Y-84391500D01*
X67491372Y-84391500D01*
X67847146Y-84320732D01*
X68182277Y-84181916D01*
X68483888Y-83980386D01*
X68740386Y-83723888D01*
X68941916Y-83422277D01*
X69080732Y-83087146D01*
X69151500Y-82731372D01*
X69151500Y-82368628D01*
X70548500Y-82368628D01*
X70548500Y-82731372D01*
X70619268Y-83087146D01*
X70758084Y-83422277D01*
X70959614Y-83723888D01*
X71216112Y-83980386D01*
X71517723Y-84181916D01*
X71852854Y-84320732D01*
X72208628Y-84391500D01*
X72571372Y-84391500D01*
X72927146Y-84320732D01*
X73262277Y-84181916D01*
X73563888Y-83980386D01*
X73820386Y-83723888D01*
X74021916Y-83422277D01*
X74160732Y-83087146D01*
X74231500Y-82731372D01*
X74231500Y-82368628D01*
X74160732Y-82012854D01*
X74021916Y-81677723D01*
X73820386Y-81376112D01*
X73563888Y-81119614D01*
X73262277Y-80918084D01*
X72927146Y-80779268D01*
X72571372Y-80708500D01*
X72208628Y-80708500D01*
X71852854Y-80779268D01*
X71517723Y-80918084D01*
X71216112Y-81119614D01*
X70959614Y-81376112D01*
X70758084Y-81677723D01*
X70619268Y-82012854D01*
X70548500Y-82368628D01*
X69151500Y-82368628D01*
X69080732Y-82012854D01*
X68941916Y-81677723D01*
X68740386Y-81376112D01*
X68483888Y-81119614D01*
X68182277Y-80918084D01*
X67847146Y-80779268D01*
X67491372Y-80708500D01*
X67128628Y-80708500D01*
X66772854Y-80779268D01*
X66437723Y-80918084D01*
X66136112Y-81119614D01*
X65879614Y-81376112D01*
X65678084Y-81677723D01*
X65539268Y-82012854D01*
X65468500Y-82368628D01*
X51535000Y-82368628D01*
X51535000Y-80027118D01*
X52095400Y-80027118D01*
X52095400Y-80272282D01*
X52143229Y-80512736D01*
X52237050Y-80739239D01*
X52373256Y-80943086D01*
X52546614Y-81116444D01*
X52750461Y-81252650D01*
X52976964Y-81346471D01*
X53217418Y-81394300D01*
X53462582Y-81394300D01*
X53703036Y-81346471D01*
X53929539Y-81252650D01*
X54133386Y-81116444D01*
X54306744Y-80943086D01*
X54442950Y-80739239D01*
X54536771Y-80512736D01*
X54584600Y-80272282D01*
X54584600Y-80027118D01*
X59715400Y-80027118D01*
X59715400Y-80272282D01*
X59763229Y-80512736D01*
X59857050Y-80739239D01*
X59993256Y-80943086D01*
X60166614Y-81116444D01*
X60370461Y-81252650D01*
X60596964Y-81346471D01*
X60837418Y-81394300D01*
X61082582Y-81394300D01*
X61323036Y-81346471D01*
X61549539Y-81252650D01*
X61753386Y-81116444D01*
X61926744Y-80943086D01*
X62062950Y-80739239D01*
X62156771Y-80512736D01*
X62204600Y-80272282D01*
X62204600Y-80027118D01*
X62197236Y-79990094D01*
X63250346Y-78936984D01*
X63279422Y-78913122D01*
X63359435Y-78815626D01*
X63374645Y-78797093D01*
X63445401Y-78664716D01*
X63445402Y-78664715D01*
X63488974Y-78521078D01*
X63500000Y-78409126D01*
X63500000Y-78409123D01*
X63503686Y-78371700D01*
X63500000Y-78334277D01*
X63500000Y-77103424D01*
X66929000Y-77103424D01*
X66929000Y-77328576D01*
X66972925Y-77549401D01*
X67059087Y-77757413D01*
X67184174Y-77944620D01*
X67343380Y-78103826D01*
X67530587Y-78228913D01*
X67738599Y-78315075D01*
X67959424Y-78359000D01*
X68184576Y-78359000D01*
X68405401Y-78315075D01*
X68613413Y-78228913D01*
X68798863Y-78105000D01*
X84591731Y-78105000D01*
X84608744Y-78116368D01*
X84793644Y-78192956D01*
X84989933Y-78232000D01*
X85190067Y-78232000D01*
X85386356Y-78192956D01*
X85571256Y-78116368D01*
X85737662Y-78005179D01*
X85879179Y-77863662D01*
X85990368Y-77697256D01*
X86066956Y-77512356D01*
X86106000Y-77316067D01*
X86106000Y-77115933D01*
X86066956Y-76919644D01*
X85990368Y-76734744D01*
X85879179Y-76568338D01*
X85737662Y-76426821D01*
X85571256Y-76315632D01*
X85386356Y-76239044D01*
X85190067Y-76200000D01*
X84989933Y-76200000D01*
X84793644Y-76239044D01*
X84608744Y-76315632D01*
X84591731Y-76327000D01*
X68798863Y-76327000D01*
X68613413Y-76203087D01*
X68405401Y-76116925D01*
X68184576Y-76073000D01*
X67959424Y-76073000D01*
X67738599Y-76116925D01*
X67530587Y-76203087D01*
X67343380Y-76328174D01*
X67184174Y-76487380D01*
X67059087Y-76674587D01*
X66972925Y-76882599D01*
X66929000Y-77103424D01*
X63500000Y-77103424D01*
X63500000Y-71181630D01*
X65659824Y-69021806D01*
X65539268Y-69312854D01*
X65468500Y-69668628D01*
X65468500Y-70031372D01*
X65539268Y-70387146D01*
X65678084Y-70722277D01*
X65879614Y-71023888D01*
X66136112Y-71280386D01*
X66437723Y-71481916D01*
X66772854Y-71620732D01*
X67128628Y-71691500D01*
X67491372Y-71691500D01*
X67847146Y-71620732D01*
X68182277Y-71481916D01*
X68483888Y-71280386D01*
X68631663Y-71132611D01*
X71286994Y-71132611D01*
X71407666Y-71418132D01*
X71732469Y-71579645D01*
X72082540Y-71674688D01*
X72444427Y-71699610D01*
X72804222Y-71653452D01*
X73148099Y-71537988D01*
X73372334Y-71418132D01*
X73493006Y-71132611D01*
X72390000Y-70029605D01*
X71286994Y-71132611D01*
X68631663Y-71132611D01*
X68740386Y-71023888D01*
X68941916Y-70722277D01*
X69080732Y-70387146D01*
X69151500Y-70031372D01*
X69151500Y-69904427D01*
X70540390Y-69904427D01*
X70586548Y-70264222D01*
X70702012Y-70608099D01*
X70821868Y-70832334D01*
X71107389Y-70953006D01*
X72210395Y-69850000D01*
X72569605Y-69850000D01*
X73672611Y-70953006D01*
X73958132Y-70832334D01*
X74119645Y-70507531D01*
X74214688Y-70157460D01*
X74239610Y-69795573D01*
X74193452Y-69435778D01*
X74077988Y-69091901D01*
X73958132Y-68867666D01*
X73672611Y-68746994D01*
X72569605Y-69850000D01*
X72210395Y-69850000D01*
X71107389Y-68746994D01*
X70821868Y-68867666D01*
X70660355Y-69192469D01*
X70565312Y-69542540D01*
X70540390Y-69904427D01*
X69151500Y-69904427D01*
X69151500Y-69668628D01*
X69080732Y-69312854D01*
X68941916Y-68977723D01*
X68740386Y-68676112D01*
X68631663Y-68567389D01*
X71286994Y-68567389D01*
X72390000Y-69670395D01*
X73493006Y-68567389D01*
X73372334Y-68281868D01*
X73047531Y-68120355D01*
X72697460Y-68025312D01*
X72335573Y-68000390D01*
X71975778Y-68046548D01*
X71631901Y-68162012D01*
X71407666Y-68281868D01*
X71286994Y-68567389D01*
X68631663Y-68567389D01*
X68483888Y-68419614D01*
X68182277Y-68218084D01*
X67847146Y-68079268D01*
X67491372Y-68008500D01*
X67128628Y-68008500D01*
X66772854Y-68079268D01*
X66481806Y-68199824D01*
X74733262Y-59948369D01*
X74736487Y-59981111D01*
X74821401Y-60261034D01*
X74959294Y-60519014D01*
X75144866Y-60745134D01*
X75174687Y-60769607D01*
X75105820Y-60790498D01*
X74995506Y-60849463D01*
X74898815Y-60928815D01*
X74819463Y-61025506D01*
X74760498Y-61135820D01*
X74724188Y-61255518D01*
X74711928Y-61380000D01*
X74711928Y-63080000D01*
X74724188Y-63204482D01*
X74760498Y-63324180D01*
X74819463Y-63434494D01*
X74898815Y-63531185D01*
X74995506Y-63610537D01*
X75105820Y-63669502D01*
X75225518Y-63705812D01*
X75350000Y-63718072D01*
X77050000Y-63718072D01*
X77174482Y-63705812D01*
X77294180Y-63669502D01*
X77404494Y-63610537D01*
X77501185Y-63531185D01*
X77580537Y-63434494D01*
X77639502Y-63324180D01*
X77675812Y-63204482D01*
X77688072Y-63080000D01*
X77688072Y-62255703D01*
X78740000Y-63307631D01*
X78740001Y-64986564D01*
X78736314Y-65024000D01*
X78751026Y-65173378D01*
X78794598Y-65317015D01*
X78865355Y-65449392D01*
X78960578Y-65565422D01*
X79076608Y-65660645D01*
X79208985Y-65731402D01*
X79352622Y-65774974D01*
X79464574Y-65786000D01*
X79464575Y-65786000D01*
X79502000Y-65789686D01*
X79539426Y-65786000D01*
X88608577Y-65786000D01*
X88646000Y-65789686D01*
X88683423Y-65786000D01*
X88683426Y-65786000D01*
X88795378Y-65774974D01*
X88939015Y-65731402D01*
X89071392Y-65660645D01*
X89187422Y-65565422D01*
X89211284Y-65536346D01*
X91116264Y-63631366D01*
X91158691Y-63644236D01*
X91369508Y-63665000D01*
X91510492Y-63665000D01*
X91721309Y-63644236D01*
X91991808Y-63562182D01*
X92241101Y-63428932D01*
X92459608Y-63249608D01*
X92638932Y-63031101D01*
X92710000Y-62898142D01*
X92781068Y-63031101D01*
X92960392Y-63249608D01*
X93178899Y-63428932D01*
X93376055Y-63534314D01*
X90108370Y-66802000D01*
X84873422Y-66802000D01*
X84835999Y-66798314D01*
X84798576Y-66802000D01*
X84798574Y-66802000D01*
X84686622Y-66813026D01*
X84542985Y-66856598D01*
X84410608Y-66927355D01*
X84294578Y-67022578D01*
X84270721Y-67051648D01*
X83197423Y-68124946D01*
X83087146Y-68079268D01*
X82731372Y-68008500D01*
X82368628Y-68008500D01*
X82012854Y-68079268D01*
X81677723Y-68218084D01*
X81376112Y-68419614D01*
X81119614Y-68676112D01*
X80918084Y-68977723D01*
X80779268Y-69312854D01*
X80708500Y-69668628D01*
X80708500Y-70031372D01*
X80779268Y-70387146D01*
X80918084Y-70722277D01*
X81119614Y-71023888D01*
X81376112Y-71280386D01*
X81677723Y-71481916D01*
X82012854Y-71620732D01*
X82368628Y-71691500D01*
X82731372Y-71691500D01*
X83087146Y-71620732D01*
X83422277Y-71481916D01*
X83723888Y-71280386D01*
X83871663Y-71132611D01*
X86526994Y-71132611D01*
X86647666Y-71418132D01*
X86972469Y-71579645D01*
X87322540Y-71674688D01*
X87684427Y-71699610D01*
X88044222Y-71653452D01*
X88388099Y-71537988D01*
X88612334Y-71418132D01*
X88733006Y-71132611D01*
X87630000Y-70029605D01*
X86526994Y-71132611D01*
X83871663Y-71132611D01*
X83980386Y-71023888D01*
X84181916Y-70722277D01*
X84320732Y-70387146D01*
X84391500Y-70031372D01*
X84391500Y-69904427D01*
X85780390Y-69904427D01*
X85826548Y-70264222D01*
X85942012Y-70608099D01*
X86061868Y-70832334D01*
X86347389Y-70953006D01*
X87450395Y-69850000D01*
X87809605Y-69850000D01*
X88912611Y-70953006D01*
X89198132Y-70832334D01*
X89359645Y-70507531D01*
X89454688Y-70157460D01*
X89479610Y-69795573D01*
X89433452Y-69435778D01*
X89317988Y-69091901D01*
X89198132Y-68867666D01*
X88912611Y-68746994D01*
X87809605Y-69850000D01*
X87450395Y-69850000D01*
X86347389Y-68746994D01*
X86061868Y-68867666D01*
X85900355Y-69192469D01*
X85805312Y-69542540D01*
X85780390Y-69904427D01*
X84391500Y-69904427D01*
X84391500Y-69668628D01*
X84320732Y-69312854D01*
X84275054Y-69202577D01*
X85151631Y-68326000D01*
X86629014Y-68326000D01*
X86526994Y-68567389D01*
X87630000Y-69670395D01*
X88733006Y-68567389D01*
X88630986Y-68326000D01*
X90386577Y-68326000D01*
X90424000Y-68329686D01*
X90461423Y-68326000D01*
X90461426Y-68326000D01*
X90573378Y-68314974D01*
X90717015Y-68271402D01*
X90849392Y-68200645D01*
X90965422Y-68105422D01*
X90989284Y-68076346D01*
X95673353Y-63392278D01*
X95673795Y-63391916D01*
X95718899Y-63428932D01*
X95968192Y-63562182D01*
X96238691Y-63644236D01*
X96449508Y-63665000D01*
X96547369Y-63665000D01*
X93975649Y-66236721D01*
X93946579Y-66260578D01*
X93922722Y-66289648D01*
X93922721Y-66289649D01*
X93851355Y-66376608D01*
X93780599Y-66508985D01*
X93737027Y-66652622D01*
X93722314Y-66802000D01*
X93726001Y-66839433D01*
X93726000Y-70804369D01*
X84323649Y-80206721D01*
X84294579Y-80230578D01*
X84270722Y-80259648D01*
X84270721Y-80259649D01*
X84199355Y-80346608D01*
X84128599Y-80478985D01*
X84085027Y-80622622D01*
X84070314Y-80772000D01*
X84074001Y-80809433D01*
X84074001Y-81516217D01*
X83980386Y-81376112D01*
X83723888Y-81119614D01*
X83422277Y-80918084D01*
X83087146Y-80779268D01*
X82731372Y-80708500D01*
X82368628Y-80708500D01*
X82012854Y-80779268D01*
X81677723Y-80918084D01*
X81376112Y-81119614D01*
X81119614Y-81376112D01*
X80918084Y-81677723D01*
X80779268Y-82012854D01*
X80708500Y-82368628D01*
X80708500Y-82731372D01*
X80779268Y-83087146D01*
X80918084Y-83422277D01*
X81119614Y-83723888D01*
X81376112Y-83980386D01*
X81677723Y-84181916D01*
X82012854Y-84320732D01*
X82368628Y-84391500D01*
X82731372Y-84391500D01*
X83087146Y-84320732D01*
X83422277Y-84181916D01*
X83723888Y-83980386D01*
X83980386Y-83723888D01*
X84074001Y-83583784D01*
X84074000Y-92648370D01*
X80882059Y-95840311D01*
X80632756Y-95737047D01*
X80220279Y-95655000D01*
X79799721Y-95655000D01*
X79387244Y-95737047D01*
X78998698Y-95897988D01*
X78649017Y-96131637D01*
X78351637Y-96429017D01*
X78117988Y-96778698D01*
X77957047Y-97167244D01*
X77875000Y-97579721D01*
X77875000Y-98000279D01*
X77957047Y-98412756D01*
X78117988Y-98801302D01*
X78351637Y-99150983D01*
X78649017Y-99448363D01*
X78998698Y-99682012D01*
X79387244Y-99842953D01*
X79799721Y-99925000D01*
X80220279Y-99925000D01*
X80544481Y-99860512D01*
X143339783Y-99860512D01*
X143381213Y-100140130D01*
X143476397Y-100406292D01*
X143543329Y-100531514D01*
X143787298Y-100603097D01*
X144600395Y-99790000D01*
X144586253Y-99775858D01*
X144765858Y-99596253D01*
X144780000Y-99610395D01*
X144794143Y-99596253D01*
X144973748Y-99775858D01*
X144959605Y-99790000D01*
X145772702Y-100603097D01*
X146016671Y-100531514D01*
X146137571Y-100276004D01*
X146206300Y-100001816D01*
X146220217Y-99719488D01*
X146178787Y-99439870D01*
X146083603Y-99173708D01*
X146018384Y-99051691D01*
X146031185Y-99041185D01*
X146110537Y-98944494D01*
X146169502Y-98834180D01*
X146205812Y-98714482D01*
X146218072Y-98590000D01*
X146218072Y-96990000D01*
X146205812Y-96865518D01*
X146169502Y-96745820D01*
X146110537Y-96635506D01*
X146031185Y-96538815D01*
X145934494Y-96459463D01*
X145824180Y-96400498D01*
X145704482Y-96364188D01*
X145580000Y-96351928D01*
X143980000Y-96351928D01*
X143855518Y-96364188D01*
X143735820Y-96400498D01*
X143625506Y-96459463D01*
X143528815Y-96538815D01*
X143449463Y-96635506D01*
X143390498Y-96745820D01*
X143354188Y-96865518D01*
X143341928Y-96990000D01*
X143341928Y-98590000D01*
X143354188Y-98714482D01*
X143390498Y-98834180D01*
X143449463Y-98944494D01*
X143528815Y-99041185D01*
X143541758Y-99051807D01*
X143422429Y-99303996D01*
X143353700Y-99578184D01*
X143339783Y-99860512D01*
X80544481Y-99860512D01*
X80632756Y-99842953D01*
X81021302Y-99682012D01*
X81370983Y-99448363D01*
X81668363Y-99150983D01*
X81902012Y-98801302D01*
X82062953Y-98412756D01*
X82145000Y-98000279D01*
X82145000Y-97579721D01*
X82062953Y-97167244D01*
X81959689Y-96917941D01*
X82187630Y-96690000D01*
X137961928Y-96690000D01*
X137961928Y-98890000D01*
X137974188Y-99014482D01*
X138010498Y-99134180D01*
X138069463Y-99244494D01*
X138148815Y-99341185D01*
X138245506Y-99420537D01*
X138355820Y-99479502D01*
X138475518Y-99515812D01*
X138600000Y-99528072D01*
X140800000Y-99528072D01*
X140924482Y-99515812D01*
X141044180Y-99479502D01*
X141154494Y-99420537D01*
X141251185Y-99341185D01*
X141330537Y-99244494D01*
X141389502Y-99134180D01*
X141425812Y-99014482D01*
X141438072Y-98890000D01*
X141438072Y-96690000D01*
X141425812Y-96565518D01*
X141389502Y-96445820D01*
X141330537Y-96335506D01*
X141251185Y-96238815D01*
X141154494Y-96159463D01*
X141044180Y-96100498D01*
X140924482Y-96064188D01*
X140800000Y-96051928D01*
X138600000Y-96051928D01*
X138475518Y-96064188D01*
X138355820Y-96100498D01*
X138245506Y-96159463D01*
X138148815Y-96238815D01*
X138069463Y-96335506D01*
X138010498Y-96445820D01*
X137974188Y-96565518D01*
X137961928Y-96690000D01*
X82187630Y-96690000D01*
X85348347Y-93529283D01*
X85377422Y-93505422D01*
X85437857Y-93431781D01*
X85472645Y-93389393D01*
X85543401Y-93257016D01*
X85543402Y-93257015D01*
X85586974Y-93113378D01*
X85598000Y-93001426D01*
X85598000Y-93001423D01*
X85601686Y-92964000D01*
X85598000Y-92926577D01*
X85598000Y-86780000D01*
X91221928Y-86780000D01*
X91221928Y-88480000D01*
X91234188Y-88604482D01*
X91270498Y-88724180D01*
X91329463Y-88834494D01*
X91408815Y-88931185D01*
X91505506Y-89010537D01*
X91615820Y-89069502D01*
X91735518Y-89105812D01*
X91860000Y-89118072D01*
X93560000Y-89118072D01*
X93684482Y-89105812D01*
X93804180Y-89069502D01*
X93914494Y-89010537D01*
X94011185Y-88931185D01*
X94090537Y-88834494D01*
X94149502Y-88724180D01*
X94170393Y-88655313D01*
X94194866Y-88685134D01*
X94420986Y-88870706D01*
X94678966Y-89008599D01*
X94958889Y-89093513D01*
X95177050Y-89115000D01*
X95322950Y-89115000D01*
X95541111Y-89093513D01*
X95821034Y-89008599D01*
X96079014Y-88870706D01*
X96305134Y-88685134D01*
X96490706Y-88459014D01*
X96520000Y-88404209D01*
X96549294Y-88459014D01*
X96734866Y-88685134D01*
X96960986Y-88870706D01*
X97218966Y-89008599D01*
X97498889Y-89093513D01*
X97717050Y-89115000D01*
X97862950Y-89115000D01*
X98081111Y-89093513D01*
X98361034Y-89008599D01*
X98619014Y-88870706D01*
X98845134Y-88685134D01*
X99030706Y-88459014D01*
X99060000Y-88404209D01*
X99089294Y-88459014D01*
X99274866Y-88685134D01*
X99500986Y-88870706D01*
X99758966Y-89008599D01*
X100038889Y-89093513D01*
X100257050Y-89115000D01*
X100402950Y-89115000D01*
X100621111Y-89093513D01*
X100901034Y-89008599D01*
X101159014Y-88870706D01*
X101385134Y-88685134D01*
X101570706Y-88459014D01*
X101600000Y-88404209D01*
X101629294Y-88459014D01*
X101814866Y-88685134D01*
X102040986Y-88870706D01*
X102298966Y-89008599D01*
X102578889Y-89093513D01*
X102797050Y-89115000D01*
X102942950Y-89115000D01*
X103161111Y-89093513D01*
X103441034Y-89008599D01*
X103699014Y-88870706D01*
X103925134Y-88685134D01*
X104110706Y-88459014D01*
X104140000Y-88404209D01*
X104169294Y-88459014D01*
X104354866Y-88685134D01*
X104580986Y-88870706D01*
X104838966Y-89008599D01*
X105118889Y-89093513D01*
X105337050Y-89115000D01*
X105482950Y-89115000D01*
X105701111Y-89093513D01*
X105981034Y-89008599D01*
X106239014Y-88870706D01*
X106465134Y-88685134D01*
X106650706Y-88459014D01*
X106680000Y-88404209D01*
X106709294Y-88459014D01*
X106894866Y-88685134D01*
X107120986Y-88870706D01*
X107378966Y-89008599D01*
X107658889Y-89093513D01*
X107877050Y-89115000D01*
X108022950Y-89115000D01*
X108241111Y-89093513D01*
X108521034Y-89008599D01*
X108779014Y-88870706D01*
X109005134Y-88685134D01*
X109190706Y-88459014D01*
X109225201Y-88394477D01*
X109294822Y-88511355D01*
X109489731Y-88727588D01*
X109723080Y-88901641D01*
X109985901Y-89026825D01*
X110133110Y-89071476D01*
X110363000Y-88950155D01*
X110363000Y-87757000D01*
X110343000Y-87757000D01*
X110343000Y-87503000D01*
X110363000Y-87503000D01*
X110363000Y-86309845D01*
X110617000Y-86309845D01*
X110617000Y-87503000D01*
X110637000Y-87503000D01*
X110637000Y-87757000D01*
X110617000Y-87757000D01*
X110617000Y-88950155D01*
X110846890Y-89071476D01*
X110994099Y-89026825D01*
X111256920Y-88901641D01*
X111490269Y-88727588D01*
X111685178Y-88511355D01*
X111754799Y-88394477D01*
X111789294Y-88459014D01*
X111974866Y-88685134D01*
X112200986Y-88870706D01*
X112458966Y-89008599D01*
X112738889Y-89093513D01*
X112957050Y-89115000D01*
X113102950Y-89115000D01*
X113321111Y-89093513D01*
X113601034Y-89008599D01*
X113859014Y-88870706D01*
X114085134Y-88685134D01*
X114270706Y-88459014D01*
X114300000Y-88404209D01*
X114329294Y-88459014D01*
X114514866Y-88685134D01*
X114740986Y-88870706D01*
X114998966Y-89008599D01*
X115278889Y-89093513D01*
X115497050Y-89115000D01*
X115642950Y-89115000D01*
X115861111Y-89093513D01*
X116141034Y-89008599D01*
X116399014Y-88870706D01*
X116625134Y-88685134D01*
X116810706Y-88459014D01*
X116948599Y-88201034D01*
X117033513Y-87921111D01*
X117062185Y-87630000D01*
X117033513Y-87338889D01*
X116948599Y-87058966D01*
X116810706Y-86800986D01*
X116625134Y-86574866D01*
X116399014Y-86389294D01*
X116141034Y-86251401D01*
X115861111Y-86166487D01*
X115642950Y-86145000D01*
X115497050Y-86145000D01*
X115278889Y-86166487D01*
X114998966Y-86251401D01*
X114740986Y-86389294D01*
X114514866Y-86574866D01*
X114329294Y-86800986D01*
X114300000Y-86855791D01*
X114270706Y-86800986D01*
X114085134Y-86574866D01*
X113859014Y-86389294D01*
X113601034Y-86251401D01*
X113321111Y-86166487D01*
X113102950Y-86145000D01*
X112957050Y-86145000D01*
X112738889Y-86166487D01*
X112458966Y-86251401D01*
X112200986Y-86389294D01*
X111974866Y-86574866D01*
X111789294Y-86800986D01*
X111754799Y-86865523D01*
X111685178Y-86748645D01*
X111490269Y-86532412D01*
X111256920Y-86358359D01*
X110994099Y-86233175D01*
X110846890Y-86188524D01*
X110617000Y-86309845D01*
X110363000Y-86309845D01*
X110133110Y-86188524D01*
X109985901Y-86233175D01*
X109723080Y-86358359D01*
X109489731Y-86532412D01*
X109294822Y-86748645D01*
X109225201Y-86865523D01*
X109190706Y-86800986D01*
X109005134Y-86574866D01*
X108779014Y-86389294D01*
X108521034Y-86251401D01*
X108241111Y-86166487D01*
X108022950Y-86145000D01*
X107877050Y-86145000D01*
X107658889Y-86166487D01*
X107378966Y-86251401D01*
X107120986Y-86389294D01*
X106894866Y-86574866D01*
X106709294Y-86800986D01*
X106680000Y-86855791D01*
X106650706Y-86800986D01*
X106465134Y-86574866D01*
X106239014Y-86389294D01*
X105981034Y-86251401D01*
X105701111Y-86166487D01*
X105482950Y-86145000D01*
X105337050Y-86145000D01*
X105118889Y-86166487D01*
X104838966Y-86251401D01*
X104580986Y-86389294D01*
X104354866Y-86574866D01*
X104169294Y-86800986D01*
X104140000Y-86855791D01*
X104110706Y-86800986D01*
X103925134Y-86574866D01*
X103699014Y-86389294D01*
X103441034Y-86251401D01*
X103161111Y-86166487D01*
X102942950Y-86145000D01*
X102797050Y-86145000D01*
X102578889Y-86166487D01*
X102298966Y-86251401D01*
X102040986Y-86389294D01*
X101814866Y-86574866D01*
X101629294Y-86800986D01*
X101600000Y-86855791D01*
X101570706Y-86800986D01*
X101385134Y-86574866D01*
X101159014Y-86389294D01*
X100901034Y-86251401D01*
X100621111Y-86166487D01*
X100402950Y-86145000D01*
X100257050Y-86145000D01*
X100038889Y-86166487D01*
X99758966Y-86251401D01*
X99500986Y-86389294D01*
X99274866Y-86574866D01*
X99089294Y-86800986D01*
X99060000Y-86855791D01*
X99030706Y-86800986D01*
X98845134Y-86574866D01*
X98619014Y-86389294D01*
X98361034Y-86251401D01*
X98081111Y-86166487D01*
X97862950Y-86145000D01*
X97717050Y-86145000D01*
X97498889Y-86166487D01*
X97218966Y-86251401D01*
X96960986Y-86389294D01*
X96734866Y-86574866D01*
X96549294Y-86800986D01*
X96520000Y-86855791D01*
X96490706Y-86800986D01*
X96305134Y-86574866D01*
X96079014Y-86389294D01*
X95821034Y-86251401D01*
X95541111Y-86166487D01*
X95322950Y-86145000D01*
X95177050Y-86145000D01*
X94958889Y-86166487D01*
X94678966Y-86251401D01*
X94420986Y-86389294D01*
X94194866Y-86574866D01*
X94170393Y-86604687D01*
X94149502Y-86535820D01*
X94090537Y-86425506D01*
X94011185Y-86328815D01*
X93914494Y-86249463D01*
X93804180Y-86190498D01*
X93684482Y-86154188D01*
X93560000Y-86141928D01*
X91860000Y-86141928D01*
X91735518Y-86154188D01*
X91615820Y-86190498D01*
X91505506Y-86249463D01*
X91408815Y-86328815D01*
X91329463Y-86425506D01*
X91270498Y-86535820D01*
X91234188Y-86655518D01*
X91221928Y-86780000D01*
X85598000Y-86780000D01*
X85598000Y-82368628D01*
X85788500Y-82368628D01*
X85788500Y-82731372D01*
X85859268Y-83087146D01*
X85998084Y-83422277D01*
X86199614Y-83723888D01*
X86456112Y-83980386D01*
X86757723Y-84181916D01*
X87092854Y-84320732D01*
X87448628Y-84391500D01*
X87811372Y-84391500D01*
X88167146Y-84320732D01*
X88502277Y-84181916D01*
X88803888Y-83980386D01*
X89060386Y-83723888D01*
X89261916Y-83422277D01*
X89400732Y-83087146D01*
X89471500Y-82731372D01*
X89471500Y-82368628D01*
X89400732Y-82012854D01*
X89261916Y-81677723D01*
X89060386Y-81376112D01*
X88803888Y-81119614D01*
X88502277Y-80918084D01*
X88167146Y-80779268D01*
X87811372Y-80708500D01*
X87448628Y-80708500D01*
X87092854Y-80779268D01*
X86757723Y-80918084D01*
X86456112Y-81119614D01*
X86199614Y-81376112D01*
X85998084Y-81677723D01*
X85859268Y-82012854D01*
X85788500Y-82368628D01*
X85598000Y-82368628D01*
X85598000Y-81087630D01*
X87791697Y-78893933D01*
X89916000Y-78893933D01*
X89916000Y-79094067D01*
X89955044Y-79290356D01*
X90031632Y-79475256D01*
X90142821Y-79641662D01*
X90284338Y-79783179D01*
X90450744Y-79894368D01*
X90635644Y-79970956D01*
X90831933Y-80010000D01*
X90962619Y-80010000D01*
X90971044Y-80052356D01*
X90990244Y-80098709D01*
X91004798Y-80146687D01*
X91028433Y-80190905D01*
X91047632Y-80237256D01*
X91075503Y-80278968D01*
X91099140Y-80323190D01*
X91130952Y-80361953D01*
X91158821Y-80403662D01*
X91194292Y-80439133D01*
X91226104Y-80477896D01*
X91264865Y-80509706D01*
X91300338Y-80545179D01*
X91342047Y-80573048D01*
X91380810Y-80604860D01*
X91425032Y-80628497D01*
X91466744Y-80656368D01*
X91513095Y-80675567D01*
X91557313Y-80699202D01*
X91605291Y-80713756D01*
X91651644Y-80732956D01*
X91700849Y-80742743D01*
X91748829Y-80757298D01*
X91798729Y-80762213D01*
X91847933Y-80772000D01*
X97289393Y-80772000D01*
X97252854Y-80779268D01*
X96917723Y-80918084D01*
X96616112Y-81119614D01*
X96359614Y-81376112D01*
X96158084Y-81677723D01*
X96019268Y-82012854D01*
X95948500Y-82368628D01*
X95948500Y-82731372D01*
X96019268Y-83087146D01*
X96158084Y-83422277D01*
X96359614Y-83723888D01*
X96616112Y-83980386D01*
X96917723Y-84181916D01*
X97252854Y-84320732D01*
X97608628Y-84391500D01*
X97971372Y-84391500D01*
X98327146Y-84320732D01*
X98662277Y-84181916D01*
X98963888Y-83980386D01*
X99220386Y-83723888D01*
X99421916Y-83422277D01*
X99560732Y-83087146D01*
X99631500Y-82731372D01*
X99631500Y-82368628D01*
X101028500Y-82368628D01*
X101028500Y-82731372D01*
X101099268Y-83087146D01*
X101238084Y-83422277D01*
X101439614Y-83723888D01*
X101696112Y-83980386D01*
X101997723Y-84181916D01*
X102332854Y-84320732D01*
X102688628Y-84391500D01*
X103051372Y-84391500D01*
X103407146Y-84320732D01*
X103742277Y-84181916D01*
X104043888Y-83980386D01*
X104300386Y-83723888D01*
X104501916Y-83422277D01*
X104640732Y-83087146D01*
X104711500Y-82731372D01*
X104711500Y-82368628D01*
X111188500Y-82368628D01*
X111188500Y-82731372D01*
X111259268Y-83087146D01*
X111398084Y-83422277D01*
X111599614Y-83723888D01*
X111856112Y-83980386D01*
X112157723Y-84181916D01*
X112492854Y-84320732D01*
X112848628Y-84391500D01*
X113211372Y-84391500D01*
X113567146Y-84320732D01*
X113902277Y-84181916D01*
X114203888Y-83980386D01*
X114460386Y-83723888D01*
X114661916Y-83422277D01*
X114800732Y-83087146D01*
X114871500Y-82731372D01*
X114871500Y-82368628D01*
X116268500Y-82368628D01*
X116268500Y-82731372D01*
X116339268Y-83087146D01*
X116478084Y-83422277D01*
X116679614Y-83723888D01*
X116936112Y-83980386D01*
X117237723Y-84181916D01*
X117572854Y-84320732D01*
X117928628Y-84391500D01*
X118291372Y-84391500D01*
X118647146Y-84320732D01*
X118938194Y-84200176D01*
X117597649Y-85540721D01*
X117568579Y-85564578D01*
X117544722Y-85593648D01*
X117544721Y-85593649D01*
X117473355Y-85680608D01*
X117402599Y-85812985D01*
X117359027Y-85956622D01*
X117344314Y-86106000D01*
X117348001Y-86143433D01*
X117348000Y-90257159D01*
X117320821Y-90284338D01*
X117209632Y-90450744D01*
X117133044Y-90635644D01*
X117094000Y-90831933D01*
X117094000Y-91032067D01*
X117133044Y-91228356D01*
X117209632Y-91413256D01*
X117320821Y-91579662D01*
X117462338Y-91721179D01*
X117628744Y-91832368D01*
X117813644Y-91908956D01*
X118009933Y-91948000D01*
X118210067Y-91948000D01*
X118406356Y-91908956D01*
X118591256Y-91832368D01*
X118757662Y-91721179D01*
X118899179Y-91579662D01*
X119010368Y-91413256D01*
X119086956Y-91228356D01*
X119126000Y-91032067D01*
X119126000Y-90900857D01*
X143161226Y-90900857D01*
X143211643Y-91350335D01*
X143348404Y-91781460D01*
X143566299Y-92177811D01*
X143857030Y-92524290D01*
X144209522Y-92807701D01*
X144610349Y-93017249D01*
X145044244Y-93144951D01*
X145494679Y-93185944D01*
X145944498Y-93138666D01*
X146376567Y-93004918D01*
X146774430Y-92789795D01*
X147122930Y-92501490D01*
X147408795Y-92150985D01*
X147597070Y-91796890D01*
X149688524Y-91796890D01*
X149733175Y-91944099D01*
X149858359Y-92206920D01*
X150032412Y-92440269D01*
X150248645Y-92635178D01*
X150498748Y-92784157D01*
X150773109Y-92881481D01*
X151003000Y-92760814D01*
X151003000Y-91567000D01*
X151257000Y-91567000D01*
X151257000Y-92760814D01*
X151486891Y-92881481D01*
X151761252Y-92784157D01*
X152011355Y-92635178D01*
X152227588Y-92440269D01*
X152401641Y-92206920D01*
X152526825Y-91944099D01*
X152571476Y-91796890D01*
X152450155Y-91567000D01*
X151257000Y-91567000D01*
X151003000Y-91567000D01*
X149809845Y-91567000D01*
X149688524Y-91796890D01*
X147597070Y-91796890D01*
X147621135Y-91751631D01*
X147751864Y-91318638D01*
X147796000Y-90868500D01*
X147795096Y-90803792D01*
X147738409Y-90355061D01*
X147595642Y-89925888D01*
X147372233Y-89532618D01*
X147076693Y-89190232D01*
X146720279Y-88911770D01*
X146316565Y-88707840D01*
X145880930Y-88586208D01*
X145429966Y-88551508D01*
X144980851Y-88605062D01*
X144550691Y-88744829D01*
X144155871Y-88965487D01*
X143811430Y-89258629D01*
X143530487Y-89613091D01*
X143323743Y-90015371D01*
X143199073Y-90450147D01*
X143161226Y-90900857D01*
X119126000Y-90900857D01*
X119126000Y-90831933D01*
X119086956Y-90635644D01*
X119010368Y-90450744D01*
X118899179Y-90284338D01*
X118872000Y-90257159D01*
X118872000Y-87700512D01*
X122289783Y-87700512D01*
X122331213Y-87980130D01*
X122426397Y-88246292D01*
X122493329Y-88371514D01*
X122737298Y-88443097D01*
X123550395Y-87630000D01*
X122737298Y-86816903D01*
X122493329Y-86888486D01*
X122372429Y-87143996D01*
X122303700Y-87418184D01*
X122289783Y-87700512D01*
X118872000Y-87700512D01*
X118872000Y-86637298D01*
X122916903Y-86637298D01*
X123730000Y-87450395D01*
X123744143Y-87436253D01*
X123923748Y-87615858D01*
X123909605Y-87630000D01*
X123923748Y-87644143D01*
X123744143Y-87823748D01*
X123730000Y-87809605D01*
X122916903Y-88622702D01*
X122988486Y-88866671D01*
X123243996Y-88987571D01*
X123518184Y-89056300D01*
X123800512Y-89070217D01*
X124080130Y-89028787D01*
X124346292Y-88933603D01*
X124468309Y-88868384D01*
X124478815Y-88881185D01*
X124575506Y-88960537D01*
X124685820Y-89019502D01*
X124805518Y-89055812D01*
X124930000Y-89068072D01*
X126530000Y-89068072D01*
X126654482Y-89055812D01*
X126774180Y-89019502D01*
X126884494Y-88960537D01*
X126981185Y-88881185D01*
X127060537Y-88784494D01*
X127119502Y-88674180D01*
X127155812Y-88554482D01*
X127168072Y-88430000D01*
X127168072Y-87630000D01*
X137956606Y-87630000D01*
X137990105Y-87970119D01*
X138089314Y-88297168D01*
X138250421Y-88598578D01*
X138467234Y-88862766D01*
X138731422Y-89079579D01*
X139032832Y-89240686D01*
X139359881Y-89339895D01*
X139614775Y-89365000D01*
X139785225Y-89365000D01*
X140040119Y-89339895D01*
X140367168Y-89240686D01*
X140668578Y-89079579D01*
X140932766Y-88862766D01*
X141149579Y-88598578D01*
X141310686Y-88297168D01*
X141385663Y-88050000D01*
X149641928Y-88050000D01*
X149641928Y-89750000D01*
X149654188Y-89874482D01*
X149690498Y-89994180D01*
X149749463Y-90104494D01*
X149828815Y-90201185D01*
X149925506Y-90280537D01*
X150035820Y-90339502D01*
X150116466Y-90363966D01*
X150032412Y-90439731D01*
X149858359Y-90673080D01*
X149733175Y-90935901D01*
X149688524Y-91083110D01*
X149809845Y-91313000D01*
X151003000Y-91313000D01*
X151003000Y-91293000D01*
X151257000Y-91293000D01*
X151257000Y-91313000D01*
X152450155Y-91313000D01*
X152571476Y-91083110D01*
X152526825Y-90935901D01*
X152401641Y-90673080D01*
X152227588Y-90439731D01*
X152143534Y-90363966D01*
X152224180Y-90339502D01*
X152334494Y-90280537D01*
X152431185Y-90201185D01*
X152510537Y-90104494D01*
X152569502Y-89994180D01*
X152605812Y-89874482D01*
X152618072Y-89750000D01*
X152618072Y-88050000D01*
X152605812Y-87925518D01*
X152569502Y-87805820D01*
X152510537Y-87695506D01*
X152431185Y-87598815D01*
X152334494Y-87519463D01*
X152224180Y-87460498D01*
X152104482Y-87424188D01*
X151980000Y-87411928D01*
X150280000Y-87411928D01*
X150155518Y-87424188D01*
X150035820Y-87460498D01*
X149925506Y-87519463D01*
X149828815Y-87598815D01*
X149749463Y-87695506D01*
X149690498Y-87805820D01*
X149654188Y-87925518D01*
X149641928Y-88050000D01*
X141385663Y-88050000D01*
X141409895Y-87970119D01*
X141443394Y-87630000D01*
X141409895Y-87289881D01*
X141310686Y-86962832D01*
X141149579Y-86661422D01*
X140932766Y-86397234D01*
X140668578Y-86180421D01*
X140367168Y-86019314D01*
X140040119Y-85920105D01*
X139785225Y-85895000D01*
X139614775Y-85895000D01*
X139359881Y-85920105D01*
X139032832Y-86019314D01*
X138731422Y-86180421D01*
X138467234Y-86397234D01*
X138250421Y-86661422D01*
X138089314Y-86962832D01*
X137990105Y-87289881D01*
X137956606Y-87630000D01*
X127168072Y-87630000D01*
X127168072Y-86830000D01*
X127155812Y-86705518D01*
X127119502Y-86585820D01*
X127060537Y-86475506D01*
X126981185Y-86378815D01*
X126884494Y-86299463D01*
X126774180Y-86240498D01*
X126654482Y-86204188D01*
X126530000Y-86191928D01*
X124930000Y-86191928D01*
X124805518Y-86204188D01*
X124685820Y-86240498D01*
X124575506Y-86299463D01*
X124478815Y-86378815D01*
X124468193Y-86391758D01*
X124216004Y-86272429D01*
X123941816Y-86203700D01*
X123659488Y-86189783D01*
X123379870Y-86231213D01*
X123113708Y-86326397D01*
X122988486Y-86393329D01*
X122916903Y-86637298D01*
X118872000Y-86637298D01*
X118872000Y-86421630D01*
X121416347Y-83877283D01*
X121445422Y-83853422D01*
X121505857Y-83779781D01*
X121540645Y-83737393D01*
X121611401Y-83605016D01*
X121611402Y-83605015D01*
X121654974Y-83461378D01*
X121666000Y-83349426D01*
X121666000Y-83349423D01*
X121669686Y-83312000D01*
X121666000Y-83274577D01*
X121666000Y-82368628D01*
X126428500Y-82368628D01*
X126428500Y-82731372D01*
X126499268Y-83087146D01*
X126638084Y-83422277D01*
X126839614Y-83723888D01*
X127096112Y-83980386D01*
X127397723Y-84181916D01*
X127732854Y-84320732D01*
X128088628Y-84391500D01*
X128451372Y-84391500D01*
X128807146Y-84320732D01*
X129142277Y-84181916D01*
X129443888Y-83980386D01*
X129700386Y-83723888D01*
X129901916Y-83422277D01*
X130040732Y-83087146D01*
X130111500Y-82731372D01*
X130111500Y-82368628D01*
X131508500Y-82368628D01*
X131508500Y-82731372D01*
X131579268Y-83087146D01*
X131718084Y-83422277D01*
X131919614Y-83723888D01*
X132176112Y-83980386D01*
X132477723Y-84181916D01*
X132812854Y-84320732D01*
X133168628Y-84391500D01*
X133531372Y-84391500D01*
X133887146Y-84320732D01*
X134222277Y-84181916D01*
X134523888Y-83980386D01*
X134780386Y-83723888D01*
X134981916Y-83422277D01*
X135120732Y-83087146D01*
X135191500Y-82731372D01*
X135191500Y-82368628D01*
X135120732Y-82012854D01*
X134981916Y-81677723D01*
X134780386Y-81376112D01*
X134523888Y-81119614D01*
X134222277Y-80918084D01*
X133887146Y-80779268D01*
X133531372Y-80708500D01*
X133168628Y-80708500D01*
X132812854Y-80779268D01*
X132477723Y-80918084D01*
X132176112Y-81119614D01*
X131919614Y-81376112D01*
X131718084Y-81677723D01*
X131579268Y-82012854D01*
X131508500Y-82368628D01*
X130111500Y-82368628D01*
X130040732Y-82012854D01*
X129901916Y-81677723D01*
X129700386Y-81376112D01*
X129443888Y-81119614D01*
X129142277Y-80918084D01*
X128807146Y-80779268D01*
X128451372Y-80708500D01*
X128088628Y-80708500D01*
X127732854Y-80779268D01*
X127397723Y-80918084D01*
X127096112Y-81119614D01*
X126839614Y-81376112D01*
X126638084Y-81677723D01*
X126499268Y-82012854D01*
X126428500Y-82368628D01*
X121666000Y-82368628D01*
X121666000Y-80263979D01*
X146685626Y-80263979D01*
X146726841Y-80482478D01*
X146939665Y-80578359D01*
X147167105Y-80630878D01*
X147400421Y-80638016D01*
X147630646Y-80599500D01*
X147848934Y-80516808D01*
X147913159Y-80482478D01*
X147954374Y-80263979D01*
X147320000Y-79629605D01*
X146685626Y-80263979D01*
X121666000Y-80263979D01*
X121666000Y-79530421D01*
X146131984Y-79530421D01*
X146170500Y-79760646D01*
X146253192Y-79978934D01*
X146287522Y-80043159D01*
X146506021Y-80084374D01*
X147140395Y-79450000D01*
X147499605Y-79450000D01*
X148133979Y-80084374D01*
X148352478Y-80043159D01*
X148448359Y-79830335D01*
X148500878Y-79602895D01*
X148508016Y-79369579D01*
X148469500Y-79139354D01*
X148386808Y-78921066D01*
X148352478Y-78856841D01*
X148133979Y-78815626D01*
X147499605Y-79450000D01*
X147140395Y-79450000D01*
X146506021Y-78815626D01*
X146287522Y-78856841D01*
X146191641Y-79069665D01*
X146139122Y-79297105D01*
X146131984Y-79530421D01*
X121666000Y-79530421D01*
X121666000Y-78636021D01*
X146685626Y-78636021D01*
X147320000Y-79270395D01*
X147954374Y-78636021D01*
X147913159Y-78417522D01*
X147700335Y-78321641D01*
X147472895Y-78269122D01*
X147239579Y-78261984D01*
X147009354Y-78300500D01*
X146791066Y-78383192D01*
X146726841Y-78417522D01*
X146685626Y-78636021D01*
X121666000Y-78636021D01*
X121666000Y-76999423D01*
X121669686Y-76962000D01*
X121666000Y-76924574D01*
X121654974Y-76812622D01*
X121611402Y-76668985D01*
X121557605Y-76568338D01*
X121540645Y-76536607D01*
X121469279Y-76449648D01*
X121445422Y-76420578D01*
X121416351Y-76396721D01*
X120904000Y-75884370D01*
X120904000Y-75845933D01*
X120864956Y-75649644D01*
X120788368Y-75464744D01*
X120677179Y-75298338D01*
X120535662Y-75156821D01*
X120369256Y-75045632D01*
X120184356Y-74969044D01*
X119988067Y-74930000D01*
X119787933Y-74930000D01*
X119591644Y-74969044D01*
X119406744Y-75045632D01*
X119240338Y-75156821D01*
X119098821Y-75298338D01*
X118987632Y-75464744D01*
X118911044Y-75649644D01*
X118872000Y-75845933D01*
X118872000Y-76046067D01*
X118911044Y-76242356D01*
X118987632Y-76427256D01*
X119098821Y-76593662D01*
X119240338Y-76735179D01*
X119406744Y-76846368D01*
X119591644Y-76922956D01*
X119787933Y-76962000D01*
X119826370Y-76962000D01*
X120142001Y-77277632D01*
X120142000Y-82996370D01*
X119760176Y-83378194D01*
X119880732Y-83087146D01*
X119951500Y-82731372D01*
X119951500Y-82368628D01*
X119880732Y-82012854D01*
X119741916Y-81677723D01*
X119540386Y-81376112D01*
X119283888Y-81119614D01*
X118982277Y-80918084D01*
X118647146Y-80779268D01*
X118291372Y-80708500D01*
X117928628Y-80708500D01*
X117572854Y-80779268D01*
X117237723Y-80918084D01*
X116936112Y-81119614D01*
X116679614Y-81376112D01*
X116478084Y-81677723D01*
X116339268Y-82012854D01*
X116268500Y-82368628D01*
X114871500Y-82368628D01*
X114800732Y-82012854D01*
X114661916Y-81677723D01*
X114460386Y-81376112D01*
X114203888Y-81119614D01*
X113902277Y-80918084D01*
X113567146Y-80779268D01*
X113211372Y-80708500D01*
X112848628Y-80708500D01*
X112492854Y-80779268D01*
X112157723Y-80918084D01*
X111856112Y-81119614D01*
X111599614Y-81376112D01*
X111398084Y-81677723D01*
X111259268Y-82012854D01*
X111188500Y-82368628D01*
X104711500Y-82368628D01*
X104640732Y-82012854D01*
X104501916Y-81677723D01*
X104300386Y-81376112D01*
X104043888Y-81119614D01*
X103742277Y-80918084D01*
X103407146Y-80779268D01*
X103051372Y-80708500D01*
X102688628Y-80708500D01*
X102332854Y-80779268D01*
X101997723Y-80918084D01*
X101696112Y-81119614D01*
X101439614Y-81376112D01*
X101238084Y-81677723D01*
X101099268Y-82012854D01*
X101028500Y-82368628D01*
X99631500Y-82368628D01*
X99560732Y-82012854D01*
X99421916Y-81677723D01*
X99220386Y-81376112D01*
X98963888Y-81119614D01*
X98662277Y-80918084D01*
X98327146Y-80779268D01*
X98079279Y-80729964D01*
X98180687Y-80699202D01*
X98357190Y-80604860D01*
X98511896Y-80477896D01*
X98543712Y-80439128D01*
X101178852Y-77803989D01*
X101379413Y-77720913D01*
X101566620Y-77595826D01*
X101725826Y-77436620D01*
X101850913Y-77249413D01*
X101937075Y-77041401D01*
X101981000Y-76820576D01*
X101981000Y-76595424D01*
X101937075Y-76374599D01*
X101850913Y-76166587D01*
X101725826Y-75979380D01*
X101566620Y-75820174D01*
X101379413Y-75695087D01*
X101171401Y-75608925D01*
X100950576Y-75565000D01*
X100725424Y-75565000D01*
X100504599Y-75608925D01*
X100296587Y-75695087D01*
X100109380Y-75820174D01*
X99950174Y-75979380D01*
X99825087Y-76166587D01*
X99742011Y-76367148D01*
X97369160Y-78740000D01*
X94803630Y-78740000D01*
X97597631Y-75946000D01*
X97636067Y-75946000D01*
X97832356Y-75906956D01*
X98017256Y-75830368D01*
X98183662Y-75719179D01*
X98325179Y-75577662D01*
X98436368Y-75411256D01*
X98512956Y-75226356D01*
X98552000Y-75030067D01*
X98552000Y-74829933D01*
X98512956Y-74633644D01*
X98436368Y-74448744D01*
X98325179Y-74282338D01*
X98183662Y-74140821D01*
X98017256Y-74029632D01*
X97832356Y-73953044D01*
X97636067Y-73914000D01*
X97435933Y-73914000D01*
X97239644Y-73953044D01*
X97054744Y-74029632D01*
X96888338Y-74140821D01*
X96746821Y-74282338D01*
X96635632Y-74448744D01*
X96559044Y-74633644D01*
X96520000Y-74829933D01*
X96520000Y-74868369D01*
X93537369Y-77851001D01*
X91350422Y-77851001D01*
X91312999Y-77847315D01*
X91275576Y-77851001D01*
X91275573Y-77851001D01*
X91163621Y-77862027D01*
X91019984Y-77905599D01*
X90887607Y-77976356D01*
X90885604Y-77978000D01*
X90831933Y-77978000D01*
X90635644Y-78017044D01*
X90450744Y-78093632D01*
X90284338Y-78204821D01*
X90142821Y-78346338D01*
X90031632Y-78512744D01*
X89955044Y-78697644D01*
X89916000Y-78893933D01*
X87791697Y-78893933D01*
X93887697Y-72797933D01*
X100330000Y-72797933D01*
X100330000Y-72998067D01*
X100369044Y-73194356D01*
X100445632Y-73379256D01*
X100556821Y-73545662D01*
X100698338Y-73687179D01*
X100864744Y-73798368D01*
X101049644Y-73874956D01*
X101245933Y-73914000D01*
X101446067Y-73914000D01*
X101642356Y-73874956D01*
X101827256Y-73798368D01*
X101993662Y-73687179D01*
X102020841Y-73660000D01*
X103848577Y-73660000D01*
X103886000Y-73663686D01*
X103923423Y-73660000D01*
X103923426Y-73660000D01*
X104035378Y-73648974D01*
X104179015Y-73605402D01*
X104311392Y-73534645D01*
X104427422Y-73439422D01*
X104451284Y-73410346D01*
X108193002Y-69668628D01*
X111188500Y-69668628D01*
X111188500Y-70031372D01*
X111259268Y-70387146D01*
X111398084Y-70722277D01*
X111599614Y-71023888D01*
X111856112Y-71280386D01*
X112157723Y-71481916D01*
X112492854Y-71620732D01*
X112848628Y-71691500D01*
X113211372Y-71691500D01*
X113567146Y-71620732D01*
X113902277Y-71481916D01*
X114203888Y-71280386D01*
X114351663Y-71132611D01*
X117006994Y-71132611D01*
X117127666Y-71418132D01*
X117452469Y-71579645D01*
X117802540Y-71674688D01*
X118164427Y-71699610D01*
X118524222Y-71653452D01*
X118868099Y-71537988D01*
X119092334Y-71418132D01*
X119213006Y-71132611D01*
X118110000Y-70029605D01*
X117006994Y-71132611D01*
X114351663Y-71132611D01*
X114460386Y-71023888D01*
X114661916Y-70722277D01*
X114800732Y-70387146D01*
X114871500Y-70031372D01*
X114871500Y-69904427D01*
X116260390Y-69904427D01*
X116306548Y-70264222D01*
X116422012Y-70608099D01*
X116541868Y-70832334D01*
X116827389Y-70953006D01*
X117930395Y-69850000D01*
X118289605Y-69850000D01*
X119392611Y-70953006D01*
X119678132Y-70832334D01*
X119839645Y-70507531D01*
X119934688Y-70157460D01*
X119959610Y-69795573D01*
X119943325Y-69668628D01*
X126428500Y-69668628D01*
X126428500Y-70031372D01*
X126499268Y-70387146D01*
X126638084Y-70722277D01*
X126839614Y-71023888D01*
X127096112Y-71280386D01*
X127397723Y-71481916D01*
X127732854Y-71620732D01*
X128088628Y-71691500D01*
X128451372Y-71691500D01*
X128807146Y-71620732D01*
X129142277Y-71481916D01*
X129443888Y-71280386D01*
X129591663Y-71132611D01*
X132246994Y-71132611D01*
X132367666Y-71418132D01*
X132692469Y-71579645D01*
X133042540Y-71674688D01*
X133404427Y-71699610D01*
X133764222Y-71653452D01*
X134108099Y-71537988D01*
X134332334Y-71418132D01*
X134453006Y-71132611D01*
X133350000Y-70029605D01*
X132246994Y-71132611D01*
X129591663Y-71132611D01*
X129700386Y-71023888D01*
X129901916Y-70722277D01*
X130040732Y-70387146D01*
X130111500Y-70031372D01*
X130111500Y-69904427D01*
X131500390Y-69904427D01*
X131546548Y-70264222D01*
X131662012Y-70608099D01*
X131781868Y-70832334D01*
X132067389Y-70953006D01*
X133170395Y-69850000D01*
X133529605Y-69850000D01*
X134632611Y-70953006D01*
X134918132Y-70832334D01*
X135079645Y-70507531D01*
X135174688Y-70157460D01*
X135199610Y-69795573D01*
X135153452Y-69435778D01*
X135037988Y-69091901D01*
X134918132Y-68867666D01*
X134632611Y-68746994D01*
X133529605Y-69850000D01*
X133170395Y-69850000D01*
X132067389Y-68746994D01*
X131781868Y-68867666D01*
X131620355Y-69192469D01*
X131525312Y-69542540D01*
X131500390Y-69904427D01*
X130111500Y-69904427D01*
X130111500Y-69668628D01*
X130040732Y-69312854D01*
X129901916Y-68977723D01*
X129700386Y-68676112D01*
X129591663Y-68567389D01*
X132246994Y-68567389D01*
X133350000Y-69670395D01*
X134453006Y-68567389D01*
X134332334Y-68281868D01*
X134007531Y-68120355D01*
X133657460Y-68025312D01*
X133295573Y-68000390D01*
X132935778Y-68046548D01*
X132591901Y-68162012D01*
X132367666Y-68281868D01*
X132246994Y-68567389D01*
X129591663Y-68567389D01*
X129443888Y-68419614D01*
X129142277Y-68218084D01*
X128807146Y-68079268D01*
X128451372Y-68008500D01*
X128088628Y-68008500D01*
X127732854Y-68079268D01*
X127397723Y-68218084D01*
X127096112Y-68419614D01*
X126839614Y-68676112D01*
X126638084Y-68977723D01*
X126499268Y-69312854D01*
X126428500Y-69668628D01*
X119943325Y-69668628D01*
X119913452Y-69435778D01*
X119797988Y-69091901D01*
X119678132Y-68867666D01*
X119392611Y-68746994D01*
X118289605Y-69850000D01*
X117930395Y-69850000D01*
X116827389Y-68746994D01*
X116541868Y-68867666D01*
X116380355Y-69192469D01*
X116285312Y-69542540D01*
X116260390Y-69904427D01*
X114871500Y-69904427D01*
X114871500Y-69668628D01*
X114800732Y-69312854D01*
X114661916Y-68977723D01*
X114460386Y-68676112D01*
X114351663Y-68567389D01*
X117006994Y-68567389D01*
X118110000Y-69670395D01*
X119213006Y-68567389D01*
X119092334Y-68281868D01*
X118767531Y-68120355D01*
X118417460Y-68025312D01*
X118055573Y-68000390D01*
X117695778Y-68046548D01*
X117351901Y-68162012D01*
X117127666Y-68281868D01*
X117006994Y-68567389D01*
X114351663Y-68567389D01*
X114203888Y-68419614D01*
X113902277Y-68218084D01*
X113567146Y-68079268D01*
X113211372Y-68008500D01*
X112848628Y-68008500D01*
X112492854Y-68079268D01*
X112157723Y-68218084D01*
X111856112Y-68419614D01*
X111599614Y-68676112D01*
X111398084Y-68977723D01*
X111259268Y-69312854D01*
X111188500Y-69668628D01*
X108193002Y-69668628D01*
X110551631Y-67310000D01*
X115657159Y-67310000D01*
X115684338Y-67337179D01*
X115850744Y-67448368D01*
X116035644Y-67524956D01*
X116231933Y-67564000D01*
X116432067Y-67564000D01*
X116628356Y-67524956D01*
X116813256Y-67448368D01*
X116979662Y-67337179D01*
X117121179Y-67195662D01*
X117232368Y-67029256D01*
X117308956Y-66844356D01*
X117348000Y-66648067D01*
X117348000Y-66447933D01*
X117308956Y-66251644D01*
X117232368Y-66066744D01*
X117121179Y-65900338D01*
X116979662Y-65758821D01*
X116813256Y-65647632D01*
X116628356Y-65571044D01*
X116432067Y-65532000D01*
X116231933Y-65532000D01*
X116035644Y-65571044D01*
X115850744Y-65647632D01*
X115684338Y-65758821D01*
X115657159Y-65786000D01*
X110273422Y-65786000D01*
X110235999Y-65782314D01*
X110198576Y-65786000D01*
X110198574Y-65786000D01*
X110086622Y-65797026D01*
X109942985Y-65840598D01*
X109810608Y-65911355D01*
X109694578Y-66006578D01*
X109670721Y-66035648D01*
X103570370Y-72136000D01*
X102020841Y-72136000D01*
X101993662Y-72108821D01*
X101827256Y-71997632D01*
X101642356Y-71921044D01*
X101446067Y-71882000D01*
X101245933Y-71882000D01*
X101049644Y-71921044D01*
X100864744Y-71997632D01*
X100698338Y-72108821D01*
X100556821Y-72250338D01*
X100445632Y-72416744D01*
X100369044Y-72601644D01*
X100330000Y-72797933D01*
X93887697Y-72797933D01*
X95000353Y-71685278D01*
X95029422Y-71661422D01*
X95124645Y-71545392D01*
X95195402Y-71413015D01*
X95238974Y-71269378D01*
X95250000Y-71157426D01*
X95250000Y-71157424D01*
X95253686Y-71120001D01*
X95250000Y-71082578D01*
X95250000Y-69668628D01*
X95948500Y-69668628D01*
X95948500Y-70031372D01*
X96019268Y-70387146D01*
X96158084Y-70722277D01*
X96359614Y-71023888D01*
X96616112Y-71280386D01*
X96917723Y-71481916D01*
X97252854Y-71620732D01*
X97608628Y-71691500D01*
X97971372Y-71691500D01*
X98327146Y-71620732D01*
X98662277Y-71481916D01*
X98963888Y-71280386D01*
X99111663Y-71132611D01*
X101766994Y-71132611D01*
X101887666Y-71418132D01*
X102212469Y-71579645D01*
X102562540Y-71674688D01*
X102924427Y-71699610D01*
X103284222Y-71653452D01*
X103628099Y-71537988D01*
X103852334Y-71418132D01*
X103973006Y-71132611D01*
X102870000Y-70029605D01*
X101766994Y-71132611D01*
X99111663Y-71132611D01*
X99220386Y-71023888D01*
X99421916Y-70722277D01*
X99560732Y-70387146D01*
X99631500Y-70031372D01*
X99631500Y-69904427D01*
X101020390Y-69904427D01*
X101066548Y-70264222D01*
X101182012Y-70608099D01*
X101301868Y-70832334D01*
X101587389Y-70953006D01*
X102690395Y-69850000D01*
X103049605Y-69850000D01*
X104152611Y-70953006D01*
X104438132Y-70832334D01*
X104599645Y-70507531D01*
X104694688Y-70157460D01*
X104719610Y-69795573D01*
X104673452Y-69435778D01*
X104557988Y-69091901D01*
X104438132Y-68867666D01*
X104152611Y-68746994D01*
X103049605Y-69850000D01*
X102690395Y-69850000D01*
X101587389Y-68746994D01*
X101301868Y-68867666D01*
X101140355Y-69192469D01*
X101045312Y-69542540D01*
X101020390Y-69904427D01*
X99631500Y-69904427D01*
X99631500Y-69668628D01*
X99560732Y-69312854D01*
X99421916Y-68977723D01*
X99220386Y-68676112D01*
X99111663Y-68567389D01*
X101766994Y-68567389D01*
X102870000Y-69670395D01*
X103973006Y-68567389D01*
X103852334Y-68281868D01*
X103527531Y-68120355D01*
X103177460Y-68025312D01*
X102815573Y-68000390D01*
X102455778Y-68046548D01*
X102111901Y-68162012D01*
X101887666Y-68281868D01*
X101766994Y-68567389D01*
X99111663Y-68567389D01*
X98963888Y-68419614D01*
X98662277Y-68218084D01*
X98327146Y-68079268D01*
X97971372Y-68008500D01*
X97608628Y-68008500D01*
X97252854Y-68079268D01*
X96917723Y-68218084D01*
X96616112Y-68419614D01*
X96359614Y-68676112D01*
X96158084Y-68977723D01*
X96019268Y-69312854D01*
X95948500Y-69668628D01*
X95250000Y-69668628D01*
X95250000Y-67117630D01*
X98736265Y-63631366D01*
X98778691Y-63644236D01*
X98989508Y-63665000D01*
X99130492Y-63665000D01*
X99341309Y-63644236D01*
X99383736Y-63631366D01*
X100907721Y-65155352D01*
X100931579Y-65184423D01*
X101047609Y-65279646D01*
X101179986Y-65350403D01*
X101323623Y-65393975D01*
X101435575Y-65405001D01*
X101435577Y-65405001D01*
X101473000Y-65408687D01*
X101510423Y-65405001D01*
X119708105Y-65405001D01*
X119749632Y-65505256D01*
X119860821Y-65671662D01*
X120002338Y-65813179D01*
X120168744Y-65924368D01*
X120353644Y-66000956D01*
X120549933Y-66040000D01*
X120750067Y-66040000D01*
X120946356Y-66000956D01*
X121131256Y-65924368D01*
X121297662Y-65813179D01*
X121439179Y-65671662D01*
X121550368Y-65505256D01*
X121626956Y-65320356D01*
X121666000Y-65124067D01*
X121666000Y-64923933D01*
X121626956Y-64727644D01*
X121550368Y-64542744D01*
X121439179Y-64376338D01*
X121297662Y-64234821D01*
X121131256Y-64123632D01*
X120946356Y-64047044D01*
X120750067Y-64008000D01*
X120696396Y-64008000D01*
X120694393Y-64006356D01*
X120562016Y-63935599D01*
X120418379Y-63892027D01*
X120306427Y-63881001D01*
X120306424Y-63881001D01*
X120269001Y-63877315D01*
X120231578Y-63881001D01*
X101788632Y-63881001D01*
X101572631Y-63665000D01*
X101670492Y-63665000D01*
X101881309Y-63644236D01*
X102151808Y-63562182D01*
X102401101Y-63428932D01*
X102619608Y-63249608D01*
X102798932Y-63031101D01*
X102870000Y-62898142D01*
X102941068Y-63031101D01*
X103120392Y-63249608D01*
X103338899Y-63428932D01*
X103588192Y-63562182D01*
X103858691Y-63644236D01*
X104069508Y-63665000D01*
X104210492Y-63665000D01*
X104421309Y-63644236D01*
X104691808Y-63562182D01*
X104941101Y-63428932D01*
X105159608Y-63249608D01*
X105338932Y-63031101D01*
X105412579Y-62893318D01*
X105527615Y-63085131D01*
X105716586Y-63293519D01*
X105942580Y-63461037D01*
X106196913Y-63581246D01*
X106330961Y-63621904D01*
X106553000Y-63499915D01*
X106553000Y-62357000D01*
X106533000Y-62357000D01*
X106533000Y-62103000D01*
X106553000Y-62103000D01*
X106553000Y-60960085D01*
X106807000Y-60960085D01*
X106807000Y-62103000D01*
X106827000Y-62103000D01*
X106827000Y-62357000D01*
X106807000Y-62357000D01*
X106807000Y-63499915D01*
X107029039Y-63621904D01*
X107163087Y-63581246D01*
X107417420Y-63461037D01*
X107643414Y-63293519D01*
X107832385Y-63085131D01*
X107947421Y-62893318D01*
X108021068Y-63031101D01*
X108200392Y-63249608D01*
X108418899Y-63428932D01*
X108668192Y-63562182D01*
X108938691Y-63644236D01*
X109149508Y-63665000D01*
X109290492Y-63665000D01*
X109501309Y-63644236D01*
X109771808Y-63562182D01*
X110021101Y-63428932D01*
X110239608Y-63249608D01*
X110418932Y-63031101D01*
X110490000Y-62898142D01*
X110561068Y-63031101D01*
X110740392Y-63249608D01*
X110958899Y-63428932D01*
X111208192Y-63562182D01*
X111478691Y-63644236D01*
X111689508Y-63665000D01*
X111830492Y-63665000D01*
X112041309Y-63644236D01*
X112311808Y-63562182D01*
X112561101Y-63428932D01*
X112779608Y-63249608D01*
X112958932Y-63031101D01*
X113030000Y-62898142D01*
X113101068Y-63031101D01*
X113280392Y-63249608D01*
X113498899Y-63428932D01*
X113748192Y-63562182D01*
X114018691Y-63644236D01*
X114229508Y-63665000D01*
X114370492Y-63665000D01*
X114581309Y-63644236D01*
X114851808Y-63562182D01*
X115101101Y-63428932D01*
X115319608Y-63249608D01*
X115498932Y-63031101D01*
X115570000Y-62898142D01*
X115641068Y-63031101D01*
X115820392Y-63249608D01*
X116038899Y-63428932D01*
X116288192Y-63562182D01*
X116558691Y-63644236D01*
X116769508Y-63665000D01*
X116910492Y-63665000D01*
X117121309Y-63644236D01*
X117391808Y-63562182D01*
X117641101Y-63428932D01*
X117859608Y-63249608D01*
X118038932Y-63031101D01*
X118110000Y-62898142D01*
X118181068Y-63031101D01*
X118360392Y-63249608D01*
X118578899Y-63428932D01*
X118828192Y-63562182D01*
X119098691Y-63644236D01*
X119309508Y-63665000D01*
X119450492Y-63665000D01*
X119661309Y-63644236D01*
X119931808Y-63562182D01*
X120181101Y-63428932D01*
X120399608Y-63249608D01*
X120578932Y-63031101D01*
X120650000Y-62898142D01*
X120721068Y-63031101D01*
X120900392Y-63249608D01*
X121118899Y-63428932D01*
X121368192Y-63562182D01*
X121638691Y-63644236D01*
X121849508Y-63665000D01*
X121990492Y-63665000D01*
X122201309Y-63644236D01*
X122471808Y-63562182D01*
X122721101Y-63428932D01*
X122939608Y-63249608D01*
X123118932Y-63031101D01*
X123224361Y-62833857D01*
X143161226Y-62833857D01*
X143211643Y-63283335D01*
X143348404Y-63714460D01*
X143566299Y-64110811D01*
X143857030Y-64457290D01*
X144209522Y-64740701D01*
X144610349Y-64950249D01*
X145044244Y-65077951D01*
X145494679Y-65118944D01*
X145944498Y-65071666D01*
X146376567Y-64937918D01*
X146774430Y-64722795D01*
X147122930Y-64434490D01*
X147408795Y-64083985D01*
X147621135Y-63684631D01*
X147751864Y-63251638D01*
X147796000Y-62801500D01*
X147795096Y-62736792D01*
X147738409Y-62288061D01*
X147595642Y-61858888D01*
X147372233Y-61465618D01*
X147076693Y-61123232D01*
X146720279Y-60844770D01*
X146316565Y-60640840D01*
X145880930Y-60519208D01*
X145429966Y-60484508D01*
X144980851Y-60538062D01*
X144550691Y-60677829D01*
X144155871Y-60898487D01*
X143811430Y-61191629D01*
X143530487Y-61546091D01*
X143323743Y-61948371D01*
X143199073Y-62383147D01*
X143161226Y-62833857D01*
X123224361Y-62833857D01*
X123252182Y-62781808D01*
X123334236Y-62511309D01*
X123361943Y-62230000D01*
X123334236Y-61948691D01*
X123252182Y-61678192D01*
X123118932Y-61428899D01*
X122939608Y-61210392D01*
X122721101Y-61031068D01*
X122471808Y-60897818D01*
X122201309Y-60815764D01*
X121990492Y-60795000D01*
X121849508Y-60795000D01*
X121638691Y-60815764D01*
X121368192Y-60897818D01*
X121118899Y-61031068D01*
X120900392Y-61210392D01*
X120721068Y-61428899D01*
X120650000Y-61561858D01*
X120578932Y-61428899D01*
X120399608Y-61210392D01*
X120181101Y-61031068D01*
X119931808Y-60897818D01*
X119661309Y-60815764D01*
X119450492Y-60795000D01*
X119309508Y-60795000D01*
X119098691Y-60815764D01*
X118828192Y-60897818D01*
X118578899Y-61031068D01*
X118360392Y-61210392D01*
X118181068Y-61428899D01*
X118110000Y-61561858D01*
X118038932Y-61428899D01*
X117859608Y-61210392D01*
X117641101Y-61031068D01*
X117391808Y-60897818D01*
X117121309Y-60815764D01*
X116910492Y-60795000D01*
X116769508Y-60795000D01*
X116558691Y-60815764D01*
X116288192Y-60897818D01*
X116038899Y-61031068D01*
X115820392Y-61210392D01*
X115641068Y-61428899D01*
X115570000Y-61561858D01*
X115498932Y-61428899D01*
X115319608Y-61210392D01*
X115101101Y-61031068D01*
X114851808Y-60897818D01*
X114581309Y-60815764D01*
X114370492Y-60795000D01*
X114229508Y-60795000D01*
X114018691Y-60815764D01*
X113748192Y-60897818D01*
X113498899Y-61031068D01*
X113280392Y-61210392D01*
X113101068Y-61428899D01*
X113030000Y-61561858D01*
X112958932Y-61428899D01*
X112779608Y-61210392D01*
X112561101Y-61031068D01*
X112311808Y-60897818D01*
X112041309Y-60815764D01*
X111830492Y-60795000D01*
X111732630Y-60795000D01*
X113345630Y-59182000D01*
X129853427Y-59182000D01*
X129934201Y-59302886D01*
X130127114Y-59495799D01*
X130248001Y-59576573D01*
X130248001Y-59682369D01*
X129732370Y-60198000D01*
X129693933Y-60198000D01*
X129497644Y-60237044D01*
X129312744Y-60313632D01*
X129146338Y-60424821D01*
X129004821Y-60566338D01*
X128893632Y-60732744D01*
X128817044Y-60917644D01*
X128778000Y-61113933D01*
X128778000Y-61314067D01*
X128817044Y-61510356D01*
X128893632Y-61695256D01*
X129004821Y-61861662D01*
X129146338Y-62003179D01*
X129312744Y-62114368D01*
X129497644Y-62190956D01*
X129693933Y-62230000D01*
X129894067Y-62230000D01*
X130090356Y-62190956D01*
X130275256Y-62114368D01*
X130441662Y-62003179D01*
X130583179Y-61861662D01*
X130694368Y-61695256D01*
X130770956Y-61510356D01*
X130810000Y-61314067D01*
X130810000Y-61275630D01*
X131522346Y-60563284D01*
X131551422Y-60539422D01*
X131632216Y-60440974D01*
X131646645Y-60423393D01*
X131717401Y-60291016D01*
X131717402Y-60291015D01*
X131760974Y-60147377D01*
X131772000Y-60035425D01*
X131772000Y-60035423D01*
X131775686Y-59998000D01*
X131772000Y-59960577D01*
X131772000Y-59576573D01*
X131892886Y-59495799D01*
X132085799Y-59302886D01*
X132237371Y-59076043D01*
X132341775Y-58823989D01*
X132395000Y-58556411D01*
X132395000Y-58283589D01*
X134505000Y-58283589D01*
X134505000Y-58556411D01*
X134558225Y-58823989D01*
X134662629Y-59076043D01*
X134814201Y-59302886D01*
X135007114Y-59495799D01*
X135233957Y-59647371D01*
X135486011Y-59751775D01*
X135753589Y-59805000D01*
X136026411Y-59805000D01*
X136293989Y-59751775D01*
X136546043Y-59647371D01*
X136772886Y-59495799D01*
X136965799Y-59302886D01*
X137117371Y-59076043D01*
X137221775Y-58823989D01*
X137275000Y-58556411D01*
X137275000Y-58283589D01*
X137221775Y-58016011D01*
X137117371Y-57763957D01*
X136965799Y-57537114D01*
X136772886Y-57344201D01*
X136546043Y-57192629D01*
X136293989Y-57088225D01*
X136026411Y-57035000D01*
X135753589Y-57035000D01*
X135486011Y-57088225D01*
X135233957Y-57192629D01*
X135007114Y-57344201D01*
X134814201Y-57537114D01*
X134662629Y-57763957D01*
X134558225Y-58016011D01*
X134505000Y-58283589D01*
X132395000Y-58283589D01*
X132341775Y-58016011D01*
X132237371Y-57763957D01*
X132085799Y-57537114D01*
X131892886Y-57344201D01*
X131666043Y-57192629D01*
X131413989Y-57088225D01*
X131146411Y-57035000D01*
X130873589Y-57035000D01*
X130606011Y-57088225D01*
X130353957Y-57192629D01*
X130127114Y-57344201D01*
X129934201Y-57537114D01*
X129853427Y-57658000D01*
X113067423Y-57658000D01*
X113030000Y-57654314D01*
X112992577Y-57658000D01*
X112992574Y-57658000D01*
X112880622Y-57669026D01*
X112736985Y-57712598D01*
X112675364Y-57745535D01*
X112604607Y-57783355D01*
X112577757Y-57805391D01*
X112488578Y-57878578D01*
X112464716Y-57907654D01*
X109543736Y-60828634D01*
X109501309Y-60815764D01*
X109290492Y-60795000D01*
X109149508Y-60795000D01*
X108938691Y-60815764D01*
X108668192Y-60897818D01*
X108418899Y-61031068D01*
X108200392Y-61210392D01*
X108021068Y-61428899D01*
X107947421Y-61566682D01*
X107832385Y-61374869D01*
X107643414Y-61166481D01*
X107417420Y-60998963D01*
X107163087Y-60878754D01*
X107029039Y-60838096D01*
X106807000Y-60960085D01*
X106553000Y-60960085D01*
X106330961Y-60838096D01*
X106196913Y-60878754D01*
X105942580Y-60998963D01*
X105716586Y-61166481D01*
X105527615Y-61374869D01*
X105412579Y-61566682D01*
X105338932Y-61428899D01*
X105159608Y-61210392D01*
X104941101Y-61031068D01*
X104691808Y-60897818D01*
X104421309Y-60815764D01*
X104210492Y-60795000D01*
X104069508Y-60795000D01*
X103858691Y-60815764D01*
X103588192Y-60897818D01*
X103338899Y-61031068D01*
X103120392Y-61210392D01*
X102941068Y-61428899D01*
X102870000Y-61561858D01*
X102798932Y-61428899D01*
X102619608Y-61210392D01*
X102401101Y-61031068D01*
X102151808Y-60897818D01*
X101881309Y-60815764D01*
X101670492Y-60795000D01*
X101529508Y-60795000D01*
X101318691Y-60815764D01*
X101048192Y-60897818D01*
X100798899Y-61031068D01*
X100580392Y-61210392D01*
X100401068Y-61428899D01*
X100330000Y-61561858D01*
X100258932Y-61428899D01*
X100079608Y-61210392D01*
X99861101Y-61031068D01*
X99611808Y-60897818D01*
X99341309Y-60815764D01*
X99130492Y-60795000D01*
X98989508Y-60795000D01*
X98778691Y-60815764D01*
X98508192Y-60897818D01*
X98258899Y-61031068D01*
X98040392Y-61210392D01*
X97861068Y-61428899D01*
X97790000Y-61561858D01*
X97718932Y-61428899D01*
X97539608Y-61210392D01*
X97321101Y-61031068D01*
X97143572Y-60936177D01*
X97627749Y-60452000D01*
X108291159Y-60452000D01*
X108318338Y-60479179D01*
X108484744Y-60590368D01*
X108669644Y-60666956D01*
X108865933Y-60706000D01*
X109066067Y-60706000D01*
X109262356Y-60666956D01*
X109447256Y-60590368D01*
X109613662Y-60479179D01*
X109755179Y-60337662D01*
X109866368Y-60171256D01*
X109942956Y-59986356D01*
X109982000Y-59790067D01*
X109982000Y-59589933D01*
X109942956Y-59393644D01*
X109866368Y-59208744D01*
X109755179Y-59042338D01*
X109613662Y-58900821D01*
X109447256Y-58789632D01*
X109262356Y-58713044D01*
X109066067Y-58674000D01*
X108865933Y-58674000D01*
X108669644Y-58713044D01*
X108484744Y-58789632D01*
X108318338Y-58900821D01*
X108291159Y-58928000D01*
X97349541Y-58928000D01*
X97312118Y-58924314D01*
X97274695Y-58928000D01*
X97274692Y-58928000D01*
X97162740Y-58939026D01*
X97019103Y-58982598D01*
X96957482Y-59015535D01*
X96886725Y-59053355D01*
X96806778Y-59118966D01*
X96770696Y-59148578D01*
X96746839Y-59177648D01*
X94842792Y-61081696D01*
X94781101Y-61031068D01*
X94531808Y-60897818D01*
X94261309Y-60815764D01*
X94050492Y-60795000D01*
X93909508Y-60795000D01*
X93698691Y-60815764D01*
X93428192Y-60897818D01*
X93178899Y-61031068D01*
X92960392Y-61210392D01*
X92781068Y-61428899D01*
X92710000Y-61561858D01*
X92638932Y-61428899D01*
X92459608Y-61210392D01*
X92241101Y-61031068D01*
X91991808Y-60897818D01*
X91721309Y-60815764D01*
X91510492Y-60795000D01*
X91369508Y-60795000D01*
X91158691Y-60815764D01*
X90888192Y-60897818D01*
X90638899Y-61031068D01*
X90420392Y-61210392D01*
X90327581Y-61323482D01*
X90325812Y-61305518D01*
X90289502Y-61185820D01*
X90230537Y-61075506D01*
X90151185Y-60978815D01*
X90054494Y-60899463D01*
X89944180Y-60840498D01*
X89824482Y-60804188D01*
X89700000Y-60791928D01*
X88100000Y-60791928D01*
X87975518Y-60804188D01*
X87855820Y-60840498D01*
X87745506Y-60899463D01*
X87648815Y-60978815D01*
X87569463Y-61075506D01*
X87510498Y-61185820D01*
X87474188Y-61305518D01*
X87461928Y-61430000D01*
X87461928Y-63030000D01*
X87474188Y-63154482D01*
X87510498Y-63274180D01*
X87569463Y-63384494D01*
X87648815Y-63481185D01*
X87745506Y-63560537D01*
X87855820Y-63619502D01*
X87975518Y-63655812D01*
X88100000Y-63668072D01*
X88924298Y-63668072D01*
X88330370Y-64262000D01*
X82416498Y-64262000D01*
X82434368Y-64235256D01*
X82510956Y-64050356D01*
X82550000Y-63854067D01*
X82550000Y-63653933D01*
X82510956Y-63457644D01*
X82434368Y-63272744D01*
X82323179Y-63106338D01*
X82296000Y-63079159D01*
X82296000Y-54610000D01*
X87458057Y-54610000D01*
X87485764Y-54891309D01*
X87567818Y-55161808D01*
X87701068Y-55411101D01*
X87880392Y-55629608D01*
X88098899Y-55808932D01*
X88348192Y-55942182D01*
X88618691Y-56024236D01*
X88829508Y-56045000D01*
X88970492Y-56045000D01*
X89181309Y-56024236D01*
X89451808Y-55942182D01*
X89701101Y-55808932D01*
X89919608Y-55629608D01*
X90098932Y-55411101D01*
X90170000Y-55278142D01*
X90241068Y-55411101D01*
X90420392Y-55629608D01*
X90638899Y-55808932D01*
X90888192Y-55942182D01*
X91158691Y-56024236D01*
X91369508Y-56045000D01*
X91510492Y-56045000D01*
X91721309Y-56024236D01*
X91991808Y-55942182D01*
X92241101Y-55808932D01*
X92459608Y-55629608D01*
X92638932Y-55411101D01*
X92710000Y-55278142D01*
X92781068Y-55411101D01*
X92960392Y-55629608D01*
X93178899Y-55808932D01*
X93428192Y-55942182D01*
X93698691Y-56024236D01*
X93909508Y-56045000D01*
X94050492Y-56045000D01*
X94261309Y-56024236D01*
X94531808Y-55942182D01*
X94781101Y-55808932D01*
X94999608Y-55629608D01*
X95178932Y-55411101D01*
X95250000Y-55278142D01*
X95321068Y-55411101D01*
X95500392Y-55629608D01*
X95718899Y-55808932D01*
X95968192Y-55942182D01*
X96238691Y-56024236D01*
X96449508Y-56045000D01*
X96590492Y-56045000D01*
X96801309Y-56024236D01*
X97071808Y-55942182D01*
X97321101Y-55808932D01*
X97539608Y-55629608D01*
X97718932Y-55411101D01*
X97790000Y-55278142D01*
X97861068Y-55411101D01*
X98040392Y-55629608D01*
X98258899Y-55808932D01*
X98508192Y-55942182D01*
X98778691Y-56024236D01*
X98989508Y-56045000D01*
X99130492Y-56045000D01*
X99341309Y-56024236D01*
X99611808Y-55942182D01*
X99861101Y-55808932D01*
X100079608Y-55629608D01*
X100258932Y-55411101D01*
X100330000Y-55278142D01*
X100401068Y-55411101D01*
X100580392Y-55629608D01*
X100798899Y-55808932D01*
X101048192Y-55942182D01*
X101318691Y-56024236D01*
X101529508Y-56045000D01*
X101670492Y-56045000D01*
X101881309Y-56024236D01*
X102151808Y-55942182D01*
X102401101Y-55808932D01*
X102619608Y-55629608D01*
X102798932Y-55411101D01*
X102872579Y-55273318D01*
X102987615Y-55465131D01*
X103176586Y-55673519D01*
X103402580Y-55841037D01*
X103656913Y-55961246D01*
X103790961Y-56001904D01*
X104013000Y-55879915D01*
X104013000Y-54737000D01*
X103993000Y-54737000D01*
X103993000Y-54483000D01*
X104013000Y-54483000D01*
X104013000Y-53340085D01*
X103790961Y-53218096D01*
X103656913Y-53258754D01*
X103402580Y-53378963D01*
X103176586Y-53546481D01*
X102987615Y-53754869D01*
X102872579Y-53946682D01*
X102798932Y-53808899D01*
X102619608Y-53590392D01*
X102401101Y-53411068D01*
X102151808Y-53277818D01*
X101881309Y-53195764D01*
X101670492Y-53175000D01*
X101529508Y-53175000D01*
X101318691Y-53195764D01*
X101048192Y-53277818D01*
X100798899Y-53411068D01*
X100580392Y-53590392D01*
X100401068Y-53808899D01*
X100330000Y-53941858D01*
X100258932Y-53808899D01*
X100079608Y-53590392D01*
X99861101Y-53411068D01*
X99611808Y-53277818D01*
X99341309Y-53195764D01*
X99130492Y-53175000D01*
X98989508Y-53175000D01*
X98778691Y-53195764D01*
X98508192Y-53277818D01*
X98258899Y-53411068D01*
X98040392Y-53590392D01*
X97861068Y-53808899D01*
X97790000Y-53941858D01*
X97718932Y-53808899D01*
X97539608Y-53590392D01*
X97321101Y-53411068D01*
X97071808Y-53277818D01*
X96801309Y-53195764D01*
X96590492Y-53175000D01*
X96449508Y-53175000D01*
X96238691Y-53195764D01*
X95968192Y-53277818D01*
X95718899Y-53411068D01*
X95500392Y-53590392D01*
X95321068Y-53808899D01*
X95250000Y-53941858D01*
X95178932Y-53808899D01*
X94999608Y-53590392D01*
X94781101Y-53411068D01*
X94531808Y-53277818D01*
X94261309Y-53195764D01*
X94050492Y-53175000D01*
X93909508Y-53175000D01*
X93698691Y-53195764D01*
X93428192Y-53277818D01*
X93178899Y-53411068D01*
X92960392Y-53590392D01*
X92781068Y-53808899D01*
X92710000Y-53941858D01*
X92638932Y-53808899D01*
X92459608Y-53590392D01*
X92241101Y-53411068D01*
X91991808Y-53277818D01*
X91721309Y-53195764D01*
X91510492Y-53175000D01*
X91369508Y-53175000D01*
X91158691Y-53195764D01*
X90888192Y-53277818D01*
X90638899Y-53411068D01*
X90420392Y-53590392D01*
X90241068Y-53808899D01*
X90170000Y-53941858D01*
X90098932Y-53808899D01*
X89919608Y-53590392D01*
X89701101Y-53411068D01*
X89451808Y-53277818D01*
X89181309Y-53195764D01*
X88970492Y-53175000D01*
X88829508Y-53175000D01*
X88618691Y-53195764D01*
X88348192Y-53277818D01*
X88098899Y-53411068D01*
X87880392Y-53590392D01*
X87701068Y-53808899D01*
X87567818Y-54058192D01*
X87485764Y-54328691D01*
X87458057Y-54610000D01*
X82296000Y-54610000D01*
X82296000Y-54163630D01*
X83373631Y-53086000D01*
X114238370Y-53086000D01*
X114327370Y-53175000D01*
X114229508Y-53175000D01*
X114018691Y-53195764D01*
X113748192Y-53277818D01*
X113498899Y-53411068D01*
X113280392Y-53590392D01*
X113101068Y-53808899D01*
X113030000Y-53941858D01*
X112958932Y-53808899D01*
X112779608Y-53590392D01*
X112561101Y-53411068D01*
X112311808Y-53277818D01*
X112041309Y-53195764D01*
X111830492Y-53175000D01*
X111689508Y-53175000D01*
X111478691Y-53195764D01*
X111208192Y-53277818D01*
X110958899Y-53411068D01*
X110740392Y-53590392D01*
X110561068Y-53808899D01*
X110490000Y-53941858D01*
X110418932Y-53808899D01*
X110239608Y-53590392D01*
X110021101Y-53411068D01*
X109771808Y-53277818D01*
X109501309Y-53195764D01*
X109290492Y-53175000D01*
X109149508Y-53175000D01*
X108938691Y-53195764D01*
X108668192Y-53277818D01*
X108418899Y-53411068D01*
X108200392Y-53590392D01*
X108021068Y-53808899D01*
X107950000Y-53941858D01*
X107878932Y-53808899D01*
X107699608Y-53590392D01*
X107481101Y-53411068D01*
X107231808Y-53277818D01*
X106961309Y-53195764D01*
X106750492Y-53175000D01*
X106609508Y-53175000D01*
X106398691Y-53195764D01*
X106128192Y-53277818D01*
X105878899Y-53411068D01*
X105660392Y-53590392D01*
X105481068Y-53808899D01*
X105407421Y-53946682D01*
X105292385Y-53754869D01*
X105103414Y-53546481D01*
X104877420Y-53378963D01*
X104623087Y-53258754D01*
X104489039Y-53218096D01*
X104267000Y-53340085D01*
X104267000Y-54483000D01*
X104287000Y-54483000D01*
X104287000Y-54737000D01*
X104267000Y-54737000D01*
X104267000Y-55879915D01*
X104489039Y-56001904D01*
X104623087Y-55961246D01*
X104877420Y-55841037D01*
X105103414Y-55673519D01*
X105292385Y-55465131D01*
X105407421Y-55273318D01*
X105481068Y-55411101D01*
X105660392Y-55629608D01*
X105878899Y-55808932D01*
X106128192Y-55942182D01*
X106398691Y-56024236D01*
X106609508Y-56045000D01*
X106750492Y-56045000D01*
X106961309Y-56024236D01*
X107231808Y-55942182D01*
X107481101Y-55808932D01*
X107699608Y-55629608D01*
X107878932Y-55411101D01*
X107950000Y-55278142D01*
X108021068Y-55411101D01*
X108200392Y-55629608D01*
X108418899Y-55808932D01*
X108668192Y-55942182D01*
X108938691Y-56024236D01*
X109149508Y-56045000D01*
X109290492Y-56045000D01*
X109501309Y-56024236D01*
X109771808Y-55942182D01*
X110021101Y-55808932D01*
X110239608Y-55629608D01*
X110418932Y-55411101D01*
X110490000Y-55278142D01*
X110561068Y-55411101D01*
X110740392Y-55629608D01*
X110958899Y-55808932D01*
X111208192Y-55942182D01*
X111478691Y-56024236D01*
X111689508Y-56045000D01*
X111830492Y-56045000D01*
X112041309Y-56024236D01*
X112311808Y-55942182D01*
X112561101Y-55808932D01*
X112779608Y-55629608D01*
X112958932Y-55411101D01*
X113030000Y-55278142D01*
X113101068Y-55411101D01*
X113280392Y-55629608D01*
X113498899Y-55808932D01*
X113748192Y-55942182D01*
X114018691Y-56024236D01*
X114229508Y-56045000D01*
X114370492Y-56045000D01*
X114581309Y-56024236D01*
X114851808Y-55942182D01*
X115101101Y-55808932D01*
X115319608Y-55629608D01*
X115498932Y-55411101D01*
X115570000Y-55278142D01*
X115641068Y-55411101D01*
X115820392Y-55629608D01*
X116038899Y-55808932D01*
X116288192Y-55942182D01*
X116558691Y-56024236D01*
X116769508Y-56045000D01*
X116910492Y-56045000D01*
X117121309Y-56024236D01*
X117391808Y-55942182D01*
X117641101Y-55808932D01*
X117859608Y-55629608D01*
X118038932Y-55411101D01*
X118110000Y-55278142D01*
X118181068Y-55411101D01*
X118360392Y-55629608D01*
X118578899Y-55808932D01*
X118828192Y-55942182D01*
X119098691Y-56024236D01*
X119309508Y-56045000D01*
X119450492Y-56045000D01*
X119661309Y-56024236D01*
X119931808Y-55942182D01*
X120181101Y-55808932D01*
X120399608Y-55629608D01*
X120578932Y-55411101D01*
X120650000Y-55278142D01*
X120721068Y-55411101D01*
X120900392Y-55629608D01*
X121118899Y-55808932D01*
X121368192Y-55942182D01*
X121638691Y-56024236D01*
X121849508Y-56045000D01*
X121990492Y-56045000D01*
X122201309Y-56024236D01*
X122471808Y-55942182D01*
X122721101Y-55808932D01*
X122890730Y-55669721D01*
X143915000Y-55669721D01*
X143915000Y-56090279D01*
X143997047Y-56502756D01*
X144157988Y-56891302D01*
X144391637Y-57240983D01*
X144689017Y-57538363D01*
X145038698Y-57772012D01*
X145427244Y-57932953D01*
X145839721Y-58015000D01*
X146260279Y-58015000D01*
X146672756Y-57932953D01*
X146787999Y-57885218D01*
X146788000Y-58866566D01*
X146784313Y-58903999D01*
X146799026Y-59053377D01*
X146842598Y-59197014D01*
X146913354Y-59329391D01*
X146970390Y-59398889D01*
X147008578Y-59445421D01*
X147037648Y-59469278D01*
X148590000Y-61021631D01*
X148590001Y-70602368D01*
X147427370Y-71765000D01*
X147203288Y-71765000D01*
X146974348Y-71810539D01*
X146758692Y-71899866D01*
X146564606Y-72029550D01*
X146399550Y-72194606D01*
X146269866Y-72388692D01*
X146180539Y-72604348D01*
X146135000Y-72833288D01*
X146135000Y-73066712D01*
X146180539Y-73295652D01*
X146269866Y-73511308D01*
X146399550Y-73705394D01*
X146564606Y-73870450D01*
X146758692Y-74000134D01*
X146974348Y-74089461D01*
X147203288Y-74135000D01*
X147436712Y-74135000D01*
X147665652Y-74089461D01*
X147881308Y-74000134D01*
X148075394Y-73870450D01*
X148240450Y-73705394D01*
X148370134Y-73511308D01*
X148459461Y-73295652D01*
X148505000Y-73066712D01*
X148505000Y-72842630D01*
X149864352Y-71483279D01*
X149893422Y-71459422D01*
X149927308Y-71418132D01*
X149988645Y-71343393D01*
X150059401Y-71211016D01*
X150059402Y-71211015D01*
X150102974Y-71067378D01*
X150114000Y-70955426D01*
X150114000Y-70955423D01*
X150117686Y-70918000D01*
X150114000Y-70880577D01*
X150114000Y-68801653D01*
X152357952Y-68801653D01*
X152513962Y-69117214D01*
X152888745Y-69308020D01*
X153293551Y-69422044D01*
X153712824Y-69454902D01*
X154130451Y-69405334D01*
X154530383Y-69275243D01*
X154826038Y-69117214D01*
X154982048Y-68801653D01*
X153670000Y-67489605D01*
X152357952Y-68801653D01*
X150114000Y-68801653D01*
X150114000Y-67352824D01*
X151525098Y-67352824D01*
X151574666Y-67770451D01*
X151704757Y-68170383D01*
X151862786Y-68466038D01*
X152178347Y-68622048D01*
X153490395Y-67310000D01*
X153849605Y-67310000D01*
X155161653Y-68622048D01*
X155477214Y-68466038D01*
X155668020Y-68091255D01*
X155782044Y-67686449D01*
X155814902Y-67267176D01*
X155765334Y-66849549D01*
X155635243Y-66449617D01*
X155477214Y-66153962D01*
X155161653Y-65997952D01*
X153849605Y-67310000D01*
X153490395Y-67310000D01*
X152178347Y-65997952D01*
X151862786Y-66153962D01*
X151671980Y-66528745D01*
X151557956Y-66933551D01*
X151525098Y-67352824D01*
X150114000Y-67352824D01*
X150114000Y-65818347D01*
X152357952Y-65818347D01*
X153670000Y-67130395D01*
X154982048Y-65818347D01*
X154826038Y-65502786D01*
X154451255Y-65311980D01*
X154046449Y-65197956D01*
X153627176Y-65165098D01*
X153209549Y-65214666D01*
X152809617Y-65344757D01*
X152513962Y-65502786D01*
X152357952Y-65818347D01*
X150114000Y-65818347D01*
X150114000Y-62019721D01*
X151535000Y-62019721D01*
X151535000Y-62440279D01*
X151617047Y-62852756D01*
X151777988Y-63241302D01*
X152011637Y-63590983D01*
X152309017Y-63888363D01*
X152658698Y-64122012D01*
X153047244Y-64282953D01*
X153459721Y-64365000D01*
X153880279Y-64365000D01*
X154292756Y-64282953D01*
X154681302Y-64122012D01*
X155030983Y-63888363D01*
X155328363Y-63590983D01*
X155562012Y-63241302D01*
X155722953Y-62852756D01*
X155805000Y-62440279D01*
X155805000Y-62019721D01*
X155722953Y-61607244D01*
X155562012Y-61218698D01*
X155328363Y-60869017D01*
X155030983Y-60571637D01*
X154681302Y-60337988D01*
X154292756Y-60177047D01*
X153880279Y-60095000D01*
X153459721Y-60095000D01*
X153047244Y-60177047D01*
X152658698Y-60337988D01*
X152309017Y-60571637D01*
X152011637Y-60869017D01*
X151777988Y-61218698D01*
X151617047Y-61607244D01*
X151535000Y-62019721D01*
X150114000Y-62019721D01*
X150114000Y-60743422D01*
X150117686Y-60705999D01*
X150114000Y-60668574D01*
X150102974Y-60556622D01*
X150059402Y-60412985D01*
X149988645Y-60280608D01*
X149893422Y-60164578D01*
X149864353Y-60140722D01*
X148311999Y-58588369D01*
X148311999Y-57417422D01*
X148315685Y-57379999D01*
X148311999Y-57342573D01*
X148300973Y-57230621D01*
X148257401Y-57086984D01*
X148186645Y-56954608D01*
X148186644Y-56954606D01*
X148115278Y-56867647D01*
X148091421Y-56838577D01*
X148062352Y-56814721D01*
X147999689Y-56752058D01*
X148102953Y-56502756D01*
X148185000Y-56090279D01*
X148185000Y-55669721D01*
X148102953Y-55257244D01*
X147942012Y-54868698D01*
X147708363Y-54519017D01*
X147410983Y-54221637D01*
X147061302Y-53987988D01*
X146672756Y-53827047D01*
X146260279Y-53745000D01*
X145839721Y-53745000D01*
X145427244Y-53827047D01*
X145038698Y-53987988D01*
X144689017Y-54221637D01*
X144391637Y-54519017D01*
X144157988Y-54868698D01*
X143997047Y-55257244D01*
X143915000Y-55669721D01*
X122890730Y-55669721D01*
X122939608Y-55629608D01*
X123118932Y-55411101D01*
X123252182Y-55161808D01*
X123334236Y-54891309D01*
X123361943Y-54610000D01*
X123334236Y-54328691D01*
X123252182Y-54058192D01*
X123118932Y-53808899D01*
X122939608Y-53590392D01*
X122721101Y-53411068D01*
X122471808Y-53277818D01*
X122201309Y-53195764D01*
X121990492Y-53175000D01*
X121849508Y-53175000D01*
X121638691Y-53195764D01*
X121368192Y-53277818D01*
X121118899Y-53411068D01*
X120900392Y-53590392D01*
X120721068Y-53808899D01*
X120650000Y-53941858D01*
X120578932Y-53808899D01*
X120399608Y-53590392D01*
X120181101Y-53411068D01*
X119931808Y-53277818D01*
X119661309Y-53195764D01*
X119450492Y-53175000D01*
X119309508Y-53175000D01*
X119098691Y-53195764D01*
X118828192Y-53277818D01*
X118578899Y-53411068D01*
X118360392Y-53590392D01*
X118181068Y-53808899D01*
X118110000Y-53941858D01*
X118038932Y-53808899D01*
X117859608Y-53590392D01*
X117641101Y-53411068D01*
X117391808Y-53277818D01*
X117121309Y-53195764D01*
X116910492Y-53175000D01*
X116769508Y-53175000D01*
X116558691Y-53195764D01*
X116516264Y-53208634D01*
X115119284Y-51811654D01*
X115095422Y-51782578D01*
X114979392Y-51687355D01*
X114847015Y-51616598D01*
X114703378Y-51573026D01*
X114591426Y-51562000D01*
X114591423Y-51562000D01*
X114554000Y-51558314D01*
X114516577Y-51562000D01*
X83095422Y-51562000D01*
X83057999Y-51558314D01*
X83020576Y-51562000D01*
X83020574Y-51562000D01*
X82908622Y-51573026D01*
X82764985Y-51616598D01*
X82632608Y-51687355D01*
X82516578Y-51782578D01*
X82492721Y-51811648D01*
X81021649Y-53282721D01*
X80992579Y-53306578D01*
X80968722Y-53335648D01*
X80968721Y-53335649D01*
X80897355Y-53422608D01*
X80826599Y-53554985D01*
X80783027Y-53698622D01*
X80768314Y-53848000D01*
X80772001Y-53885433D01*
X80772000Y-63079159D01*
X80744821Y-63106338D01*
X80633632Y-63272744D01*
X80557044Y-63457644D01*
X80518000Y-63653933D01*
X80518000Y-63854067D01*
X80557044Y-64050356D01*
X80633632Y-64235256D01*
X80651502Y-64262000D01*
X80264000Y-64262000D01*
X80264000Y-63029422D01*
X80267686Y-62991999D01*
X80264000Y-62954574D01*
X80252974Y-62842622D01*
X80209402Y-62698985D01*
X80138645Y-62566608D01*
X80043422Y-62450578D01*
X80014353Y-62426722D01*
X77641455Y-60053825D01*
X77663513Y-59981111D01*
X77692185Y-59690000D01*
X77663513Y-59398889D01*
X77578599Y-59118966D01*
X77440706Y-58860986D01*
X77255134Y-58634866D01*
X77029014Y-58449294D01*
X76974209Y-58420000D01*
X77029014Y-58390706D01*
X77255134Y-58205134D01*
X77440706Y-57979014D01*
X77578599Y-57721034D01*
X77663513Y-57441111D01*
X77692185Y-57150000D01*
X77663513Y-56858889D01*
X77578599Y-56578966D01*
X77440706Y-56320986D01*
X77255134Y-56094866D01*
X77029014Y-55909294D01*
X76964477Y-55874799D01*
X77081355Y-55805178D01*
X77297588Y-55610269D01*
X77471641Y-55376920D01*
X77596825Y-55114099D01*
X77641476Y-54966890D01*
X77520155Y-54737000D01*
X76327000Y-54737000D01*
X76327000Y-54757000D01*
X76073000Y-54757000D01*
X76073000Y-54737000D01*
X74879845Y-54737000D01*
X74758524Y-54966890D01*
X74803175Y-55114099D01*
X74928359Y-55376920D01*
X75102412Y-55610269D01*
X75318645Y-55805178D01*
X75435523Y-55874799D01*
X75370986Y-55909294D01*
X75144866Y-56094866D01*
X74959294Y-56320986D01*
X74821401Y-56578966D01*
X74736487Y-56858889D01*
X74707815Y-57150000D01*
X74736487Y-57441111D01*
X74759811Y-57518001D01*
X74713356Y-57574607D01*
X74712936Y-57575393D01*
X74642599Y-57706985D01*
X74599027Y-57850622D01*
X74590645Y-57935724D01*
X62225654Y-70300716D01*
X62196578Y-70324578D01*
X62145230Y-70387146D01*
X62101355Y-70440608D01*
X62078506Y-70483356D01*
X62030598Y-70572986D01*
X61987026Y-70716623D01*
X61981905Y-70768622D01*
X61972314Y-70866000D01*
X61976000Y-70903423D01*
X61976000Y-74147675D01*
X61816632Y-74113273D01*
X61139605Y-74790300D01*
X61816632Y-75467327D01*
X61976001Y-75432925D01*
X61976001Y-78056069D01*
X61119606Y-78912464D01*
X61082582Y-78905100D01*
X60837418Y-78905100D01*
X60596964Y-78952929D01*
X60370461Y-79046750D01*
X60166614Y-79182956D01*
X59993256Y-79356314D01*
X59857050Y-79560161D01*
X59763229Y-79786664D01*
X59715400Y-80027118D01*
X54584600Y-80027118D01*
X54536771Y-79786664D01*
X54442950Y-79560161D01*
X54306744Y-79356314D01*
X54133386Y-79182956D01*
X53929539Y-79046750D01*
X53703036Y-78952929D01*
X53462582Y-78905100D01*
X53217418Y-78905100D01*
X52976964Y-78952929D01*
X52750461Y-79046750D01*
X52546614Y-79182956D01*
X52373256Y-79356314D01*
X52237050Y-79560161D01*
X52143229Y-79786664D01*
X52095400Y-80027118D01*
X51535000Y-80027118D01*
X51535000Y-74667718D01*
X52095400Y-74667718D01*
X52095400Y-74912882D01*
X52143229Y-75153336D01*
X52237050Y-75379839D01*
X52373256Y-75583686D01*
X52546614Y-75757044D01*
X52750461Y-75893250D01*
X52976964Y-75987071D01*
X53217418Y-76034900D01*
X53462582Y-76034900D01*
X53703036Y-75987071D01*
X53929539Y-75893250D01*
X54133386Y-75757044D01*
X54243498Y-75646932D01*
X60282973Y-75646932D01*
X60331448Y-75871492D01*
X60554456Y-75973342D01*
X60793048Y-76029728D01*
X61038056Y-76038483D01*
X61280065Y-75999272D01*
X61509774Y-75913600D01*
X61588552Y-75871492D01*
X61637027Y-75646932D01*
X60960000Y-74969905D01*
X60282973Y-75646932D01*
X54243498Y-75646932D01*
X54306744Y-75583686D01*
X54442950Y-75379839D01*
X54536771Y-75153336D01*
X54584600Y-74912882D01*
X54584600Y-74868356D01*
X59711817Y-74868356D01*
X59751028Y-75110365D01*
X59836700Y-75340074D01*
X59878808Y-75418852D01*
X60103368Y-75467327D01*
X60780395Y-74790300D01*
X60103368Y-74113273D01*
X59878808Y-74161748D01*
X59776958Y-74384756D01*
X59720572Y-74623348D01*
X59711817Y-74868356D01*
X54584600Y-74868356D01*
X54584600Y-74667718D01*
X54536771Y-74427264D01*
X54442950Y-74200761D01*
X54306744Y-73996914D01*
X54243498Y-73933668D01*
X60282973Y-73933668D01*
X60960000Y-74610695D01*
X61637027Y-73933668D01*
X61588552Y-73709108D01*
X61365544Y-73607258D01*
X61126952Y-73550872D01*
X60881944Y-73542117D01*
X60639935Y-73581328D01*
X60410226Y-73667000D01*
X60331448Y-73709108D01*
X60282973Y-73933668D01*
X54243498Y-73933668D01*
X54133386Y-73823556D01*
X53929539Y-73687350D01*
X53703036Y-73593529D01*
X53462582Y-73545700D01*
X53217418Y-73545700D01*
X52976964Y-73593529D01*
X52750461Y-73687350D01*
X52546614Y-73823556D01*
X52373256Y-73996914D01*
X52237050Y-74200761D01*
X52143229Y-74427264D01*
X52095400Y-74667718D01*
X51535000Y-74667718D01*
X51535000Y-62833857D01*
X60484226Y-62833857D01*
X60534643Y-63283335D01*
X60671404Y-63714460D01*
X60889299Y-64110811D01*
X61180030Y-64457290D01*
X61532522Y-64740701D01*
X61933349Y-64950249D01*
X62367244Y-65077951D01*
X62817679Y-65118944D01*
X63267498Y-65071666D01*
X63699567Y-64937918D01*
X64097430Y-64722795D01*
X64445930Y-64434490D01*
X64731795Y-64083985D01*
X64944135Y-63684631D01*
X65074864Y-63251638D01*
X65119000Y-62801500D01*
X65118096Y-62736792D01*
X65061409Y-62288061D01*
X64918642Y-61858888D01*
X64695233Y-61465618D01*
X64399693Y-61123232D01*
X64043279Y-60844770D01*
X63639565Y-60640840D01*
X63203930Y-60519208D01*
X62752966Y-60484508D01*
X62303851Y-60538062D01*
X61873691Y-60677829D01*
X61478871Y-60898487D01*
X61134430Y-61191629D01*
X60853487Y-61546091D01*
X60646743Y-61948371D01*
X60522073Y-62383147D01*
X60484226Y-62833857D01*
X51535000Y-62833857D01*
X51535000Y-58520000D01*
X57748895Y-58520000D01*
X57785000Y-58523556D01*
X57821105Y-58520000D01*
X57929085Y-58509365D01*
X58067633Y-58467337D01*
X58195320Y-58399087D01*
X58307238Y-58307238D01*
X58399087Y-58195320D01*
X58467337Y-58067633D01*
X58509365Y-57929085D01*
X58523556Y-57785000D01*
X58520000Y-57748895D01*
X58520000Y-55669721D01*
X65175000Y-55669721D01*
X65175000Y-56090279D01*
X65257047Y-56502756D01*
X65417988Y-56891302D01*
X65651637Y-57240983D01*
X65949017Y-57538363D01*
X66298698Y-57772012D01*
X66687244Y-57932953D01*
X67099721Y-58015000D01*
X67520279Y-58015000D01*
X67932756Y-57932953D01*
X68321302Y-57772012D01*
X68670983Y-57538363D01*
X68968363Y-57240983D01*
X69202012Y-56891302D01*
X69362953Y-56502756D01*
X69445000Y-56090279D01*
X69445000Y-55669721D01*
X69362953Y-55257244D01*
X69202012Y-54868698D01*
X68968363Y-54519017D01*
X68702456Y-54253110D01*
X74758524Y-54253110D01*
X74879845Y-54483000D01*
X76073000Y-54483000D01*
X76073000Y-53289186D01*
X76327000Y-53289186D01*
X76327000Y-54483000D01*
X77520155Y-54483000D01*
X77641476Y-54253110D01*
X77596825Y-54105901D01*
X77471641Y-53843080D01*
X77297588Y-53609731D01*
X77081355Y-53414822D01*
X76831252Y-53265843D01*
X76556891Y-53168519D01*
X76327000Y-53289186D01*
X76073000Y-53289186D01*
X75843109Y-53168519D01*
X75568748Y-53265843D01*
X75318645Y-53414822D01*
X75102412Y-53609731D01*
X74928359Y-53843080D01*
X74803175Y-54105901D01*
X74758524Y-54253110D01*
X68702456Y-54253110D01*
X68670983Y-54221637D01*
X68321302Y-53987988D01*
X67932756Y-53827047D01*
X67520279Y-53745000D01*
X67099721Y-53745000D01*
X66687244Y-53827047D01*
X66298698Y-53987988D01*
X65949017Y-54221637D01*
X65651637Y-54519017D01*
X65417988Y-54868698D01*
X65257047Y-55257244D01*
X65175000Y-55669721D01*
X58520000Y-55669721D01*
X58520000Y-51535000D01*
X149760001Y-51535000D01*
X149760000Y-57748895D01*
X149760000Y-57748895D01*
G37*
X149760000Y-57748895D02*
X149756444Y-57785000D01*
X149770635Y-57929085D01*
X149812663Y-58067633D01*
X149880913Y-58195320D01*
X149972762Y-58307238D01*
X150040194Y-58362578D01*
X150084680Y-58399087D01*
X150212367Y-58467337D01*
X150350915Y-58509365D01*
X150495000Y-58523556D01*
X150531105Y-58520000D01*
X156745001Y-58520000D01*
X156745000Y-95150000D01*
X150531105Y-95150000D01*
X150495000Y-95146444D01*
X150458895Y-95150000D01*
X150350915Y-95160635D01*
X150212367Y-95202663D01*
X150084680Y-95270913D01*
X149972762Y-95362762D01*
X149880913Y-95474680D01*
X149812663Y-95602367D01*
X149770635Y-95740915D01*
X149756444Y-95885000D01*
X149760001Y-95921115D01*
X149760000Y-102135000D01*
X58520000Y-102135000D01*
X58520000Y-100782702D01*
X143966903Y-100782702D01*
X144038486Y-101026671D01*
X144293996Y-101147571D01*
X144568184Y-101216300D01*
X144850512Y-101230217D01*
X145130130Y-101188787D01*
X145396292Y-101093603D01*
X145521514Y-101026671D01*
X145593097Y-100782702D01*
X144780000Y-99969605D01*
X143966903Y-100782702D01*
X58520000Y-100782702D01*
X58520000Y-97579721D01*
X67715000Y-97579721D01*
X67715000Y-98000279D01*
X67797047Y-98412756D01*
X67957988Y-98801302D01*
X68191637Y-99150983D01*
X68489017Y-99448363D01*
X68838698Y-99682012D01*
X69227244Y-99842953D01*
X69639721Y-99925000D01*
X70060279Y-99925000D01*
X70472756Y-99842953D01*
X70861302Y-99682012D01*
X71210983Y-99448363D01*
X71508363Y-99150983D01*
X71742012Y-98801302D01*
X71902953Y-98412756D01*
X71985000Y-98000279D01*
X71985000Y-97579721D01*
X72795000Y-97579721D01*
X72795000Y-98000279D01*
X72877047Y-98412756D01*
X73037988Y-98801302D01*
X73271637Y-99150983D01*
X73569017Y-99448363D01*
X73918698Y-99682012D01*
X74307244Y-99842953D01*
X74719721Y-99925000D01*
X75140279Y-99925000D01*
X75552756Y-99842953D01*
X75941302Y-99682012D01*
X76290983Y-99448363D01*
X76588363Y-99150983D01*
X76822012Y-98801302D01*
X76982953Y-98412756D01*
X77065000Y-98000279D01*
X77065000Y-97579721D01*
X76982953Y-97167244D01*
X76822012Y-96778698D01*
X76588363Y-96429017D01*
X76290983Y-96131637D01*
X75941302Y-95897988D01*
X75552756Y-95737047D01*
X75140279Y-95655000D01*
X74719721Y-95655000D01*
X74307244Y-95737047D01*
X73918698Y-95897988D01*
X73569017Y-96131637D01*
X73271637Y-96429017D01*
X73037988Y-96778698D01*
X72877047Y-97167244D01*
X72795000Y-97579721D01*
X71985000Y-97579721D01*
X71902953Y-97167244D01*
X71742012Y-96778698D01*
X71508363Y-96429017D01*
X71210983Y-96131637D01*
X70861302Y-95897988D01*
X70472756Y-95737047D01*
X70060279Y-95655000D01*
X69639721Y-95655000D01*
X69227244Y-95737047D01*
X68838698Y-95897988D01*
X68489017Y-96131637D01*
X68191637Y-96429017D01*
X67957988Y-96778698D01*
X67797047Y-97167244D01*
X67715000Y-97579721D01*
X58520000Y-97579721D01*
X58520000Y-95921104D01*
X58523556Y-95885000D01*
X58509365Y-95740915D01*
X58467337Y-95602367D01*
X58399087Y-95474680D01*
X58307238Y-95362762D01*
X58195320Y-95270913D01*
X58067633Y-95202663D01*
X57929085Y-95160635D01*
X57821105Y-95150000D01*
X57785000Y-95146444D01*
X57748895Y-95150000D01*
X51535000Y-95150000D01*
X51535000Y-90900857D01*
X60484226Y-90900857D01*
X60534643Y-91350335D01*
X60671404Y-91781460D01*
X60889299Y-92177811D01*
X61180030Y-92524290D01*
X61532522Y-92807701D01*
X61933349Y-93017249D01*
X62367244Y-93144951D01*
X62817679Y-93185944D01*
X63267498Y-93138666D01*
X63699567Y-93004918D01*
X64097430Y-92789795D01*
X64445930Y-92501490D01*
X64731795Y-92150985D01*
X64944135Y-91751631D01*
X65074864Y-91318638D01*
X65083582Y-91229721D01*
X67715000Y-91229721D01*
X67715000Y-91650279D01*
X67797047Y-92062756D01*
X67957988Y-92451302D01*
X68191637Y-92800983D01*
X68489017Y-93098363D01*
X68838698Y-93332012D01*
X69227244Y-93492953D01*
X69639721Y-93575000D01*
X70060279Y-93575000D01*
X70472756Y-93492953D01*
X70861302Y-93332012D01*
X71210983Y-93098363D01*
X71508363Y-92800983D01*
X71742012Y-92451302D01*
X71902953Y-92062756D01*
X71985000Y-91650279D01*
X71985000Y-91229721D01*
X72795000Y-91229721D01*
X72795000Y-91650279D01*
X72877047Y-92062756D01*
X73037988Y-92451302D01*
X73271637Y-92800983D01*
X73569017Y-93098363D01*
X73918698Y-93332012D01*
X74307244Y-93492953D01*
X74719721Y-93575000D01*
X75140279Y-93575000D01*
X75552756Y-93492953D01*
X75941302Y-93332012D01*
X76290983Y-93098363D01*
X76588363Y-92800983D01*
X76822012Y-92451302D01*
X76982953Y-92062756D01*
X77065000Y-91650279D01*
X77065000Y-91229721D01*
X77875000Y-91229721D01*
X77875000Y-91650279D01*
X77957047Y-92062756D01*
X78117988Y-92451302D01*
X78351637Y-92800983D01*
X78649017Y-93098363D01*
X78998698Y-93332012D01*
X79387244Y-93492953D01*
X79799721Y-93575000D01*
X80220279Y-93575000D01*
X80632756Y-93492953D01*
X81021302Y-93332012D01*
X81370983Y-93098363D01*
X81668363Y-92800983D01*
X81902012Y-92451302D01*
X82062953Y-92062756D01*
X82145000Y-91650279D01*
X82145000Y-91229721D01*
X82062953Y-90817244D01*
X81902012Y-90428698D01*
X81668363Y-90079017D01*
X81370983Y-89781637D01*
X81021302Y-89547988D01*
X80632756Y-89387047D01*
X80220279Y-89305000D01*
X79799721Y-89305000D01*
X79387244Y-89387047D01*
X78998698Y-89547988D01*
X78649017Y-89781637D01*
X78351637Y-90079017D01*
X78117988Y-90428698D01*
X77957047Y-90817244D01*
X77875000Y-91229721D01*
X77065000Y-91229721D01*
X76982953Y-90817244D01*
X76822012Y-90428698D01*
X76588363Y-90079017D01*
X76290983Y-89781637D01*
X75941302Y-89547988D01*
X75552756Y-89387047D01*
X75140279Y-89305000D01*
X74719721Y-89305000D01*
X74307244Y-89387047D01*
X73918698Y-89547988D01*
X73569017Y-89781637D01*
X73271637Y-90079017D01*
X73037988Y-90428698D01*
X72877047Y-90817244D01*
X72795000Y-91229721D01*
X71985000Y-91229721D01*
X71902953Y-90817244D01*
X71742012Y-90428698D01*
X71508363Y-90079017D01*
X71210983Y-89781637D01*
X70861302Y-89547988D01*
X70472756Y-89387047D01*
X70060279Y-89305000D01*
X69639721Y-89305000D01*
X69227244Y-89387047D01*
X68838698Y-89547988D01*
X68489017Y-89781637D01*
X68191637Y-90079017D01*
X67957988Y-90428698D01*
X67797047Y-90817244D01*
X67715000Y-91229721D01*
X65083582Y-91229721D01*
X65119000Y-90868500D01*
X65118096Y-90803792D01*
X65061409Y-90355061D01*
X64918642Y-89925888D01*
X64695233Y-89532618D01*
X64399693Y-89190232D01*
X64043279Y-88911770D01*
X63639565Y-88707840D01*
X63203930Y-88586208D01*
X62752966Y-88551508D01*
X62303851Y-88605062D01*
X61873691Y-88744829D01*
X61478871Y-88965487D01*
X61134430Y-89258629D01*
X60853487Y-89613091D01*
X60646743Y-90015371D01*
X60522073Y-90450147D01*
X60484226Y-90900857D01*
X51535000Y-90900857D01*
X51535000Y-82368628D01*
X65468500Y-82368628D01*
X65468500Y-82731372D01*
X65539268Y-83087146D01*
X65678084Y-83422277D01*
X65879614Y-83723888D01*
X66136112Y-83980386D01*
X66437723Y-84181916D01*
X66772854Y-84320732D01*
X67128628Y-84391500D01*
X67491372Y-84391500D01*
X67847146Y-84320732D01*
X68182277Y-84181916D01*
X68483888Y-83980386D01*
X68740386Y-83723888D01*
X68941916Y-83422277D01*
X69080732Y-83087146D01*
X69151500Y-82731372D01*
X69151500Y-82368628D01*
X70548500Y-82368628D01*
X70548500Y-82731372D01*
X70619268Y-83087146D01*
X70758084Y-83422277D01*
X70959614Y-83723888D01*
X71216112Y-83980386D01*
X71517723Y-84181916D01*
X71852854Y-84320732D01*
X72208628Y-84391500D01*
X72571372Y-84391500D01*
X72927146Y-84320732D01*
X73262277Y-84181916D01*
X73563888Y-83980386D01*
X73820386Y-83723888D01*
X74021916Y-83422277D01*
X74160732Y-83087146D01*
X74231500Y-82731372D01*
X74231500Y-82368628D01*
X74160732Y-82012854D01*
X74021916Y-81677723D01*
X73820386Y-81376112D01*
X73563888Y-81119614D01*
X73262277Y-80918084D01*
X72927146Y-80779268D01*
X72571372Y-80708500D01*
X72208628Y-80708500D01*
X71852854Y-80779268D01*
X71517723Y-80918084D01*
X71216112Y-81119614D01*
X70959614Y-81376112D01*
X70758084Y-81677723D01*
X70619268Y-82012854D01*
X70548500Y-82368628D01*
X69151500Y-82368628D01*
X69080732Y-82012854D01*
X68941916Y-81677723D01*
X68740386Y-81376112D01*
X68483888Y-81119614D01*
X68182277Y-80918084D01*
X67847146Y-80779268D01*
X67491372Y-80708500D01*
X67128628Y-80708500D01*
X66772854Y-80779268D01*
X66437723Y-80918084D01*
X66136112Y-81119614D01*
X65879614Y-81376112D01*
X65678084Y-81677723D01*
X65539268Y-82012854D01*
X65468500Y-82368628D01*
X51535000Y-82368628D01*
X51535000Y-80027118D01*
X52095400Y-80027118D01*
X52095400Y-80272282D01*
X52143229Y-80512736D01*
X52237050Y-80739239D01*
X52373256Y-80943086D01*
X52546614Y-81116444D01*
X52750461Y-81252650D01*
X52976964Y-81346471D01*
X53217418Y-81394300D01*
X53462582Y-81394300D01*
X53703036Y-81346471D01*
X53929539Y-81252650D01*
X54133386Y-81116444D01*
X54306744Y-80943086D01*
X54442950Y-80739239D01*
X54536771Y-80512736D01*
X54584600Y-80272282D01*
X54584600Y-80027118D01*
X59715400Y-80027118D01*
X59715400Y-80272282D01*
X59763229Y-80512736D01*
X59857050Y-80739239D01*
X59993256Y-80943086D01*
X60166614Y-81116444D01*
X60370461Y-81252650D01*
X60596964Y-81346471D01*
X60837418Y-81394300D01*
X61082582Y-81394300D01*
X61323036Y-81346471D01*
X61549539Y-81252650D01*
X61753386Y-81116444D01*
X61926744Y-80943086D01*
X62062950Y-80739239D01*
X62156771Y-80512736D01*
X62204600Y-80272282D01*
X62204600Y-80027118D01*
X62197236Y-79990094D01*
X63250346Y-78936984D01*
X63279422Y-78913122D01*
X63359435Y-78815626D01*
X63374645Y-78797093D01*
X63445401Y-78664716D01*
X63445402Y-78664715D01*
X63488974Y-78521078D01*
X63500000Y-78409126D01*
X63500000Y-78409123D01*
X63503686Y-78371700D01*
X63500000Y-78334277D01*
X63500000Y-77103424D01*
X66929000Y-77103424D01*
X66929000Y-77328576D01*
X66972925Y-77549401D01*
X67059087Y-77757413D01*
X67184174Y-77944620D01*
X67343380Y-78103826D01*
X67530587Y-78228913D01*
X67738599Y-78315075D01*
X67959424Y-78359000D01*
X68184576Y-78359000D01*
X68405401Y-78315075D01*
X68613413Y-78228913D01*
X68798863Y-78105000D01*
X84591731Y-78105000D01*
X84608744Y-78116368D01*
X84793644Y-78192956D01*
X84989933Y-78232000D01*
X85190067Y-78232000D01*
X85386356Y-78192956D01*
X85571256Y-78116368D01*
X85737662Y-78005179D01*
X85879179Y-77863662D01*
X85990368Y-77697256D01*
X86066956Y-77512356D01*
X86106000Y-77316067D01*
X86106000Y-77115933D01*
X86066956Y-76919644D01*
X85990368Y-76734744D01*
X85879179Y-76568338D01*
X85737662Y-76426821D01*
X85571256Y-76315632D01*
X85386356Y-76239044D01*
X85190067Y-76200000D01*
X84989933Y-76200000D01*
X84793644Y-76239044D01*
X84608744Y-76315632D01*
X84591731Y-76327000D01*
X68798863Y-76327000D01*
X68613413Y-76203087D01*
X68405401Y-76116925D01*
X68184576Y-76073000D01*
X67959424Y-76073000D01*
X67738599Y-76116925D01*
X67530587Y-76203087D01*
X67343380Y-76328174D01*
X67184174Y-76487380D01*
X67059087Y-76674587D01*
X66972925Y-76882599D01*
X66929000Y-77103424D01*
X63500000Y-77103424D01*
X63500000Y-71181630D01*
X65659824Y-69021806D01*
X65539268Y-69312854D01*
X65468500Y-69668628D01*
X65468500Y-70031372D01*
X65539268Y-70387146D01*
X65678084Y-70722277D01*
X65879614Y-71023888D01*
X66136112Y-71280386D01*
X66437723Y-71481916D01*
X66772854Y-71620732D01*
X67128628Y-71691500D01*
X67491372Y-71691500D01*
X67847146Y-71620732D01*
X68182277Y-71481916D01*
X68483888Y-71280386D01*
X68631663Y-71132611D01*
X71286994Y-71132611D01*
X71407666Y-71418132D01*
X71732469Y-71579645D01*
X72082540Y-71674688D01*
X72444427Y-71699610D01*
X72804222Y-71653452D01*
X73148099Y-71537988D01*
X73372334Y-71418132D01*
X73493006Y-71132611D01*
X72390000Y-70029605D01*
X71286994Y-71132611D01*
X68631663Y-71132611D01*
X68740386Y-71023888D01*
X68941916Y-70722277D01*
X69080732Y-70387146D01*
X69151500Y-70031372D01*
X69151500Y-69904427D01*
X70540390Y-69904427D01*
X70586548Y-70264222D01*
X70702012Y-70608099D01*
X70821868Y-70832334D01*
X71107389Y-70953006D01*
X72210395Y-69850000D01*
X72569605Y-69850000D01*
X73672611Y-70953006D01*
X73958132Y-70832334D01*
X74119645Y-70507531D01*
X74214688Y-70157460D01*
X74239610Y-69795573D01*
X74193452Y-69435778D01*
X74077988Y-69091901D01*
X73958132Y-68867666D01*
X73672611Y-68746994D01*
X72569605Y-69850000D01*
X72210395Y-69850000D01*
X71107389Y-68746994D01*
X70821868Y-68867666D01*
X70660355Y-69192469D01*
X70565312Y-69542540D01*
X70540390Y-69904427D01*
X69151500Y-69904427D01*
X69151500Y-69668628D01*
X69080732Y-69312854D01*
X68941916Y-68977723D01*
X68740386Y-68676112D01*
X68631663Y-68567389D01*
X71286994Y-68567389D01*
X72390000Y-69670395D01*
X73493006Y-68567389D01*
X73372334Y-68281868D01*
X73047531Y-68120355D01*
X72697460Y-68025312D01*
X72335573Y-68000390D01*
X71975778Y-68046548D01*
X71631901Y-68162012D01*
X71407666Y-68281868D01*
X71286994Y-68567389D01*
X68631663Y-68567389D01*
X68483888Y-68419614D01*
X68182277Y-68218084D01*
X67847146Y-68079268D01*
X67491372Y-68008500D01*
X67128628Y-68008500D01*
X66772854Y-68079268D01*
X66481806Y-68199824D01*
X74733262Y-59948369D01*
X74736487Y-59981111D01*
X74821401Y-60261034D01*
X74959294Y-60519014D01*
X75144866Y-60745134D01*
X75174687Y-60769607D01*
X75105820Y-60790498D01*
X74995506Y-60849463D01*
X74898815Y-60928815D01*
X74819463Y-61025506D01*
X74760498Y-61135820D01*
X74724188Y-61255518D01*
X74711928Y-61380000D01*
X74711928Y-63080000D01*
X74724188Y-63204482D01*
X74760498Y-63324180D01*
X74819463Y-63434494D01*
X74898815Y-63531185D01*
X74995506Y-63610537D01*
X75105820Y-63669502D01*
X75225518Y-63705812D01*
X75350000Y-63718072D01*
X77050000Y-63718072D01*
X77174482Y-63705812D01*
X77294180Y-63669502D01*
X77404494Y-63610537D01*
X77501185Y-63531185D01*
X77580537Y-63434494D01*
X77639502Y-63324180D01*
X77675812Y-63204482D01*
X77688072Y-63080000D01*
X77688072Y-62255703D01*
X78740000Y-63307631D01*
X78740001Y-64986564D01*
X78736314Y-65024000D01*
X78751026Y-65173378D01*
X78794598Y-65317015D01*
X78865355Y-65449392D01*
X78960578Y-65565422D01*
X79076608Y-65660645D01*
X79208985Y-65731402D01*
X79352622Y-65774974D01*
X79464574Y-65786000D01*
X79464575Y-65786000D01*
X79502000Y-65789686D01*
X79539426Y-65786000D01*
X88608577Y-65786000D01*
X88646000Y-65789686D01*
X88683423Y-65786000D01*
X88683426Y-65786000D01*
X88795378Y-65774974D01*
X88939015Y-65731402D01*
X89071392Y-65660645D01*
X89187422Y-65565422D01*
X89211284Y-65536346D01*
X91116264Y-63631366D01*
X91158691Y-63644236D01*
X91369508Y-63665000D01*
X91510492Y-63665000D01*
X91721309Y-63644236D01*
X91991808Y-63562182D01*
X92241101Y-63428932D01*
X92459608Y-63249608D01*
X92638932Y-63031101D01*
X92710000Y-62898142D01*
X92781068Y-63031101D01*
X92960392Y-63249608D01*
X93178899Y-63428932D01*
X93376055Y-63534314D01*
X90108370Y-66802000D01*
X84873422Y-66802000D01*
X84835999Y-66798314D01*
X84798576Y-66802000D01*
X84798574Y-66802000D01*
X84686622Y-66813026D01*
X84542985Y-66856598D01*
X84410608Y-66927355D01*
X84294578Y-67022578D01*
X84270721Y-67051648D01*
X83197423Y-68124946D01*
X83087146Y-68079268D01*
X82731372Y-68008500D01*
X82368628Y-68008500D01*
X82012854Y-68079268D01*
X81677723Y-68218084D01*
X81376112Y-68419614D01*
X81119614Y-68676112D01*
X80918084Y-68977723D01*
X80779268Y-69312854D01*
X80708500Y-69668628D01*
X80708500Y-70031372D01*
X80779268Y-70387146D01*
X80918084Y-70722277D01*
X81119614Y-71023888D01*
X81376112Y-71280386D01*
X81677723Y-71481916D01*
X82012854Y-71620732D01*
X82368628Y-71691500D01*
X82731372Y-71691500D01*
X83087146Y-71620732D01*
X83422277Y-71481916D01*
X83723888Y-71280386D01*
X83871663Y-71132611D01*
X86526994Y-71132611D01*
X86647666Y-71418132D01*
X86972469Y-71579645D01*
X87322540Y-71674688D01*
X87684427Y-71699610D01*
X88044222Y-71653452D01*
X88388099Y-71537988D01*
X88612334Y-71418132D01*
X88733006Y-71132611D01*
X87630000Y-70029605D01*
X86526994Y-71132611D01*
X83871663Y-71132611D01*
X83980386Y-71023888D01*
X84181916Y-70722277D01*
X84320732Y-70387146D01*
X84391500Y-70031372D01*
X84391500Y-69904427D01*
X85780390Y-69904427D01*
X85826548Y-70264222D01*
X85942012Y-70608099D01*
X86061868Y-70832334D01*
X86347389Y-70953006D01*
X87450395Y-69850000D01*
X87809605Y-69850000D01*
X88912611Y-70953006D01*
X89198132Y-70832334D01*
X89359645Y-70507531D01*
X89454688Y-70157460D01*
X89479610Y-69795573D01*
X89433452Y-69435778D01*
X89317988Y-69091901D01*
X89198132Y-68867666D01*
X88912611Y-68746994D01*
X87809605Y-69850000D01*
X87450395Y-69850000D01*
X86347389Y-68746994D01*
X86061868Y-68867666D01*
X85900355Y-69192469D01*
X85805312Y-69542540D01*
X85780390Y-69904427D01*
X84391500Y-69904427D01*
X84391500Y-69668628D01*
X84320732Y-69312854D01*
X84275054Y-69202577D01*
X85151631Y-68326000D01*
X86629014Y-68326000D01*
X86526994Y-68567389D01*
X87630000Y-69670395D01*
X88733006Y-68567389D01*
X88630986Y-68326000D01*
X90386577Y-68326000D01*
X90424000Y-68329686D01*
X90461423Y-68326000D01*
X90461426Y-68326000D01*
X90573378Y-68314974D01*
X90717015Y-68271402D01*
X90849392Y-68200645D01*
X90965422Y-68105422D01*
X90989284Y-68076346D01*
X95673353Y-63392278D01*
X95673795Y-63391916D01*
X95718899Y-63428932D01*
X95968192Y-63562182D01*
X96238691Y-63644236D01*
X96449508Y-63665000D01*
X96547369Y-63665000D01*
X93975649Y-66236721D01*
X93946579Y-66260578D01*
X93922722Y-66289648D01*
X93922721Y-66289649D01*
X93851355Y-66376608D01*
X93780599Y-66508985D01*
X93737027Y-66652622D01*
X93722314Y-66802000D01*
X93726001Y-66839433D01*
X93726000Y-70804369D01*
X84323649Y-80206721D01*
X84294579Y-80230578D01*
X84270722Y-80259648D01*
X84270721Y-80259649D01*
X84199355Y-80346608D01*
X84128599Y-80478985D01*
X84085027Y-80622622D01*
X84070314Y-80772000D01*
X84074001Y-80809433D01*
X84074001Y-81516217D01*
X83980386Y-81376112D01*
X83723888Y-81119614D01*
X83422277Y-80918084D01*
X83087146Y-80779268D01*
X82731372Y-80708500D01*
X82368628Y-80708500D01*
X82012854Y-80779268D01*
X81677723Y-80918084D01*
X81376112Y-81119614D01*
X81119614Y-81376112D01*
X80918084Y-81677723D01*
X80779268Y-82012854D01*
X80708500Y-82368628D01*
X80708500Y-82731372D01*
X80779268Y-83087146D01*
X80918084Y-83422277D01*
X81119614Y-83723888D01*
X81376112Y-83980386D01*
X81677723Y-84181916D01*
X82012854Y-84320732D01*
X82368628Y-84391500D01*
X82731372Y-84391500D01*
X83087146Y-84320732D01*
X83422277Y-84181916D01*
X83723888Y-83980386D01*
X83980386Y-83723888D01*
X84074001Y-83583784D01*
X84074000Y-92648370D01*
X80882059Y-95840311D01*
X80632756Y-95737047D01*
X80220279Y-95655000D01*
X79799721Y-95655000D01*
X79387244Y-95737047D01*
X78998698Y-95897988D01*
X78649017Y-96131637D01*
X78351637Y-96429017D01*
X78117988Y-96778698D01*
X77957047Y-97167244D01*
X77875000Y-97579721D01*
X77875000Y-98000279D01*
X77957047Y-98412756D01*
X78117988Y-98801302D01*
X78351637Y-99150983D01*
X78649017Y-99448363D01*
X78998698Y-99682012D01*
X79387244Y-99842953D01*
X79799721Y-99925000D01*
X80220279Y-99925000D01*
X80544481Y-99860512D01*
X143339783Y-99860512D01*
X143381213Y-100140130D01*
X143476397Y-100406292D01*
X143543329Y-100531514D01*
X143787298Y-100603097D01*
X144600395Y-99790000D01*
X144586253Y-99775858D01*
X144765858Y-99596253D01*
X144780000Y-99610395D01*
X144794143Y-99596253D01*
X144973748Y-99775858D01*
X144959605Y-99790000D01*
X145772702Y-100603097D01*
X146016671Y-100531514D01*
X146137571Y-100276004D01*
X146206300Y-100001816D01*
X146220217Y-99719488D01*
X146178787Y-99439870D01*
X146083603Y-99173708D01*
X146018384Y-99051691D01*
X146031185Y-99041185D01*
X146110537Y-98944494D01*
X146169502Y-98834180D01*
X146205812Y-98714482D01*
X146218072Y-98590000D01*
X146218072Y-96990000D01*
X146205812Y-96865518D01*
X146169502Y-96745820D01*
X146110537Y-96635506D01*
X146031185Y-96538815D01*
X145934494Y-96459463D01*
X145824180Y-96400498D01*
X145704482Y-96364188D01*
X145580000Y-96351928D01*
X143980000Y-96351928D01*
X143855518Y-96364188D01*
X143735820Y-96400498D01*
X143625506Y-96459463D01*
X143528815Y-96538815D01*
X143449463Y-96635506D01*
X143390498Y-96745820D01*
X143354188Y-96865518D01*
X143341928Y-96990000D01*
X143341928Y-98590000D01*
X143354188Y-98714482D01*
X143390498Y-98834180D01*
X143449463Y-98944494D01*
X143528815Y-99041185D01*
X143541758Y-99051807D01*
X143422429Y-99303996D01*
X143353700Y-99578184D01*
X143339783Y-99860512D01*
X80544481Y-99860512D01*
X80632756Y-99842953D01*
X81021302Y-99682012D01*
X81370983Y-99448363D01*
X81668363Y-99150983D01*
X81902012Y-98801302D01*
X82062953Y-98412756D01*
X82145000Y-98000279D01*
X82145000Y-97579721D01*
X82062953Y-97167244D01*
X81959689Y-96917941D01*
X82187630Y-96690000D01*
X137961928Y-96690000D01*
X137961928Y-98890000D01*
X137974188Y-99014482D01*
X138010498Y-99134180D01*
X138069463Y-99244494D01*
X138148815Y-99341185D01*
X138245506Y-99420537D01*
X138355820Y-99479502D01*
X138475518Y-99515812D01*
X138600000Y-99528072D01*
X140800000Y-99528072D01*
X140924482Y-99515812D01*
X141044180Y-99479502D01*
X141154494Y-99420537D01*
X141251185Y-99341185D01*
X141330537Y-99244494D01*
X141389502Y-99134180D01*
X141425812Y-99014482D01*
X141438072Y-98890000D01*
X141438072Y-96690000D01*
X141425812Y-96565518D01*
X141389502Y-96445820D01*
X141330537Y-96335506D01*
X141251185Y-96238815D01*
X141154494Y-96159463D01*
X141044180Y-96100498D01*
X140924482Y-96064188D01*
X140800000Y-96051928D01*
X138600000Y-96051928D01*
X138475518Y-96064188D01*
X138355820Y-96100498D01*
X138245506Y-96159463D01*
X138148815Y-96238815D01*
X138069463Y-96335506D01*
X138010498Y-96445820D01*
X137974188Y-96565518D01*
X137961928Y-96690000D01*
X82187630Y-96690000D01*
X85348347Y-93529283D01*
X85377422Y-93505422D01*
X85437857Y-93431781D01*
X85472645Y-93389393D01*
X85543401Y-93257016D01*
X85543402Y-93257015D01*
X85586974Y-93113378D01*
X85598000Y-93001426D01*
X85598000Y-93001423D01*
X85601686Y-92964000D01*
X85598000Y-92926577D01*
X85598000Y-86780000D01*
X91221928Y-86780000D01*
X91221928Y-88480000D01*
X91234188Y-88604482D01*
X91270498Y-88724180D01*
X91329463Y-88834494D01*
X91408815Y-88931185D01*
X91505506Y-89010537D01*
X91615820Y-89069502D01*
X91735518Y-89105812D01*
X91860000Y-89118072D01*
X93560000Y-89118072D01*
X93684482Y-89105812D01*
X93804180Y-89069502D01*
X93914494Y-89010537D01*
X94011185Y-88931185D01*
X94090537Y-88834494D01*
X94149502Y-88724180D01*
X94170393Y-88655313D01*
X94194866Y-88685134D01*
X94420986Y-88870706D01*
X94678966Y-89008599D01*
X94958889Y-89093513D01*
X95177050Y-89115000D01*
X95322950Y-89115000D01*
X95541111Y-89093513D01*
X95821034Y-89008599D01*
X96079014Y-88870706D01*
X96305134Y-88685134D01*
X96490706Y-88459014D01*
X96520000Y-88404209D01*
X96549294Y-88459014D01*
X96734866Y-88685134D01*
X96960986Y-88870706D01*
X97218966Y-89008599D01*
X97498889Y-89093513D01*
X97717050Y-89115000D01*
X97862950Y-89115000D01*
X98081111Y-89093513D01*
X98361034Y-89008599D01*
X98619014Y-88870706D01*
X98845134Y-88685134D01*
X99030706Y-88459014D01*
X99060000Y-88404209D01*
X99089294Y-88459014D01*
X99274866Y-88685134D01*
X99500986Y-88870706D01*
X99758966Y-89008599D01*
X100038889Y-89093513D01*
X100257050Y-89115000D01*
X100402950Y-89115000D01*
X100621111Y-89093513D01*
X100901034Y-89008599D01*
X101159014Y-88870706D01*
X101385134Y-88685134D01*
X101570706Y-88459014D01*
X101600000Y-88404209D01*
X101629294Y-88459014D01*
X101814866Y-88685134D01*
X102040986Y-88870706D01*
X102298966Y-89008599D01*
X102578889Y-89093513D01*
X102797050Y-89115000D01*
X102942950Y-89115000D01*
X103161111Y-89093513D01*
X103441034Y-89008599D01*
X103699014Y-88870706D01*
X103925134Y-88685134D01*
X104110706Y-88459014D01*
X104140000Y-88404209D01*
X104169294Y-88459014D01*
X104354866Y-88685134D01*
X104580986Y-88870706D01*
X104838966Y-89008599D01*
X105118889Y-89093513D01*
X105337050Y-89115000D01*
X105482950Y-89115000D01*
X105701111Y-89093513D01*
X105981034Y-89008599D01*
X106239014Y-88870706D01*
X106465134Y-88685134D01*
X106650706Y-88459014D01*
X106680000Y-88404209D01*
X106709294Y-88459014D01*
X106894866Y-88685134D01*
X107120986Y-88870706D01*
X107378966Y-89008599D01*
X107658889Y-89093513D01*
X107877050Y-89115000D01*
X108022950Y-89115000D01*
X108241111Y-89093513D01*
X108521034Y-89008599D01*
X108779014Y-88870706D01*
X109005134Y-88685134D01*
X109190706Y-88459014D01*
X109225201Y-88394477D01*
X109294822Y-88511355D01*
X109489731Y-88727588D01*
X109723080Y-88901641D01*
X109985901Y-89026825D01*
X110133110Y-89071476D01*
X110363000Y-88950155D01*
X110363000Y-87757000D01*
X110343000Y-87757000D01*
X110343000Y-87503000D01*
X110363000Y-87503000D01*
X110363000Y-86309845D01*
X110617000Y-86309845D01*
X110617000Y-87503000D01*
X110637000Y-87503000D01*
X110637000Y-87757000D01*
X110617000Y-87757000D01*
X110617000Y-88950155D01*
X110846890Y-89071476D01*
X110994099Y-89026825D01*
X111256920Y-88901641D01*
X111490269Y-88727588D01*
X111685178Y-88511355D01*
X111754799Y-88394477D01*
X111789294Y-88459014D01*
X111974866Y-88685134D01*
X112200986Y-88870706D01*
X112458966Y-89008599D01*
X112738889Y-89093513D01*
X112957050Y-89115000D01*
X113102950Y-89115000D01*
X113321111Y-89093513D01*
X113601034Y-89008599D01*
X113859014Y-88870706D01*
X114085134Y-88685134D01*
X114270706Y-88459014D01*
X114300000Y-88404209D01*
X114329294Y-88459014D01*
X114514866Y-88685134D01*
X114740986Y-88870706D01*
X114998966Y-89008599D01*
X115278889Y-89093513D01*
X115497050Y-89115000D01*
X115642950Y-89115000D01*
X115861111Y-89093513D01*
X116141034Y-89008599D01*
X116399014Y-88870706D01*
X116625134Y-88685134D01*
X116810706Y-88459014D01*
X116948599Y-88201034D01*
X117033513Y-87921111D01*
X117062185Y-87630000D01*
X117033513Y-87338889D01*
X116948599Y-87058966D01*
X116810706Y-86800986D01*
X116625134Y-86574866D01*
X116399014Y-86389294D01*
X116141034Y-86251401D01*
X115861111Y-86166487D01*
X115642950Y-86145000D01*
X115497050Y-86145000D01*
X115278889Y-86166487D01*
X114998966Y-86251401D01*
X114740986Y-86389294D01*
X114514866Y-86574866D01*
X114329294Y-86800986D01*
X114300000Y-86855791D01*
X114270706Y-86800986D01*
X114085134Y-86574866D01*
X113859014Y-86389294D01*
X113601034Y-86251401D01*
X113321111Y-86166487D01*
X113102950Y-86145000D01*
X112957050Y-86145000D01*
X112738889Y-86166487D01*
X112458966Y-86251401D01*
X112200986Y-86389294D01*
X111974866Y-86574866D01*
X111789294Y-86800986D01*
X111754799Y-86865523D01*
X111685178Y-86748645D01*
X111490269Y-86532412D01*
X111256920Y-86358359D01*
X110994099Y-86233175D01*
X110846890Y-86188524D01*
X110617000Y-86309845D01*
X110363000Y-86309845D01*
X110133110Y-86188524D01*
X109985901Y-86233175D01*
X109723080Y-86358359D01*
X109489731Y-86532412D01*
X109294822Y-86748645D01*
X109225201Y-86865523D01*
X109190706Y-86800986D01*
X109005134Y-86574866D01*
X108779014Y-86389294D01*
X108521034Y-86251401D01*
X108241111Y-86166487D01*
X108022950Y-86145000D01*
X107877050Y-86145000D01*
X107658889Y-86166487D01*
X107378966Y-86251401D01*
X107120986Y-86389294D01*
X106894866Y-86574866D01*
X106709294Y-86800986D01*
X106680000Y-86855791D01*
X106650706Y-86800986D01*
X106465134Y-86574866D01*
X106239014Y-86389294D01*
X105981034Y-86251401D01*
X105701111Y-86166487D01*
X105482950Y-86145000D01*
X105337050Y-86145000D01*
X105118889Y-86166487D01*
X104838966Y-86251401D01*
X104580986Y-86389294D01*
X104354866Y-86574866D01*
X104169294Y-86800986D01*
X104140000Y-86855791D01*
X104110706Y-86800986D01*
X103925134Y-86574866D01*
X103699014Y-86389294D01*
X103441034Y-86251401D01*
X103161111Y-86166487D01*
X102942950Y-86145000D01*
X102797050Y-86145000D01*
X102578889Y-86166487D01*
X102298966Y-86251401D01*
X102040986Y-86389294D01*
X101814866Y-86574866D01*
X101629294Y-86800986D01*
X101600000Y-86855791D01*
X101570706Y-86800986D01*
X101385134Y-86574866D01*
X101159014Y-86389294D01*
X100901034Y-86251401D01*
X100621111Y-86166487D01*
X100402950Y-86145000D01*
X100257050Y-86145000D01*
X100038889Y-86166487D01*
X99758966Y-86251401D01*
X99500986Y-86389294D01*
X99274866Y-86574866D01*
X99089294Y-86800986D01*
X99060000Y-86855791D01*
X99030706Y-86800986D01*
X98845134Y-86574866D01*
X98619014Y-86389294D01*
X98361034Y-86251401D01*
X98081111Y-86166487D01*
X97862950Y-86145000D01*
X97717050Y-86145000D01*
X97498889Y-86166487D01*
X97218966Y-86251401D01*
X96960986Y-86389294D01*
X96734866Y-86574866D01*
X96549294Y-86800986D01*
X96520000Y-86855791D01*
X96490706Y-86800986D01*
X96305134Y-86574866D01*
X96079014Y-86389294D01*
X95821034Y-86251401D01*
X95541111Y-86166487D01*
X95322950Y-86145000D01*
X95177050Y-86145000D01*
X94958889Y-86166487D01*
X94678966Y-86251401D01*
X94420986Y-86389294D01*
X94194866Y-86574866D01*
X94170393Y-86604687D01*
X94149502Y-86535820D01*
X94090537Y-86425506D01*
X94011185Y-86328815D01*
X93914494Y-86249463D01*
X93804180Y-86190498D01*
X93684482Y-86154188D01*
X93560000Y-86141928D01*
X91860000Y-86141928D01*
X91735518Y-86154188D01*
X91615820Y-86190498D01*
X91505506Y-86249463D01*
X91408815Y-86328815D01*
X91329463Y-86425506D01*
X91270498Y-86535820D01*
X91234188Y-86655518D01*
X91221928Y-86780000D01*
X85598000Y-86780000D01*
X85598000Y-82368628D01*
X85788500Y-82368628D01*
X85788500Y-82731372D01*
X85859268Y-83087146D01*
X85998084Y-83422277D01*
X86199614Y-83723888D01*
X86456112Y-83980386D01*
X86757723Y-84181916D01*
X87092854Y-84320732D01*
X87448628Y-84391500D01*
X87811372Y-84391500D01*
X88167146Y-84320732D01*
X88502277Y-84181916D01*
X88803888Y-83980386D01*
X89060386Y-83723888D01*
X89261916Y-83422277D01*
X89400732Y-83087146D01*
X89471500Y-82731372D01*
X89471500Y-82368628D01*
X89400732Y-82012854D01*
X89261916Y-81677723D01*
X89060386Y-81376112D01*
X88803888Y-81119614D01*
X88502277Y-80918084D01*
X88167146Y-80779268D01*
X87811372Y-80708500D01*
X87448628Y-80708500D01*
X87092854Y-80779268D01*
X86757723Y-80918084D01*
X86456112Y-81119614D01*
X86199614Y-81376112D01*
X85998084Y-81677723D01*
X85859268Y-82012854D01*
X85788500Y-82368628D01*
X85598000Y-82368628D01*
X85598000Y-81087630D01*
X87791697Y-78893933D01*
X89916000Y-78893933D01*
X89916000Y-79094067D01*
X89955044Y-79290356D01*
X90031632Y-79475256D01*
X90142821Y-79641662D01*
X90284338Y-79783179D01*
X90450744Y-79894368D01*
X90635644Y-79970956D01*
X90831933Y-80010000D01*
X90962619Y-80010000D01*
X90971044Y-80052356D01*
X90990244Y-80098709D01*
X91004798Y-80146687D01*
X91028433Y-80190905D01*
X91047632Y-80237256D01*
X91075503Y-80278968D01*
X91099140Y-80323190D01*
X91130952Y-80361953D01*
X91158821Y-80403662D01*
X91194292Y-80439133D01*
X91226104Y-80477896D01*
X91264865Y-80509706D01*
X91300338Y-80545179D01*
X91342047Y-80573048D01*
X91380810Y-80604860D01*
X91425032Y-80628497D01*
X91466744Y-80656368D01*
X91513095Y-80675567D01*
X91557313Y-80699202D01*
X91605291Y-80713756D01*
X91651644Y-80732956D01*
X91700849Y-80742743D01*
X91748829Y-80757298D01*
X91798729Y-80762213D01*
X91847933Y-80772000D01*
X97289393Y-80772000D01*
X97252854Y-80779268D01*
X96917723Y-80918084D01*
X96616112Y-81119614D01*
X96359614Y-81376112D01*
X96158084Y-81677723D01*
X96019268Y-82012854D01*
X95948500Y-82368628D01*
X95948500Y-82731372D01*
X96019268Y-83087146D01*
X96158084Y-83422277D01*
X96359614Y-83723888D01*
X96616112Y-83980386D01*
X96917723Y-84181916D01*
X97252854Y-84320732D01*
X97608628Y-84391500D01*
X97971372Y-84391500D01*
X98327146Y-84320732D01*
X98662277Y-84181916D01*
X98963888Y-83980386D01*
X99220386Y-83723888D01*
X99421916Y-83422277D01*
X99560732Y-83087146D01*
X99631500Y-82731372D01*
X99631500Y-82368628D01*
X101028500Y-82368628D01*
X101028500Y-82731372D01*
X101099268Y-83087146D01*
X101238084Y-83422277D01*
X101439614Y-83723888D01*
X101696112Y-83980386D01*
X101997723Y-84181916D01*
X102332854Y-84320732D01*
X102688628Y-84391500D01*
X103051372Y-84391500D01*
X103407146Y-84320732D01*
X103742277Y-84181916D01*
X104043888Y-83980386D01*
X104300386Y-83723888D01*
X104501916Y-83422277D01*
X104640732Y-83087146D01*
X104711500Y-82731372D01*
X104711500Y-82368628D01*
X111188500Y-82368628D01*
X111188500Y-82731372D01*
X111259268Y-83087146D01*
X111398084Y-83422277D01*
X111599614Y-83723888D01*
X111856112Y-83980386D01*
X112157723Y-84181916D01*
X112492854Y-84320732D01*
X112848628Y-84391500D01*
X113211372Y-84391500D01*
X113567146Y-84320732D01*
X113902277Y-84181916D01*
X114203888Y-83980386D01*
X114460386Y-83723888D01*
X114661916Y-83422277D01*
X114800732Y-83087146D01*
X114871500Y-82731372D01*
X114871500Y-82368628D01*
X116268500Y-82368628D01*
X116268500Y-82731372D01*
X116339268Y-83087146D01*
X116478084Y-83422277D01*
X116679614Y-83723888D01*
X116936112Y-83980386D01*
X117237723Y-84181916D01*
X117572854Y-84320732D01*
X117928628Y-84391500D01*
X118291372Y-84391500D01*
X118647146Y-84320732D01*
X118938194Y-84200176D01*
X117597649Y-85540721D01*
X117568579Y-85564578D01*
X117544722Y-85593648D01*
X117544721Y-85593649D01*
X117473355Y-85680608D01*
X117402599Y-85812985D01*
X117359027Y-85956622D01*
X117344314Y-86106000D01*
X117348001Y-86143433D01*
X117348000Y-90257159D01*
X117320821Y-90284338D01*
X117209632Y-90450744D01*
X117133044Y-90635644D01*
X117094000Y-90831933D01*
X117094000Y-91032067D01*
X117133044Y-91228356D01*
X117209632Y-91413256D01*
X117320821Y-91579662D01*
X117462338Y-91721179D01*
X117628744Y-91832368D01*
X117813644Y-91908956D01*
X118009933Y-91948000D01*
X118210067Y-91948000D01*
X118406356Y-91908956D01*
X118591256Y-91832368D01*
X118757662Y-91721179D01*
X118899179Y-91579662D01*
X119010368Y-91413256D01*
X119086956Y-91228356D01*
X119126000Y-91032067D01*
X119126000Y-90900857D01*
X143161226Y-90900857D01*
X143211643Y-91350335D01*
X143348404Y-91781460D01*
X143566299Y-92177811D01*
X143857030Y-92524290D01*
X144209522Y-92807701D01*
X144610349Y-93017249D01*
X145044244Y-93144951D01*
X145494679Y-93185944D01*
X145944498Y-93138666D01*
X146376567Y-93004918D01*
X146774430Y-92789795D01*
X147122930Y-92501490D01*
X147408795Y-92150985D01*
X147597070Y-91796890D01*
X149688524Y-91796890D01*
X149733175Y-91944099D01*
X149858359Y-92206920D01*
X150032412Y-92440269D01*
X150248645Y-92635178D01*
X150498748Y-92784157D01*
X150773109Y-92881481D01*
X151003000Y-92760814D01*
X151003000Y-91567000D01*
X151257000Y-91567000D01*
X151257000Y-92760814D01*
X151486891Y-92881481D01*
X151761252Y-92784157D01*
X152011355Y-92635178D01*
X152227588Y-92440269D01*
X152401641Y-92206920D01*
X152526825Y-91944099D01*
X152571476Y-91796890D01*
X152450155Y-91567000D01*
X151257000Y-91567000D01*
X151003000Y-91567000D01*
X149809845Y-91567000D01*
X149688524Y-91796890D01*
X147597070Y-91796890D01*
X147621135Y-91751631D01*
X147751864Y-91318638D01*
X147796000Y-90868500D01*
X147795096Y-90803792D01*
X147738409Y-90355061D01*
X147595642Y-89925888D01*
X147372233Y-89532618D01*
X147076693Y-89190232D01*
X146720279Y-88911770D01*
X146316565Y-88707840D01*
X145880930Y-88586208D01*
X145429966Y-88551508D01*
X144980851Y-88605062D01*
X144550691Y-88744829D01*
X144155871Y-88965487D01*
X143811430Y-89258629D01*
X143530487Y-89613091D01*
X143323743Y-90015371D01*
X143199073Y-90450147D01*
X143161226Y-90900857D01*
X119126000Y-90900857D01*
X119126000Y-90831933D01*
X119086956Y-90635644D01*
X119010368Y-90450744D01*
X118899179Y-90284338D01*
X118872000Y-90257159D01*
X118872000Y-87700512D01*
X122289783Y-87700512D01*
X122331213Y-87980130D01*
X122426397Y-88246292D01*
X122493329Y-88371514D01*
X122737298Y-88443097D01*
X123550395Y-87630000D01*
X122737298Y-86816903D01*
X122493329Y-86888486D01*
X122372429Y-87143996D01*
X122303700Y-87418184D01*
X122289783Y-87700512D01*
X118872000Y-87700512D01*
X118872000Y-86637298D01*
X122916903Y-86637298D01*
X123730000Y-87450395D01*
X123744143Y-87436253D01*
X123923748Y-87615858D01*
X123909605Y-87630000D01*
X123923748Y-87644143D01*
X123744143Y-87823748D01*
X123730000Y-87809605D01*
X122916903Y-88622702D01*
X122988486Y-88866671D01*
X123243996Y-88987571D01*
X123518184Y-89056300D01*
X123800512Y-89070217D01*
X124080130Y-89028787D01*
X124346292Y-88933603D01*
X124468309Y-88868384D01*
X124478815Y-88881185D01*
X124575506Y-88960537D01*
X124685820Y-89019502D01*
X124805518Y-89055812D01*
X124930000Y-89068072D01*
X126530000Y-89068072D01*
X126654482Y-89055812D01*
X126774180Y-89019502D01*
X126884494Y-88960537D01*
X126981185Y-88881185D01*
X127060537Y-88784494D01*
X127119502Y-88674180D01*
X127155812Y-88554482D01*
X127168072Y-88430000D01*
X127168072Y-87630000D01*
X137956606Y-87630000D01*
X137990105Y-87970119D01*
X138089314Y-88297168D01*
X138250421Y-88598578D01*
X138467234Y-88862766D01*
X138731422Y-89079579D01*
X139032832Y-89240686D01*
X139359881Y-89339895D01*
X139614775Y-89365000D01*
X139785225Y-89365000D01*
X140040119Y-89339895D01*
X140367168Y-89240686D01*
X140668578Y-89079579D01*
X140932766Y-88862766D01*
X141149579Y-88598578D01*
X141310686Y-88297168D01*
X141385663Y-88050000D01*
X149641928Y-88050000D01*
X149641928Y-89750000D01*
X149654188Y-89874482D01*
X149690498Y-89994180D01*
X149749463Y-90104494D01*
X149828815Y-90201185D01*
X149925506Y-90280537D01*
X150035820Y-90339502D01*
X150116466Y-90363966D01*
X150032412Y-90439731D01*
X149858359Y-90673080D01*
X149733175Y-90935901D01*
X149688524Y-91083110D01*
X149809845Y-91313000D01*
X151003000Y-91313000D01*
X151003000Y-91293000D01*
X151257000Y-91293000D01*
X151257000Y-91313000D01*
X152450155Y-91313000D01*
X152571476Y-91083110D01*
X152526825Y-90935901D01*
X152401641Y-90673080D01*
X152227588Y-90439731D01*
X152143534Y-90363966D01*
X152224180Y-90339502D01*
X152334494Y-90280537D01*
X152431185Y-90201185D01*
X152510537Y-90104494D01*
X152569502Y-89994180D01*
X152605812Y-89874482D01*
X152618072Y-89750000D01*
X152618072Y-88050000D01*
X152605812Y-87925518D01*
X152569502Y-87805820D01*
X152510537Y-87695506D01*
X152431185Y-87598815D01*
X152334494Y-87519463D01*
X152224180Y-87460498D01*
X152104482Y-87424188D01*
X151980000Y-87411928D01*
X150280000Y-87411928D01*
X150155518Y-87424188D01*
X150035820Y-87460498D01*
X149925506Y-87519463D01*
X149828815Y-87598815D01*
X149749463Y-87695506D01*
X149690498Y-87805820D01*
X149654188Y-87925518D01*
X149641928Y-88050000D01*
X141385663Y-88050000D01*
X141409895Y-87970119D01*
X141443394Y-87630000D01*
X141409895Y-87289881D01*
X141310686Y-86962832D01*
X141149579Y-86661422D01*
X140932766Y-86397234D01*
X140668578Y-86180421D01*
X140367168Y-86019314D01*
X140040119Y-85920105D01*
X139785225Y-85895000D01*
X139614775Y-85895000D01*
X139359881Y-85920105D01*
X139032832Y-86019314D01*
X138731422Y-86180421D01*
X138467234Y-86397234D01*
X138250421Y-86661422D01*
X138089314Y-86962832D01*
X137990105Y-87289881D01*
X137956606Y-87630000D01*
X127168072Y-87630000D01*
X127168072Y-86830000D01*
X127155812Y-86705518D01*
X127119502Y-86585820D01*
X127060537Y-86475506D01*
X126981185Y-86378815D01*
X126884494Y-86299463D01*
X126774180Y-86240498D01*
X126654482Y-86204188D01*
X126530000Y-86191928D01*
X124930000Y-86191928D01*
X124805518Y-86204188D01*
X124685820Y-86240498D01*
X124575506Y-86299463D01*
X124478815Y-86378815D01*
X124468193Y-86391758D01*
X124216004Y-86272429D01*
X123941816Y-86203700D01*
X123659488Y-86189783D01*
X123379870Y-86231213D01*
X123113708Y-86326397D01*
X122988486Y-86393329D01*
X122916903Y-86637298D01*
X118872000Y-86637298D01*
X118872000Y-86421630D01*
X121416347Y-83877283D01*
X121445422Y-83853422D01*
X121505857Y-83779781D01*
X121540645Y-83737393D01*
X121611401Y-83605016D01*
X121611402Y-83605015D01*
X121654974Y-83461378D01*
X121666000Y-83349426D01*
X121666000Y-83349423D01*
X121669686Y-83312000D01*
X121666000Y-83274577D01*
X121666000Y-82368628D01*
X126428500Y-82368628D01*
X126428500Y-82731372D01*
X126499268Y-83087146D01*
X126638084Y-83422277D01*
X126839614Y-83723888D01*
X127096112Y-83980386D01*
X127397723Y-84181916D01*
X127732854Y-84320732D01*
X128088628Y-84391500D01*
X128451372Y-84391500D01*
X128807146Y-84320732D01*
X129142277Y-84181916D01*
X129443888Y-83980386D01*
X129700386Y-83723888D01*
X129901916Y-83422277D01*
X130040732Y-83087146D01*
X130111500Y-82731372D01*
X130111500Y-82368628D01*
X131508500Y-82368628D01*
X131508500Y-82731372D01*
X131579268Y-83087146D01*
X131718084Y-83422277D01*
X131919614Y-83723888D01*
X132176112Y-83980386D01*
X132477723Y-84181916D01*
X132812854Y-84320732D01*
X133168628Y-84391500D01*
X133531372Y-84391500D01*
X133887146Y-84320732D01*
X134222277Y-84181916D01*
X134523888Y-83980386D01*
X134780386Y-83723888D01*
X134981916Y-83422277D01*
X135120732Y-83087146D01*
X135191500Y-82731372D01*
X135191500Y-82368628D01*
X135120732Y-82012854D01*
X134981916Y-81677723D01*
X134780386Y-81376112D01*
X134523888Y-81119614D01*
X134222277Y-80918084D01*
X133887146Y-80779268D01*
X133531372Y-80708500D01*
X133168628Y-80708500D01*
X132812854Y-80779268D01*
X132477723Y-80918084D01*
X132176112Y-81119614D01*
X131919614Y-81376112D01*
X131718084Y-81677723D01*
X131579268Y-82012854D01*
X131508500Y-82368628D01*
X130111500Y-82368628D01*
X130040732Y-82012854D01*
X129901916Y-81677723D01*
X129700386Y-81376112D01*
X129443888Y-81119614D01*
X129142277Y-80918084D01*
X128807146Y-80779268D01*
X128451372Y-80708500D01*
X128088628Y-80708500D01*
X127732854Y-80779268D01*
X127397723Y-80918084D01*
X127096112Y-81119614D01*
X126839614Y-81376112D01*
X126638084Y-81677723D01*
X126499268Y-82012854D01*
X126428500Y-82368628D01*
X121666000Y-82368628D01*
X121666000Y-80263979D01*
X146685626Y-80263979D01*
X146726841Y-80482478D01*
X146939665Y-80578359D01*
X147167105Y-80630878D01*
X147400421Y-80638016D01*
X147630646Y-80599500D01*
X147848934Y-80516808D01*
X147913159Y-80482478D01*
X147954374Y-80263979D01*
X147320000Y-79629605D01*
X146685626Y-80263979D01*
X121666000Y-80263979D01*
X121666000Y-79530421D01*
X146131984Y-79530421D01*
X146170500Y-79760646D01*
X146253192Y-79978934D01*
X146287522Y-80043159D01*
X146506021Y-80084374D01*
X147140395Y-79450000D01*
X147499605Y-79450000D01*
X148133979Y-80084374D01*
X148352478Y-80043159D01*
X148448359Y-79830335D01*
X148500878Y-79602895D01*
X148508016Y-79369579D01*
X148469500Y-79139354D01*
X148386808Y-78921066D01*
X148352478Y-78856841D01*
X148133979Y-78815626D01*
X147499605Y-79450000D01*
X147140395Y-79450000D01*
X146506021Y-78815626D01*
X146287522Y-78856841D01*
X146191641Y-79069665D01*
X146139122Y-79297105D01*
X146131984Y-79530421D01*
X121666000Y-79530421D01*
X121666000Y-78636021D01*
X146685626Y-78636021D01*
X147320000Y-79270395D01*
X147954374Y-78636021D01*
X147913159Y-78417522D01*
X147700335Y-78321641D01*
X147472895Y-78269122D01*
X147239579Y-78261984D01*
X147009354Y-78300500D01*
X146791066Y-78383192D01*
X146726841Y-78417522D01*
X146685626Y-78636021D01*
X121666000Y-78636021D01*
X121666000Y-76999423D01*
X121669686Y-76962000D01*
X121666000Y-76924574D01*
X121654974Y-76812622D01*
X121611402Y-76668985D01*
X121557605Y-76568338D01*
X121540645Y-76536607D01*
X121469279Y-76449648D01*
X121445422Y-76420578D01*
X121416351Y-76396721D01*
X120904000Y-75884370D01*
X120904000Y-75845933D01*
X120864956Y-75649644D01*
X120788368Y-75464744D01*
X120677179Y-75298338D01*
X120535662Y-75156821D01*
X120369256Y-75045632D01*
X120184356Y-74969044D01*
X119988067Y-74930000D01*
X119787933Y-74930000D01*
X119591644Y-74969044D01*
X119406744Y-75045632D01*
X119240338Y-75156821D01*
X119098821Y-75298338D01*
X118987632Y-75464744D01*
X118911044Y-75649644D01*
X118872000Y-75845933D01*
X118872000Y-76046067D01*
X118911044Y-76242356D01*
X118987632Y-76427256D01*
X119098821Y-76593662D01*
X119240338Y-76735179D01*
X119406744Y-76846368D01*
X119591644Y-76922956D01*
X119787933Y-76962000D01*
X119826370Y-76962000D01*
X120142001Y-77277632D01*
X120142000Y-82996370D01*
X119760176Y-83378194D01*
X119880732Y-83087146D01*
X119951500Y-82731372D01*
X119951500Y-82368628D01*
X119880732Y-82012854D01*
X119741916Y-81677723D01*
X119540386Y-81376112D01*
X119283888Y-81119614D01*
X118982277Y-80918084D01*
X118647146Y-80779268D01*
X118291372Y-80708500D01*
X117928628Y-80708500D01*
X117572854Y-80779268D01*
X117237723Y-80918084D01*
X116936112Y-81119614D01*
X116679614Y-81376112D01*
X116478084Y-81677723D01*
X116339268Y-82012854D01*
X116268500Y-82368628D01*
X114871500Y-82368628D01*
X114800732Y-82012854D01*
X114661916Y-81677723D01*
X114460386Y-81376112D01*
X114203888Y-81119614D01*
X113902277Y-80918084D01*
X113567146Y-80779268D01*
X113211372Y-80708500D01*
X112848628Y-80708500D01*
X112492854Y-80779268D01*
X112157723Y-80918084D01*
X111856112Y-81119614D01*
X111599614Y-81376112D01*
X111398084Y-81677723D01*
X111259268Y-82012854D01*
X111188500Y-82368628D01*
X104711500Y-82368628D01*
X104640732Y-82012854D01*
X104501916Y-81677723D01*
X104300386Y-81376112D01*
X104043888Y-81119614D01*
X103742277Y-80918084D01*
X103407146Y-80779268D01*
X103051372Y-80708500D01*
X102688628Y-80708500D01*
X102332854Y-80779268D01*
X101997723Y-80918084D01*
X101696112Y-81119614D01*
X101439614Y-81376112D01*
X101238084Y-81677723D01*
X101099268Y-82012854D01*
X101028500Y-82368628D01*
X99631500Y-82368628D01*
X99560732Y-82012854D01*
X99421916Y-81677723D01*
X99220386Y-81376112D01*
X98963888Y-81119614D01*
X98662277Y-80918084D01*
X98327146Y-80779268D01*
X98079279Y-80729964D01*
X98180687Y-80699202D01*
X98357190Y-80604860D01*
X98511896Y-80477896D01*
X98543712Y-80439128D01*
X101178852Y-77803989D01*
X101379413Y-77720913D01*
X101566620Y-77595826D01*
X101725826Y-77436620D01*
X101850913Y-77249413D01*
X101937075Y-77041401D01*
X101981000Y-76820576D01*
X101981000Y-76595424D01*
X101937075Y-76374599D01*
X101850913Y-76166587D01*
X101725826Y-75979380D01*
X101566620Y-75820174D01*
X101379413Y-75695087D01*
X101171401Y-75608925D01*
X100950576Y-75565000D01*
X100725424Y-75565000D01*
X100504599Y-75608925D01*
X100296587Y-75695087D01*
X100109380Y-75820174D01*
X99950174Y-75979380D01*
X99825087Y-76166587D01*
X99742011Y-76367148D01*
X97369160Y-78740000D01*
X94803630Y-78740000D01*
X97597631Y-75946000D01*
X97636067Y-75946000D01*
X97832356Y-75906956D01*
X98017256Y-75830368D01*
X98183662Y-75719179D01*
X98325179Y-75577662D01*
X98436368Y-75411256D01*
X98512956Y-75226356D01*
X98552000Y-75030067D01*
X98552000Y-74829933D01*
X98512956Y-74633644D01*
X98436368Y-74448744D01*
X98325179Y-74282338D01*
X98183662Y-74140821D01*
X98017256Y-74029632D01*
X97832356Y-73953044D01*
X97636067Y-73914000D01*
X97435933Y-73914000D01*
X97239644Y-73953044D01*
X97054744Y-74029632D01*
X96888338Y-74140821D01*
X96746821Y-74282338D01*
X96635632Y-74448744D01*
X96559044Y-74633644D01*
X96520000Y-74829933D01*
X96520000Y-74868369D01*
X93537369Y-77851001D01*
X91350422Y-77851001D01*
X91312999Y-77847315D01*
X91275576Y-77851001D01*
X91275573Y-77851001D01*
X91163621Y-77862027D01*
X91019984Y-77905599D01*
X90887607Y-77976356D01*
X90885604Y-77978000D01*
X90831933Y-77978000D01*
X90635644Y-78017044D01*
X90450744Y-78093632D01*
X90284338Y-78204821D01*
X90142821Y-78346338D01*
X90031632Y-78512744D01*
X89955044Y-78697644D01*
X89916000Y-78893933D01*
X87791697Y-78893933D01*
X93887697Y-72797933D01*
X100330000Y-72797933D01*
X100330000Y-72998067D01*
X100369044Y-73194356D01*
X100445632Y-73379256D01*
X100556821Y-73545662D01*
X100698338Y-73687179D01*
X100864744Y-73798368D01*
X101049644Y-73874956D01*
X101245933Y-73914000D01*
X101446067Y-73914000D01*
X101642356Y-73874956D01*
X101827256Y-73798368D01*
X101993662Y-73687179D01*
X102020841Y-73660000D01*
X103848577Y-73660000D01*
X103886000Y-73663686D01*
X103923423Y-73660000D01*
X103923426Y-73660000D01*
X104035378Y-73648974D01*
X104179015Y-73605402D01*
X104311392Y-73534645D01*
X104427422Y-73439422D01*
X104451284Y-73410346D01*
X108193002Y-69668628D01*
X111188500Y-69668628D01*
X111188500Y-70031372D01*
X111259268Y-70387146D01*
X111398084Y-70722277D01*
X111599614Y-71023888D01*
X111856112Y-71280386D01*
X112157723Y-71481916D01*
X112492854Y-71620732D01*
X112848628Y-71691500D01*
X113211372Y-71691500D01*
X113567146Y-71620732D01*
X113902277Y-71481916D01*
X114203888Y-71280386D01*
X114351663Y-71132611D01*
X117006994Y-71132611D01*
X117127666Y-71418132D01*
X117452469Y-71579645D01*
X117802540Y-71674688D01*
X118164427Y-71699610D01*
X118524222Y-71653452D01*
X118868099Y-71537988D01*
X119092334Y-71418132D01*
X119213006Y-71132611D01*
X118110000Y-70029605D01*
X117006994Y-71132611D01*
X114351663Y-71132611D01*
X114460386Y-71023888D01*
X114661916Y-70722277D01*
X114800732Y-70387146D01*
X114871500Y-70031372D01*
X114871500Y-69904427D01*
X116260390Y-69904427D01*
X116306548Y-70264222D01*
X116422012Y-70608099D01*
X116541868Y-70832334D01*
X116827389Y-70953006D01*
X117930395Y-69850000D01*
X118289605Y-69850000D01*
X119392611Y-70953006D01*
X119678132Y-70832334D01*
X119839645Y-70507531D01*
X119934688Y-70157460D01*
X119959610Y-69795573D01*
X119943325Y-69668628D01*
X126428500Y-69668628D01*
X126428500Y-70031372D01*
X126499268Y-70387146D01*
X126638084Y-70722277D01*
X126839614Y-71023888D01*
X127096112Y-71280386D01*
X127397723Y-71481916D01*
X127732854Y-71620732D01*
X128088628Y-71691500D01*
X128451372Y-71691500D01*
X128807146Y-71620732D01*
X129142277Y-71481916D01*
X129443888Y-71280386D01*
X129591663Y-71132611D01*
X132246994Y-71132611D01*
X132367666Y-71418132D01*
X132692469Y-71579645D01*
X133042540Y-71674688D01*
X133404427Y-71699610D01*
X133764222Y-71653452D01*
X134108099Y-71537988D01*
X134332334Y-71418132D01*
X134453006Y-71132611D01*
X133350000Y-70029605D01*
X132246994Y-71132611D01*
X129591663Y-71132611D01*
X129700386Y-71023888D01*
X129901916Y-70722277D01*
X130040732Y-70387146D01*
X130111500Y-70031372D01*
X130111500Y-69904427D01*
X131500390Y-69904427D01*
X131546548Y-70264222D01*
X131662012Y-70608099D01*
X131781868Y-70832334D01*
X132067389Y-70953006D01*
X133170395Y-69850000D01*
X133529605Y-69850000D01*
X134632611Y-70953006D01*
X134918132Y-70832334D01*
X135079645Y-70507531D01*
X135174688Y-70157460D01*
X135199610Y-69795573D01*
X135153452Y-69435778D01*
X135037988Y-69091901D01*
X134918132Y-68867666D01*
X134632611Y-68746994D01*
X133529605Y-69850000D01*
X133170395Y-69850000D01*
X132067389Y-68746994D01*
X131781868Y-68867666D01*
X131620355Y-69192469D01*
X131525312Y-69542540D01*
X131500390Y-69904427D01*
X130111500Y-69904427D01*
X130111500Y-69668628D01*
X130040732Y-69312854D01*
X129901916Y-68977723D01*
X129700386Y-68676112D01*
X129591663Y-68567389D01*
X132246994Y-68567389D01*
X133350000Y-69670395D01*
X134453006Y-68567389D01*
X134332334Y-68281868D01*
X134007531Y-68120355D01*
X133657460Y-68025312D01*
X133295573Y-68000390D01*
X132935778Y-68046548D01*
X132591901Y-68162012D01*
X132367666Y-68281868D01*
X132246994Y-68567389D01*
X129591663Y-68567389D01*
X129443888Y-68419614D01*
X129142277Y-68218084D01*
X128807146Y-68079268D01*
X128451372Y-68008500D01*
X128088628Y-68008500D01*
X127732854Y-68079268D01*
X127397723Y-68218084D01*
X127096112Y-68419614D01*
X126839614Y-68676112D01*
X126638084Y-68977723D01*
X126499268Y-69312854D01*
X126428500Y-69668628D01*
X119943325Y-69668628D01*
X119913452Y-69435778D01*
X119797988Y-69091901D01*
X119678132Y-68867666D01*
X119392611Y-68746994D01*
X118289605Y-69850000D01*
X117930395Y-69850000D01*
X116827389Y-68746994D01*
X116541868Y-68867666D01*
X116380355Y-69192469D01*
X116285312Y-69542540D01*
X116260390Y-69904427D01*
X114871500Y-69904427D01*
X114871500Y-69668628D01*
X114800732Y-69312854D01*
X114661916Y-68977723D01*
X114460386Y-68676112D01*
X114351663Y-68567389D01*
X117006994Y-68567389D01*
X118110000Y-69670395D01*
X119213006Y-68567389D01*
X119092334Y-68281868D01*
X118767531Y-68120355D01*
X118417460Y-68025312D01*
X118055573Y-68000390D01*
X117695778Y-68046548D01*
X117351901Y-68162012D01*
X117127666Y-68281868D01*
X117006994Y-68567389D01*
X114351663Y-68567389D01*
X114203888Y-68419614D01*
X113902277Y-68218084D01*
X113567146Y-68079268D01*
X113211372Y-68008500D01*
X112848628Y-68008500D01*
X112492854Y-68079268D01*
X112157723Y-68218084D01*
X111856112Y-68419614D01*
X111599614Y-68676112D01*
X111398084Y-68977723D01*
X111259268Y-69312854D01*
X111188500Y-69668628D01*
X108193002Y-69668628D01*
X110551631Y-67310000D01*
X115657159Y-67310000D01*
X115684338Y-67337179D01*
X115850744Y-67448368D01*
X116035644Y-67524956D01*
X116231933Y-67564000D01*
X116432067Y-67564000D01*
X116628356Y-67524956D01*
X116813256Y-67448368D01*
X116979662Y-67337179D01*
X117121179Y-67195662D01*
X117232368Y-67029256D01*
X117308956Y-66844356D01*
X117348000Y-66648067D01*
X117348000Y-66447933D01*
X117308956Y-66251644D01*
X117232368Y-66066744D01*
X117121179Y-65900338D01*
X116979662Y-65758821D01*
X116813256Y-65647632D01*
X116628356Y-65571044D01*
X116432067Y-65532000D01*
X116231933Y-65532000D01*
X116035644Y-65571044D01*
X115850744Y-65647632D01*
X115684338Y-65758821D01*
X115657159Y-65786000D01*
X110273422Y-65786000D01*
X110235999Y-65782314D01*
X110198576Y-65786000D01*
X110198574Y-65786000D01*
X110086622Y-65797026D01*
X109942985Y-65840598D01*
X109810608Y-65911355D01*
X109694578Y-66006578D01*
X109670721Y-66035648D01*
X103570370Y-72136000D01*
X102020841Y-72136000D01*
X101993662Y-72108821D01*
X101827256Y-71997632D01*
X101642356Y-71921044D01*
X101446067Y-71882000D01*
X101245933Y-71882000D01*
X101049644Y-71921044D01*
X100864744Y-71997632D01*
X100698338Y-72108821D01*
X100556821Y-72250338D01*
X100445632Y-72416744D01*
X100369044Y-72601644D01*
X100330000Y-72797933D01*
X93887697Y-72797933D01*
X95000353Y-71685278D01*
X95029422Y-71661422D01*
X95124645Y-71545392D01*
X95195402Y-71413015D01*
X95238974Y-71269378D01*
X95250000Y-71157426D01*
X95250000Y-71157424D01*
X95253686Y-71120001D01*
X95250000Y-71082578D01*
X95250000Y-69668628D01*
X95948500Y-69668628D01*
X95948500Y-70031372D01*
X96019268Y-70387146D01*
X96158084Y-70722277D01*
X96359614Y-71023888D01*
X96616112Y-71280386D01*
X96917723Y-71481916D01*
X97252854Y-71620732D01*
X97608628Y-71691500D01*
X97971372Y-71691500D01*
X98327146Y-71620732D01*
X98662277Y-71481916D01*
X98963888Y-71280386D01*
X99111663Y-71132611D01*
X101766994Y-71132611D01*
X101887666Y-71418132D01*
X102212469Y-71579645D01*
X102562540Y-71674688D01*
X102924427Y-71699610D01*
X103284222Y-71653452D01*
X103628099Y-71537988D01*
X103852334Y-71418132D01*
X103973006Y-71132611D01*
X102870000Y-70029605D01*
X101766994Y-71132611D01*
X99111663Y-71132611D01*
X99220386Y-71023888D01*
X99421916Y-70722277D01*
X99560732Y-70387146D01*
X99631500Y-70031372D01*
X99631500Y-69904427D01*
X101020390Y-69904427D01*
X101066548Y-70264222D01*
X101182012Y-70608099D01*
X101301868Y-70832334D01*
X101587389Y-70953006D01*
X102690395Y-69850000D01*
X103049605Y-69850000D01*
X104152611Y-70953006D01*
X104438132Y-70832334D01*
X104599645Y-70507531D01*
X104694688Y-70157460D01*
X104719610Y-69795573D01*
X104673452Y-69435778D01*
X104557988Y-69091901D01*
X104438132Y-68867666D01*
X104152611Y-68746994D01*
X103049605Y-69850000D01*
X102690395Y-69850000D01*
X101587389Y-68746994D01*
X101301868Y-68867666D01*
X101140355Y-69192469D01*
X101045312Y-69542540D01*
X101020390Y-69904427D01*
X99631500Y-69904427D01*
X99631500Y-69668628D01*
X99560732Y-69312854D01*
X99421916Y-68977723D01*
X99220386Y-68676112D01*
X99111663Y-68567389D01*
X101766994Y-68567389D01*
X102870000Y-69670395D01*
X103973006Y-68567389D01*
X103852334Y-68281868D01*
X103527531Y-68120355D01*
X103177460Y-68025312D01*
X102815573Y-68000390D01*
X102455778Y-68046548D01*
X102111901Y-68162012D01*
X101887666Y-68281868D01*
X101766994Y-68567389D01*
X99111663Y-68567389D01*
X98963888Y-68419614D01*
X98662277Y-68218084D01*
X98327146Y-68079268D01*
X97971372Y-68008500D01*
X97608628Y-68008500D01*
X97252854Y-68079268D01*
X96917723Y-68218084D01*
X96616112Y-68419614D01*
X96359614Y-68676112D01*
X96158084Y-68977723D01*
X96019268Y-69312854D01*
X95948500Y-69668628D01*
X95250000Y-69668628D01*
X95250000Y-67117630D01*
X98736265Y-63631366D01*
X98778691Y-63644236D01*
X98989508Y-63665000D01*
X99130492Y-63665000D01*
X99341309Y-63644236D01*
X99383736Y-63631366D01*
X100907721Y-65155352D01*
X100931579Y-65184423D01*
X101047609Y-65279646D01*
X101179986Y-65350403D01*
X101323623Y-65393975D01*
X101435575Y-65405001D01*
X101435577Y-65405001D01*
X101473000Y-65408687D01*
X101510423Y-65405001D01*
X119708105Y-65405001D01*
X119749632Y-65505256D01*
X119860821Y-65671662D01*
X120002338Y-65813179D01*
X120168744Y-65924368D01*
X120353644Y-66000956D01*
X120549933Y-66040000D01*
X120750067Y-66040000D01*
X120946356Y-66000956D01*
X121131256Y-65924368D01*
X121297662Y-65813179D01*
X121439179Y-65671662D01*
X121550368Y-65505256D01*
X121626956Y-65320356D01*
X121666000Y-65124067D01*
X121666000Y-64923933D01*
X121626956Y-64727644D01*
X121550368Y-64542744D01*
X121439179Y-64376338D01*
X121297662Y-64234821D01*
X121131256Y-64123632D01*
X120946356Y-64047044D01*
X120750067Y-64008000D01*
X120696396Y-64008000D01*
X120694393Y-64006356D01*
X120562016Y-63935599D01*
X120418379Y-63892027D01*
X120306427Y-63881001D01*
X120306424Y-63881001D01*
X120269001Y-63877315D01*
X120231578Y-63881001D01*
X101788632Y-63881001D01*
X101572631Y-63665000D01*
X101670492Y-63665000D01*
X101881309Y-63644236D01*
X102151808Y-63562182D01*
X102401101Y-63428932D01*
X102619608Y-63249608D01*
X102798932Y-63031101D01*
X102870000Y-62898142D01*
X102941068Y-63031101D01*
X103120392Y-63249608D01*
X103338899Y-63428932D01*
X103588192Y-63562182D01*
X103858691Y-63644236D01*
X104069508Y-63665000D01*
X104210492Y-63665000D01*
X104421309Y-63644236D01*
X104691808Y-63562182D01*
X104941101Y-63428932D01*
X105159608Y-63249608D01*
X105338932Y-63031101D01*
X105412579Y-62893318D01*
X105527615Y-63085131D01*
X105716586Y-63293519D01*
X105942580Y-63461037D01*
X106196913Y-63581246D01*
X106330961Y-63621904D01*
X106553000Y-63499915D01*
X106553000Y-62357000D01*
X106533000Y-62357000D01*
X106533000Y-62103000D01*
X106553000Y-62103000D01*
X106553000Y-60960085D01*
X106807000Y-60960085D01*
X106807000Y-62103000D01*
X106827000Y-62103000D01*
X106827000Y-62357000D01*
X106807000Y-62357000D01*
X106807000Y-63499915D01*
X107029039Y-63621904D01*
X107163087Y-63581246D01*
X107417420Y-63461037D01*
X107643414Y-63293519D01*
X107832385Y-63085131D01*
X107947421Y-62893318D01*
X108021068Y-63031101D01*
X108200392Y-63249608D01*
X108418899Y-63428932D01*
X108668192Y-63562182D01*
X108938691Y-63644236D01*
X109149508Y-63665000D01*
X109290492Y-63665000D01*
X109501309Y-63644236D01*
X109771808Y-63562182D01*
X110021101Y-63428932D01*
X110239608Y-63249608D01*
X110418932Y-63031101D01*
X110490000Y-62898142D01*
X110561068Y-63031101D01*
X110740392Y-63249608D01*
X110958899Y-63428932D01*
X111208192Y-63562182D01*
X111478691Y-63644236D01*
X111689508Y-63665000D01*
X111830492Y-63665000D01*
X112041309Y-63644236D01*
X112311808Y-63562182D01*
X112561101Y-63428932D01*
X112779608Y-63249608D01*
X112958932Y-63031101D01*
X113030000Y-62898142D01*
X113101068Y-63031101D01*
X113280392Y-63249608D01*
X113498899Y-63428932D01*
X113748192Y-63562182D01*
X114018691Y-63644236D01*
X114229508Y-63665000D01*
X114370492Y-63665000D01*
X114581309Y-63644236D01*
X114851808Y-63562182D01*
X115101101Y-63428932D01*
X115319608Y-63249608D01*
X115498932Y-63031101D01*
X115570000Y-62898142D01*
X115641068Y-63031101D01*
X115820392Y-63249608D01*
X116038899Y-63428932D01*
X116288192Y-63562182D01*
X116558691Y-63644236D01*
X116769508Y-63665000D01*
X116910492Y-63665000D01*
X117121309Y-63644236D01*
X117391808Y-63562182D01*
X117641101Y-63428932D01*
X117859608Y-63249608D01*
X118038932Y-63031101D01*
X118110000Y-62898142D01*
X118181068Y-63031101D01*
X118360392Y-63249608D01*
X118578899Y-63428932D01*
X118828192Y-63562182D01*
X119098691Y-63644236D01*
X119309508Y-63665000D01*
X119450492Y-63665000D01*
X119661309Y-63644236D01*
X119931808Y-63562182D01*
X120181101Y-63428932D01*
X120399608Y-63249608D01*
X120578932Y-63031101D01*
X120650000Y-62898142D01*
X120721068Y-63031101D01*
X120900392Y-63249608D01*
X121118899Y-63428932D01*
X121368192Y-63562182D01*
X121638691Y-63644236D01*
X121849508Y-63665000D01*
X121990492Y-63665000D01*
X122201309Y-63644236D01*
X122471808Y-63562182D01*
X122721101Y-63428932D01*
X122939608Y-63249608D01*
X123118932Y-63031101D01*
X123224361Y-62833857D01*
X143161226Y-62833857D01*
X143211643Y-63283335D01*
X143348404Y-63714460D01*
X143566299Y-64110811D01*
X143857030Y-64457290D01*
X144209522Y-64740701D01*
X144610349Y-64950249D01*
X145044244Y-65077951D01*
X145494679Y-65118944D01*
X145944498Y-65071666D01*
X146376567Y-64937918D01*
X146774430Y-64722795D01*
X147122930Y-64434490D01*
X147408795Y-64083985D01*
X147621135Y-63684631D01*
X147751864Y-63251638D01*
X147796000Y-62801500D01*
X147795096Y-62736792D01*
X147738409Y-62288061D01*
X147595642Y-61858888D01*
X147372233Y-61465618D01*
X147076693Y-61123232D01*
X146720279Y-60844770D01*
X146316565Y-60640840D01*
X145880930Y-60519208D01*
X145429966Y-60484508D01*
X144980851Y-60538062D01*
X144550691Y-60677829D01*
X144155871Y-60898487D01*
X143811430Y-61191629D01*
X143530487Y-61546091D01*
X143323743Y-61948371D01*
X143199073Y-62383147D01*
X143161226Y-62833857D01*
X123224361Y-62833857D01*
X123252182Y-62781808D01*
X123334236Y-62511309D01*
X123361943Y-62230000D01*
X123334236Y-61948691D01*
X123252182Y-61678192D01*
X123118932Y-61428899D01*
X122939608Y-61210392D01*
X122721101Y-61031068D01*
X122471808Y-60897818D01*
X122201309Y-60815764D01*
X121990492Y-60795000D01*
X121849508Y-60795000D01*
X121638691Y-60815764D01*
X121368192Y-60897818D01*
X121118899Y-61031068D01*
X120900392Y-61210392D01*
X120721068Y-61428899D01*
X120650000Y-61561858D01*
X120578932Y-61428899D01*
X120399608Y-61210392D01*
X120181101Y-61031068D01*
X119931808Y-60897818D01*
X119661309Y-60815764D01*
X119450492Y-60795000D01*
X119309508Y-60795000D01*
X119098691Y-60815764D01*
X118828192Y-60897818D01*
X118578899Y-61031068D01*
X118360392Y-61210392D01*
X118181068Y-61428899D01*
X118110000Y-61561858D01*
X118038932Y-61428899D01*
X117859608Y-61210392D01*
X117641101Y-61031068D01*
X117391808Y-60897818D01*
X117121309Y-60815764D01*
X116910492Y-60795000D01*
X116769508Y-60795000D01*
X116558691Y-60815764D01*
X116288192Y-60897818D01*
X116038899Y-61031068D01*
X115820392Y-61210392D01*
X115641068Y-61428899D01*
X115570000Y-61561858D01*
X115498932Y-61428899D01*
X115319608Y-61210392D01*
X115101101Y-61031068D01*
X114851808Y-60897818D01*
X114581309Y-60815764D01*
X114370492Y-60795000D01*
X114229508Y-60795000D01*
X114018691Y-60815764D01*
X113748192Y-60897818D01*
X113498899Y-61031068D01*
X113280392Y-61210392D01*
X113101068Y-61428899D01*
X113030000Y-61561858D01*
X112958932Y-61428899D01*
X112779608Y-61210392D01*
X112561101Y-61031068D01*
X112311808Y-60897818D01*
X112041309Y-60815764D01*
X111830492Y-60795000D01*
X111732630Y-60795000D01*
X113345630Y-59182000D01*
X129853427Y-59182000D01*
X129934201Y-59302886D01*
X130127114Y-59495799D01*
X130248001Y-59576573D01*
X130248001Y-59682369D01*
X129732370Y-60198000D01*
X129693933Y-60198000D01*
X129497644Y-60237044D01*
X129312744Y-60313632D01*
X129146338Y-60424821D01*
X129004821Y-60566338D01*
X128893632Y-60732744D01*
X128817044Y-60917644D01*
X128778000Y-61113933D01*
X128778000Y-61314067D01*
X128817044Y-61510356D01*
X128893632Y-61695256D01*
X129004821Y-61861662D01*
X129146338Y-62003179D01*
X129312744Y-62114368D01*
X129497644Y-62190956D01*
X129693933Y-62230000D01*
X129894067Y-62230000D01*
X130090356Y-62190956D01*
X130275256Y-62114368D01*
X130441662Y-62003179D01*
X130583179Y-61861662D01*
X130694368Y-61695256D01*
X130770956Y-61510356D01*
X130810000Y-61314067D01*
X130810000Y-61275630D01*
X131522346Y-60563284D01*
X131551422Y-60539422D01*
X131632216Y-60440974D01*
X131646645Y-60423393D01*
X131717401Y-60291016D01*
X131717402Y-60291015D01*
X131760974Y-60147377D01*
X131772000Y-60035425D01*
X131772000Y-60035423D01*
X131775686Y-59998000D01*
X131772000Y-59960577D01*
X131772000Y-59576573D01*
X131892886Y-59495799D01*
X132085799Y-59302886D01*
X132237371Y-59076043D01*
X132341775Y-58823989D01*
X132395000Y-58556411D01*
X132395000Y-58283589D01*
X134505000Y-58283589D01*
X134505000Y-58556411D01*
X134558225Y-58823989D01*
X134662629Y-59076043D01*
X134814201Y-59302886D01*
X135007114Y-59495799D01*
X135233957Y-59647371D01*
X135486011Y-59751775D01*
X135753589Y-59805000D01*
X136026411Y-59805000D01*
X136293989Y-59751775D01*
X136546043Y-59647371D01*
X136772886Y-59495799D01*
X136965799Y-59302886D01*
X137117371Y-59076043D01*
X137221775Y-58823989D01*
X137275000Y-58556411D01*
X137275000Y-58283589D01*
X137221775Y-58016011D01*
X137117371Y-57763957D01*
X136965799Y-57537114D01*
X136772886Y-57344201D01*
X136546043Y-57192629D01*
X136293989Y-57088225D01*
X136026411Y-57035000D01*
X135753589Y-57035000D01*
X135486011Y-57088225D01*
X135233957Y-57192629D01*
X135007114Y-57344201D01*
X134814201Y-57537114D01*
X134662629Y-57763957D01*
X134558225Y-58016011D01*
X134505000Y-58283589D01*
X132395000Y-58283589D01*
X132341775Y-58016011D01*
X132237371Y-57763957D01*
X132085799Y-57537114D01*
X131892886Y-57344201D01*
X131666043Y-57192629D01*
X131413989Y-57088225D01*
X131146411Y-57035000D01*
X130873589Y-57035000D01*
X130606011Y-57088225D01*
X130353957Y-57192629D01*
X130127114Y-57344201D01*
X129934201Y-57537114D01*
X129853427Y-57658000D01*
X113067423Y-57658000D01*
X113030000Y-57654314D01*
X112992577Y-57658000D01*
X112992574Y-57658000D01*
X112880622Y-57669026D01*
X112736985Y-57712598D01*
X112675364Y-57745535D01*
X112604607Y-57783355D01*
X112577757Y-57805391D01*
X112488578Y-57878578D01*
X112464716Y-57907654D01*
X109543736Y-60828634D01*
X109501309Y-60815764D01*
X109290492Y-60795000D01*
X109149508Y-60795000D01*
X108938691Y-60815764D01*
X108668192Y-60897818D01*
X108418899Y-61031068D01*
X108200392Y-61210392D01*
X108021068Y-61428899D01*
X107947421Y-61566682D01*
X107832385Y-61374869D01*
X107643414Y-61166481D01*
X107417420Y-60998963D01*
X107163087Y-60878754D01*
X107029039Y-60838096D01*
X106807000Y-60960085D01*
X106553000Y-60960085D01*
X106330961Y-60838096D01*
X106196913Y-60878754D01*
X105942580Y-60998963D01*
X105716586Y-61166481D01*
X105527615Y-61374869D01*
X105412579Y-61566682D01*
X105338932Y-61428899D01*
X105159608Y-61210392D01*
X104941101Y-61031068D01*
X104691808Y-60897818D01*
X104421309Y-60815764D01*
X104210492Y-60795000D01*
X104069508Y-60795000D01*
X103858691Y-60815764D01*
X103588192Y-60897818D01*
X103338899Y-61031068D01*
X103120392Y-61210392D01*
X102941068Y-61428899D01*
X102870000Y-61561858D01*
X102798932Y-61428899D01*
X102619608Y-61210392D01*
X102401101Y-61031068D01*
X102151808Y-60897818D01*
X101881309Y-60815764D01*
X101670492Y-60795000D01*
X101529508Y-60795000D01*
X101318691Y-60815764D01*
X101048192Y-60897818D01*
X100798899Y-61031068D01*
X100580392Y-61210392D01*
X100401068Y-61428899D01*
X100330000Y-61561858D01*
X100258932Y-61428899D01*
X100079608Y-61210392D01*
X99861101Y-61031068D01*
X99611808Y-60897818D01*
X99341309Y-60815764D01*
X99130492Y-60795000D01*
X98989508Y-60795000D01*
X98778691Y-60815764D01*
X98508192Y-60897818D01*
X98258899Y-61031068D01*
X98040392Y-61210392D01*
X97861068Y-61428899D01*
X97790000Y-61561858D01*
X97718932Y-61428899D01*
X97539608Y-61210392D01*
X97321101Y-61031068D01*
X97143572Y-60936177D01*
X97627749Y-60452000D01*
X108291159Y-60452000D01*
X108318338Y-60479179D01*
X108484744Y-60590368D01*
X108669644Y-60666956D01*
X108865933Y-60706000D01*
X109066067Y-60706000D01*
X109262356Y-60666956D01*
X109447256Y-60590368D01*
X109613662Y-60479179D01*
X109755179Y-60337662D01*
X109866368Y-60171256D01*
X109942956Y-59986356D01*
X109982000Y-59790067D01*
X109982000Y-59589933D01*
X109942956Y-59393644D01*
X109866368Y-59208744D01*
X109755179Y-59042338D01*
X109613662Y-58900821D01*
X109447256Y-58789632D01*
X109262356Y-58713044D01*
X109066067Y-58674000D01*
X108865933Y-58674000D01*
X108669644Y-58713044D01*
X108484744Y-58789632D01*
X108318338Y-58900821D01*
X108291159Y-58928000D01*
X97349541Y-58928000D01*
X97312118Y-58924314D01*
X97274695Y-58928000D01*
X97274692Y-58928000D01*
X97162740Y-58939026D01*
X97019103Y-58982598D01*
X96957482Y-59015535D01*
X96886725Y-59053355D01*
X96806778Y-59118966D01*
X96770696Y-59148578D01*
X96746839Y-59177648D01*
X94842792Y-61081696D01*
X94781101Y-61031068D01*
X94531808Y-60897818D01*
X94261309Y-60815764D01*
X94050492Y-60795000D01*
X93909508Y-60795000D01*
X93698691Y-60815764D01*
X93428192Y-60897818D01*
X93178899Y-61031068D01*
X92960392Y-61210392D01*
X92781068Y-61428899D01*
X92710000Y-61561858D01*
X92638932Y-61428899D01*
X92459608Y-61210392D01*
X92241101Y-61031068D01*
X91991808Y-60897818D01*
X91721309Y-60815764D01*
X91510492Y-60795000D01*
X91369508Y-60795000D01*
X91158691Y-60815764D01*
X90888192Y-60897818D01*
X90638899Y-61031068D01*
X90420392Y-61210392D01*
X90327581Y-61323482D01*
X90325812Y-61305518D01*
X90289502Y-61185820D01*
X90230537Y-61075506D01*
X90151185Y-60978815D01*
X90054494Y-60899463D01*
X89944180Y-60840498D01*
X89824482Y-60804188D01*
X89700000Y-60791928D01*
X88100000Y-60791928D01*
X87975518Y-60804188D01*
X87855820Y-60840498D01*
X87745506Y-60899463D01*
X87648815Y-60978815D01*
X87569463Y-61075506D01*
X87510498Y-61185820D01*
X87474188Y-61305518D01*
X87461928Y-61430000D01*
X87461928Y-63030000D01*
X87474188Y-63154482D01*
X87510498Y-63274180D01*
X87569463Y-63384494D01*
X87648815Y-63481185D01*
X87745506Y-63560537D01*
X87855820Y-63619502D01*
X87975518Y-63655812D01*
X88100000Y-63668072D01*
X88924298Y-63668072D01*
X88330370Y-64262000D01*
X82416498Y-64262000D01*
X82434368Y-64235256D01*
X82510956Y-64050356D01*
X82550000Y-63854067D01*
X82550000Y-63653933D01*
X82510956Y-63457644D01*
X82434368Y-63272744D01*
X82323179Y-63106338D01*
X82296000Y-63079159D01*
X82296000Y-54610000D01*
X87458057Y-54610000D01*
X87485764Y-54891309D01*
X87567818Y-55161808D01*
X87701068Y-55411101D01*
X87880392Y-55629608D01*
X88098899Y-55808932D01*
X88348192Y-55942182D01*
X88618691Y-56024236D01*
X88829508Y-56045000D01*
X88970492Y-56045000D01*
X89181309Y-56024236D01*
X89451808Y-55942182D01*
X89701101Y-55808932D01*
X89919608Y-55629608D01*
X90098932Y-55411101D01*
X90170000Y-55278142D01*
X90241068Y-55411101D01*
X90420392Y-55629608D01*
X90638899Y-55808932D01*
X90888192Y-55942182D01*
X91158691Y-56024236D01*
X91369508Y-56045000D01*
X91510492Y-56045000D01*
X91721309Y-56024236D01*
X91991808Y-55942182D01*
X92241101Y-55808932D01*
X92459608Y-55629608D01*
X92638932Y-55411101D01*
X92710000Y-55278142D01*
X92781068Y-55411101D01*
X92960392Y-55629608D01*
X93178899Y-55808932D01*
X93428192Y-55942182D01*
X93698691Y-56024236D01*
X93909508Y-56045000D01*
X94050492Y-56045000D01*
X94261309Y-56024236D01*
X94531808Y-55942182D01*
X94781101Y-55808932D01*
X94999608Y-55629608D01*
X95178932Y-55411101D01*
X95250000Y-55278142D01*
X95321068Y-55411101D01*
X95500392Y-55629608D01*
X95718899Y-55808932D01*
X95968192Y-55942182D01*
X96238691Y-56024236D01*
X96449508Y-56045000D01*
X96590492Y-56045000D01*
X96801309Y-56024236D01*
X97071808Y-55942182D01*
X97321101Y-55808932D01*
X97539608Y-55629608D01*
X97718932Y-55411101D01*
X97790000Y-55278142D01*
X97861068Y-55411101D01*
X98040392Y-55629608D01*
X98258899Y-55808932D01*
X98508192Y-55942182D01*
X98778691Y-56024236D01*
X98989508Y-56045000D01*
X99130492Y-56045000D01*
X99341309Y-56024236D01*
X99611808Y-55942182D01*
X99861101Y-55808932D01*
X100079608Y-55629608D01*
X100258932Y-55411101D01*
X100330000Y-55278142D01*
X100401068Y-55411101D01*
X100580392Y-55629608D01*
X100798899Y-55808932D01*
X101048192Y-55942182D01*
X101318691Y-56024236D01*
X101529508Y-56045000D01*
X101670492Y-56045000D01*
X101881309Y-56024236D01*
X102151808Y-55942182D01*
X102401101Y-55808932D01*
X102619608Y-55629608D01*
X102798932Y-55411101D01*
X102872579Y-55273318D01*
X102987615Y-55465131D01*
X103176586Y-55673519D01*
X103402580Y-55841037D01*
X103656913Y-55961246D01*
X103790961Y-56001904D01*
X104013000Y-55879915D01*
X104013000Y-54737000D01*
X103993000Y-54737000D01*
X103993000Y-54483000D01*
X104013000Y-54483000D01*
X104013000Y-53340085D01*
X103790961Y-53218096D01*
X103656913Y-53258754D01*
X103402580Y-53378963D01*
X103176586Y-53546481D01*
X102987615Y-53754869D01*
X102872579Y-53946682D01*
X102798932Y-53808899D01*
X102619608Y-53590392D01*
X102401101Y-53411068D01*
X102151808Y-53277818D01*
X101881309Y-53195764D01*
X101670492Y-53175000D01*
X101529508Y-53175000D01*
X101318691Y-53195764D01*
X101048192Y-53277818D01*
X100798899Y-53411068D01*
X100580392Y-53590392D01*
X100401068Y-53808899D01*
X100330000Y-53941858D01*
X100258932Y-53808899D01*
X100079608Y-53590392D01*
X99861101Y-53411068D01*
X99611808Y-53277818D01*
X99341309Y-53195764D01*
X99130492Y-53175000D01*
X98989508Y-53175000D01*
X98778691Y-53195764D01*
X98508192Y-53277818D01*
X98258899Y-53411068D01*
X98040392Y-53590392D01*
X97861068Y-53808899D01*
X97790000Y-53941858D01*
X97718932Y-53808899D01*
X97539608Y-53590392D01*
X97321101Y-53411068D01*
X97071808Y-53277818D01*
X96801309Y-53195764D01*
X96590492Y-53175000D01*
X96449508Y-53175000D01*
X96238691Y-53195764D01*
X95968192Y-53277818D01*
X95718899Y-53411068D01*
X95500392Y-53590392D01*
X95321068Y-53808899D01*
X95250000Y-53941858D01*
X95178932Y-53808899D01*
X94999608Y-53590392D01*
X94781101Y-53411068D01*
X94531808Y-53277818D01*
X94261309Y-53195764D01*
X94050492Y-53175000D01*
X93909508Y-53175000D01*
X93698691Y-53195764D01*
X93428192Y-53277818D01*
X93178899Y-53411068D01*
X92960392Y-53590392D01*
X92781068Y-53808899D01*
X92710000Y-53941858D01*
X92638932Y-53808899D01*
X92459608Y-53590392D01*
X92241101Y-53411068D01*
X91991808Y-53277818D01*
X91721309Y-53195764D01*
X91510492Y-53175000D01*
X91369508Y-53175000D01*
X91158691Y-53195764D01*
X90888192Y-53277818D01*
X90638899Y-53411068D01*
X90420392Y-53590392D01*
X90241068Y-53808899D01*
X90170000Y-53941858D01*
X90098932Y-53808899D01*
X89919608Y-53590392D01*
X89701101Y-53411068D01*
X89451808Y-53277818D01*
X89181309Y-53195764D01*
X88970492Y-53175000D01*
X88829508Y-53175000D01*
X88618691Y-53195764D01*
X88348192Y-53277818D01*
X88098899Y-53411068D01*
X87880392Y-53590392D01*
X87701068Y-53808899D01*
X87567818Y-54058192D01*
X87485764Y-54328691D01*
X87458057Y-54610000D01*
X82296000Y-54610000D01*
X82296000Y-54163630D01*
X83373631Y-53086000D01*
X114238370Y-53086000D01*
X114327370Y-53175000D01*
X114229508Y-53175000D01*
X114018691Y-53195764D01*
X113748192Y-53277818D01*
X113498899Y-53411068D01*
X113280392Y-53590392D01*
X113101068Y-53808899D01*
X113030000Y-53941858D01*
X112958932Y-53808899D01*
X112779608Y-53590392D01*
X112561101Y-53411068D01*
X112311808Y-53277818D01*
X112041309Y-53195764D01*
X111830492Y-53175000D01*
X111689508Y-53175000D01*
X111478691Y-53195764D01*
X111208192Y-53277818D01*
X110958899Y-53411068D01*
X110740392Y-53590392D01*
X110561068Y-53808899D01*
X110490000Y-53941858D01*
X110418932Y-53808899D01*
X110239608Y-53590392D01*
X110021101Y-53411068D01*
X109771808Y-53277818D01*
X109501309Y-53195764D01*
X109290492Y-53175000D01*
X109149508Y-53175000D01*
X108938691Y-53195764D01*
X108668192Y-53277818D01*
X108418899Y-53411068D01*
X108200392Y-53590392D01*
X108021068Y-53808899D01*
X107950000Y-53941858D01*
X107878932Y-53808899D01*
X107699608Y-53590392D01*
X107481101Y-53411068D01*
X107231808Y-53277818D01*
X106961309Y-53195764D01*
X106750492Y-53175000D01*
X106609508Y-53175000D01*
X106398691Y-53195764D01*
X106128192Y-53277818D01*
X105878899Y-53411068D01*
X105660392Y-53590392D01*
X105481068Y-53808899D01*
X105407421Y-53946682D01*
X105292385Y-53754869D01*
X105103414Y-53546481D01*
X104877420Y-53378963D01*
X104623087Y-53258754D01*
X104489039Y-53218096D01*
X104267000Y-53340085D01*
X104267000Y-54483000D01*
X104287000Y-54483000D01*
X104287000Y-54737000D01*
X104267000Y-54737000D01*
X104267000Y-55879915D01*
X104489039Y-56001904D01*
X104623087Y-55961246D01*
X104877420Y-55841037D01*
X105103414Y-55673519D01*
X105292385Y-55465131D01*
X105407421Y-55273318D01*
X105481068Y-55411101D01*
X105660392Y-55629608D01*
X105878899Y-55808932D01*
X106128192Y-55942182D01*
X106398691Y-56024236D01*
X106609508Y-56045000D01*
X106750492Y-56045000D01*
X106961309Y-56024236D01*
X107231808Y-55942182D01*
X107481101Y-55808932D01*
X107699608Y-55629608D01*
X107878932Y-55411101D01*
X107950000Y-55278142D01*
X108021068Y-55411101D01*
X108200392Y-55629608D01*
X108418899Y-55808932D01*
X108668192Y-55942182D01*
X108938691Y-56024236D01*
X109149508Y-56045000D01*
X109290492Y-56045000D01*
X109501309Y-56024236D01*
X109771808Y-55942182D01*
X110021101Y-55808932D01*
X110239608Y-55629608D01*
X110418932Y-55411101D01*
X110490000Y-55278142D01*
X110561068Y-55411101D01*
X110740392Y-55629608D01*
X110958899Y-55808932D01*
X111208192Y-55942182D01*
X111478691Y-56024236D01*
X111689508Y-56045000D01*
X111830492Y-56045000D01*
X112041309Y-56024236D01*
X112311808Y-55942182D01*
X112561101Y-55808932D01*
X112779608Y-55629608D01*
X112958932Y-55411101D01*
X113030000Y-55278142D01*
X113101068Y-55411101D01*
X113280392Y-55629608D01*
X113498899Y-55808932D01*
X113748192Y-55942182D01*
X114018691Y-56024236D01*
X114229508Y-56045000D01*
X114370492Y-56045000D01*
X114581309Y-56024236D01*
X114851808Y-55942182D01*
X115101101Y-55808932D01*
X115319608Y-55629608D01*
X115498932Y-55411101D01*
X115570000Y-55278142D01*
X115641068Y-55411101D01*
X115820392Y-55629608D01*
X116038899Y-55808932D01*
X116288192Y-55942182D01*
X116558691Y-56024236D01*
X116769508Y-56045000D01*
X116910492Y-56045000D01*
X117121309Y-56024236D01*
X117391808Y-55942182D01*
X117641101Y-55808932D01*
X117859608Y-55629608D01*
X118038932Y-55411101D01*
X118110000Y-55278142D01*
X118181068Y-55411101D01*
X118360392Y-55629608D01*
X118578899Y-55808932D01*
X118828192Y-55942182D01*
X119098691Y-56024236D01*
X119309508Y-56045000D01*
X119450492Y-56045000D01*
X119661309Y-56024236D01*
X119931808Y-55942182D01*
X120181101Y-55808932D01*
X120399608Y-55629608D01*
X120578932Y-55411101D01*
X120650000Y-55278142D01*
X120721068Y-55411101D01*
X120900392Y-55629608D01*
X121118899Y-55808932D01*
X121368192Y-55942182D01*
X121638691Y-56024236D01*
X121849508Y-56045000D01*
X121990492Y-56045000D01*
X122201309Y-56024236D01*
X122471808Y-55942182D01*
X122721101Y-55808932D01*
X122890730Y-55669721D01*
X143915000Y-55669721D01*
X143915000Y-56090279D01*
X143997047Y-56502756D01*
X144157988Y-56891302D01*
X144391637Y-57240983D01*
X144689017Y-57538363D01*
X145038698Y-57772012D01*
X145427244Y-57932953D01*
X145839721Y-58015000D01*
X146260279Y-58015000D01*
X146672756Y-57932953D01*
X146787999Y-57885218D01*
X146788000Y-58866566D01*
X146784313Y-58903999D01*
X146799026Y-59053377D01*
X146842598Y-59197014D01*
X146913354Y-59329391D01*
X146970390Y-59398889D01*
X147008578Y-59445421D01*
X147037648Y-59469278D01*
X148590000Y-61021631D01*
X148590001Y-70602368D01*
X147427370Y-71765000D01*
X147203288Y-71765000D01*
X146974348Y-71810539D01*
X146758692Y-71899866D01*
X146564606Y-72029550D01*
X146399550Y-72194606D01*
X146269866Y-72388692D01*
X146180539Y-72604348D01*
X146135000Y-72833288D01*
X146135000Y-73066712D01*
X146180539Y-73295652D01*
X146269866Y-73511308D01*
X146399550Y-73705394D01*
X146564606Y-73870450D01*
X146758692Y-74000134D01*
X146974348Y-74089461D01*
X147203288Y-74135000D01*
X147436712Y-74135000D01*
X147665652Y-74089461D01*
X147881308Y-74000134D01*
X148075394Y-73870450D01*
X148240450Y-73705394D01*
X148370134Y-73511308D01*
X148459461Y-73295652D01*
X148505000Y-73066712D01*
X148505000Y-72842630D01*
X149864352Y-71483279D01*
X149893422Y-71459422D01*
X149927308Y-71418132D01*
X149988645Y-71343393D01*
X150059401Y-71211016D01*
X150059402Y-71211015D01*
X150102974Y-71067378D01*
X150114000Y-70955426D01*
X150114000Y-70955423D01*
X150117686Y-70918000D01*
X150114000Y-70880577D01*
X150114000Y-68801653D01*
X152357952Y-68801653D01*
X152513962Y-69117214D01*
X152888745Y-69308020D01*
X153293551Y-69422044D01*
X153712824Y-69454902D01*
X154130451Y-69405334D01*
X154530383Y-69275243D01*
X154826038Y-69117214D01*
X154982048Y-68801653D01*
X153670000Y-67489605D01*
X152357952Y-68801653D01*
X150114000Y-68801653D01*
X150114000Y-67352824D01*
X151525098Y-67352824D01*
X151574666Y-67770451D01*
X151704757Y-68170383D01*
X151862786Y-68466038D01*
X152178347Y-68622048D01*
X153490395Y-67310000D01*
X153849605Y-67310000D01*
X155161653Y-68622048D01*
X155477214Y-68466038D01*
X155668020Y-68091255D01*
X155782044Y-67686449D01*
X155814902Y-67267176D01*
X155765334Y-66849549D01*
X155635243Y-66449617D01*
X155477214Y-66153962D01*
X155161653Y-65997952D01*
X153849605Y-67310000D01*
X153490395Y-67310000D01*
X152178347Y-65997952D01*
X151862786Y-66153962D01*
X151671980Y-66528745D01*
X151557956Y-66933551D01*
X151525098Y-67352824D01*
X150114000Y-67352824D01*
X150114000Y-65818347D01*
X152357952Y-65818347D01*
X153670000Y-67130395D01*
X154982048Y-65818347D01*
X154826038Y-65502786D01*
X154451255Y-65311980D01*
X154046449Y-65197956D01*
X153627176Y-65165098D01*
X153209549Y-65214666D01*
X152809617Y-65344757D01*
X152513962Y-65502786D01*
X152357952Y-65818347D01*
X150114000Y-65818347D01*
X150114000Y-62019721D01*
X151535000Y-62019721D01*
X151535000Y-62440279D01*
X151617047Y-62852756D01*
X151777988Y-63241302D01*
X152011637Y-63590983D01*
X152309017Y-63888363D01*
X152658698Y-64122012D01*
X153047244Y-64282953D01*
X153459721Y-64365000D01*
X153880279Y-64365000D01*
X154292756Y-64282953D01*
X154681302Y-64122012D01*
X155030983Y-63888363D01*
X155328363Y-63590983D01*
X155562012Y-63241302D01*
X155722953Y-62852756D01*
X155805000Y-62440279D01*
X155805000Y-62019721D01*
X155722953Y-61607244D01*
X155562012Y-61218698D01*
X155328363Y-60869017D01*
X155030983Y-60571637D01*
X154681302Y-60337988D01*
X154292756Y-60177047D01*
X153880279Y-60095000D01*
X153459721Y-60095000D01*
X153047244Y-60177047D01*
X152658698Y-60337988D01*
X152309017Y-60571637D01*
X152011637Y-60869017D01*
X151777988Y-61218698D01*
X151617047Y-61607244D01*
X151535000Y-62019721D01*
X150114000Y-62019721D01*
X150114000Y-60743422D01*
X150117686Y-60705999D01*
X150114000Y-60668574D01*
X150102974Y-60556622D01*
X150059402Y-60412985D01*
X149988645Y-60280608D01*
X149893422Y-60164578D01*
X149864353Y-60140722D01*
X148311999Y-58588369D01*
X148311999Y-57417422D01*
X148315685Y-57379999D01*
X148311999Y-57342573D01*
X148300973Y-57230621D01*
X148257401Y-57086984D01*
X148186645Y-56954608D01*
X148186644Y-56954606D01*
X148115278Y-56867647D01*
X148091421Y-56838577D01*
X148062352Y-56814721D01*
X147999689Y-56752058D01*
X148102953Y-56502756D01*
X148185000Y-56090279D01*
X148185000Y-55669721D01*
X148102953Y-55257244D01*
X147942012Y-54868698D01*
X147708363Y-54519017D01*
X147410983Y-54221637D01*
X147061302Y-53987988D01*
X146672756Y-53827047D01*
X146260279Y-53745000D01*
X145839721Y-53745000D01*
X145427244Y-53827047D01*
X145038698Y-53987988D01*
X144689017Y-54221637D01*
X144391637Y-54519017D01*
X144157988Y-54868698D01*
X143997047Y-55257244D01*
X143915000Y-55669721D01*
X122890730Y-55669721D01*
X122939608Y-55629608D01*
X123118932Y-55411101D01*
X123252182Y-55161808D01*
X123334236Y-54891309D01*
X123361943Y-54610000D01*
X123334236Y-54328691D01*
X123252182Y-54058192D01*
X123118932Y-53808899D01*
X122939608Y-53590392D01*
X122721101Y-53411068D01*
X122471808Y-53277818D01*
X122201309Y-53195764D01*
X121990492Y-53175000D01*
X121849508Y-53175000D01*
X121638691Y-53195764D01*
X121368192Y-53277818D01*
X121118899Y-53411068D01*
X120900392Y-53590392D01*
X120721068Y-53808899D01*
X120650000Y-53941858D01*
X120578932Y-53808899D01*
X120399608Y-53590392D01*
X120181101Y-53411068D01*
X119931808Y-53277818D01*
X119661309Y-53195764D01*
X119450492Y-53175000D01*
X119309508Y-53175000D01*
X119098691Y-53195764D01*
X118828192Y-53277818D01*
X118578899Y-53411068D01*
X118360392Y-53590392D01*
X118181068Y-53808899D01*
X118110000Y-53941858D01*
X118038932Y-53808899D01*
X117859608Y-53590392D01*
X117641101Y-53411068D01*
X117391808Y-53277818D01*
X117121309Y-53195764D01*
X116910492Y-53175000D01*
X116769508Y-53175000D01*
X116558691Y-53195764D01*
X116516264Y-53208634D01*
X115119284Y-51811654D01*
X115095422Y-51782578D01*
X114979392Y-51687355D01*
X114847015Y-51616598D01*
X114703378Y-51573026D01*
X114591426Y-51562000D01*
X114591423Y-51562000D01*
X114554000Y-51558314D01*
X114516577Y-51562000D01*
X83095422Y-51562000D01*
X83057999Y-51558314D01*
X83020576Y-51562000D01*
X83020574Y-51562000D01*
X82908622Y-51573026D01*
X82764985Y-51616598D01*
X82632608Y-51687355D01*
X82516578Y-51782578D01*
X82492721Y-51811648D01*
X81021649Y-53282721D01*
X80992579Y-53306578D01*
X80968722Y-53335648D01*
X80968721Y-53335649D01*
X80897355Y-53422608D01*
X80826599Y-53554985D01*
X80783027Y-53698622D01*
X80768314Y-53848000D01*
X80772001Y-53885433D01*
X80772000Y-63079159D01*
X80744821Y-63106338D01*
X80633632Y-63272744D01*
X80557044Y-63457644D01*
X80518000Y-63653933D01*
X80518000Y-63854067D01*
X80557044Y-64050356D01*
X80633632Y-64235256D01*
X80651502Y-64262000D01*
X80264000Y-64262000D01*
X80264000Y-63029422D01*
X80267686Y-62991999D01*
X80264000Y-62954574D01*
X80252974Y-62842622D01*
X80209402Y-62698985D01*
X80138645Y-62566608D01*
X80043422Y-62450578D01*
X80014353Y-62426722D01*
X77641455Y-60053825D01*
X77663513Y-59981111D01*
X77692185Y-59690000D01*
X77663513Y-59398889D01*
X77578599Y-59118966D01*
X77440706Y-58860986D01*
X77255134Y-58634866D01*
X77029014Y-58449294D01*
X76974209Y-58420000D01*
X77029014Y-58390706D01*
X77255134Y-58205134D01*
X77440706Y-57979014D01*
X77578599Y-57721034D01*
X77663513Y-57441111D01*
X77692185Y-57150000D01*
X77663513Y-56858889D01*
X77578599Y-56578966D01*
X77440706Y-56320986D01*
X77255134Y-56094866D01*
X77029014Y-55909294D01*
X76964477Y-55874799D01*
X77081355Y-55805178D01*
X77297588Y-55610269D01*
X77471641Y-55376920D01*
X77596825Y-55114099D01*
X77641476Y-54966890D01*
X77520155Y-54737000D01*
X76327000Y-54737000D01*
X76327000Y-54757000D01*
X76073000Y-54757000D01*
X76073000Y-54737000D01*
X74879845Y-54737000D01*
X74758524Y-54966890D01*
X74803175Y-55114099D01*
X74928359Y-55376920D01*
X75102412Y-55610269D01*
X75318645Y-55805178D01*
X75435523Y-55874799D01*
X75370986Y-55909294D01*
X75144866Y-56094866D01*
X74959294Y-56320986D01*
X74821401Y-56578966D01*
X74736487Y-56858889D01*
X74707815Y-57150000D01*
X74736487Y-57441111D01*
X74759811Y-57518001D01*
X74713356Y-57574607D01*
X74712936Y-57575393D01*
X74642599Y-57706985D01*
X74599027Y-57850622D01*
X74590645Y-57935724D01*
X62225654Y-70300716D01*
X62196578Y-70324578D01*
X62145230Y-70387146D01*
X62101355Y-70440608D01*
X62078506Y-70483356D01*
X62030598Y-70572986D01*
X61987026Y-70716623D01*
X61981905Y-70768622D01*
X61972314Y-70866000D01*
X61976000Y-70903423D01*
X61976000Y-74147675D01*
X61816632Y-74113273D01*
X61139605Y-74790300D01*
X61816632Y-75467327D01*
X61976001Y-75432925D01*
X61976001Y-78056069D01*
X61119606Y-78912464D01*
X61082582Y-78905100D01*
X60837418Y-78905100D01*
X60596964Y-78952929D01*
X60370461Y-79046750D01*
X60166614Y-79182956D01*
X59993256Y-79356314D01*
X59857050Y-79560161D01*
X59763229Y-79786664D01*
X59715400Y-80027118D01*
X54584600Y-80027118D01*
X54536771Y-79786664D01*
X54442950Y-79560161D01*
X54306744Y-79356314D01*
X54133386Y-79182956D01*
X53929539Y-79046750D01*
X53703036Y-78952929D01*
X53462582Y-78905100D01*
X53217418Y-78905100D01*
X52976964Y-78952929D01*
X52750461Y-79046750D01*
X52546614Y-79182956D01*
X52373256Y-79356314D01*
X52237050Y-79560161D01*
X52143229Y-79786664D01*
X52095400Y-80027118D01*
X51535000Y-80027118D01*
X51535000Y-74667718D01*
X52095400Y-74667718D01*
X52095400Y-74912882D01*
X52143229Y-75153336D01*
X52237050Y-75379839D01*
X52373256Y-75583686D01*
X52546614Y-75757044D01*
X52750461Y-75893250D01*
X52976964Y-75987071D01*
X53217418Y-76034900D01*
X53462582Y-76034900D01*
X53703036Y-75987071D01*
X53929539Y-75893250D01*
X54133386Y-75757044D01*
X54243498Y-75646932D01*
X60282973Y-75646932D01*
X60331448Y-75871492D01*
X60554456Y-75973342D01*
X60793048Y-76029728D01*
X61038056Y-76038483D01*
X61280065Y-75999272D01*
X61509774Y-75913600D01*
X61588552Y-75871492D01*
X61637027Y-75646932D01*
X60960000Y-74969905D01*
X60282973Y-75646932D01*
X54243498Y-75646932D01*
X54306744Y-75583686D01*
X54442950Y-75379839D01*
X54536771Y-75153336D01*
X54584600Y-74912882D01*
X54584600Y-74868356D01*
X59711817Y-74868356D01*
X59751028Y-75110365D01*
X59836700Y-75340074D01*
X59878808Y-75418852D01*
X60103368Y-75467327D01*
X60780395Y-74790300D01*
X60103368Y-74113273D01*
X59878808Y-74161748D01*
X59776958Y-74384756D01*
X59720572Y-74623348D01*
X59711817Y-74868356D01*
X54584600Y-74868356D01*
X54584600Y-74667718D01*
X54536771Y-74427264D01*
X54442950Y-74200761D01*
X54306744Y-73996914D01*
X54243498Y-73933668D01*
X60282973Y-73933668D01*
X60960000Y-74610695D01*
X61637027Y-73933668D01*
X61588552Y-73709108D01*
X61365544Y-73607258D01*
X61126952Y-73550872D01*
X60881944Y-73542117D01*
X60639935Y-73581328D01*
X60410226Y-73667000D01*
X60331448Y-73709108D01*
X60282973Y-73933668D01*
X54243498Y-73933668D01*
X54133386Y-73823556D01*
X53929539Y-73687350D01*
X53703036Y-73593529D01*
X53462582Y-73545700D01*
X53217418Y-73545700D01*
X52976964Y-73593529D01*
X52750461Y-73687350D01*
X52546614Y-73823556D01*
X52373256Y-73996914D01*
X52237050Y-74200761D01*
X52143229Y-74427264D01*
X52095400Y-74667718D01*
X51535000Y-74667718D01*
X51535000Y-62833857D01*
X60484226Y-62833857D01*
X60534643Y-63283335D01*
X60671404Y-63714460D01*
X60889299Y-64110811D01*
X61180030Y-64457290D01*
X61532522Y-64740701D01*
X61933349Y-64950249D01*
X62367244Y-65077951D01*
X62817679Y-65118944D01*
X63267498Y-65071666D01*
X63699567Y-64937918D01*
X64097430Y-64722795D01*
X64445930Y-64434490D01*
X64731795Y-64083985D01*
X64944135Y-63684631D01*
X65074864Y-63251638D01*
X65119000Y-62801500D01*
X65118096Y-62736792D01*
X65061409Y-62288061D01*
X64918642Y-61858888D01*
X64695233Y-61465618D01*
X64399693Y-61123232D01*
X64043279Y-60844770D01*
X63639565Y-60640840D01*
X63203930Y-60519208D01*
X62752966Y-60484508D01*
X62303851Y-60538062D01*
X61873691Y-60677829D01*
X61478871Y-60898487D01*
X61134430Y-61191629D01*
X60853487Y-61546091D01*
X60646743Y-61948371D01*
X60522073Y-62383147D01*
X60484226Y-62833857D01*
X51535000Y-62833857D01*
X51535000Y-58520000D01*
X57748895Y-58520000D01*
X57785000Y-58523556D01*
X57821105Y-58520000D01*
X57929085Y-58509365D01*
X58067633Y-58467337D01*
X58195320Y-58399087D01*
X58307238Y-58307238D01*
X58399087Y-58195320D01*
X58467337Y-58067633D01*
X58509365Y-57929085D01*
X58523556Y-57785000D01*
X58520000Y-57748895D01*
X58520000Y-55669721D01*
X65175000Y-55669721D01*
X65175000Y-56090279D01*
X65257047Y-56502756D01*
X65417988Y-56891302D01*
X65651637Y-57240983D01*
X65949017Y-57538363D01*
X66298698Y-57772012D01*
X66687244Y-57932953D01*
X67099721Y-58015000D01*
X67520279Y-58015000D01*
X67932756Y-57932953D01*
X68321302Y-57772012D01*
X68670983Y-57538363D01*
X68968363Y-57240983D01*
X69202012Y-56891302D01*
X69362953Y-56502756D01*
X69445000Y-56090279D01*
X69445000Y-55669721D01*
X69362953Y-55257244D01*
X69202012Y-54868698D01*
X68968363Y-54519017D01*
X68702456Y-54253110D01*
X74758524Y-54253110D01*
X74879845Y-54483000D01*
X76073000Y-54483000D01*
X76073000Y-53289186D01*
X76327000Y-53289186D01*
X76327000Y-54483000D01*
X77520155Y-54483000D01*
X77641476Y-54253110D01*
X77596825Y-54105901D01*
X77471641Y-53843080D01*
X77297588Y-53609731D01*
X77081355Y-53414822D01*
X76831252Y-53265843D01*
X76556891Y-53168519D01*
X76327000Y-53289186D01*
X76073000Y-53289186D01*
X75843109Y-53168519D01*
X75568748Y-53265843D01*
X75318645Y-53414822D01*
X75102412Y-53609731D01*
X74928359Y-53843080D01*
X74803175Y-54105901D01*
X74758524Y-54253110D01*
X68702456Y-54253110D01*
X68670983Y-54221637D01*
X68321302Y-53987988D01*
X67932756Y-53827047D01*
X67520279Y-53745000D01*
X67099721Y-53745000D01*
X66687244Y-53827047D01*
X66298698Y-53987988D01*
X65949017Y-54221637D01*
X65651637Y-54519017D01*
X65417988Y-54868698D01*
X65257047Y-55257244D01*
X65175000Y-55669721D01*
X58520000Y-55669721D01*
X58520000Y-51535000D01*
X149760001Y-51535000D01*
X149760000Y-57748895D01*
M02*
