G04 #@! TF.GenerationSoftware,KiCad,Pcbnew,(5.1.0)-1*
G04 #@! TF.CreationDate,2019-04-13T14:57:07-07:00*
G04 #@! TF.ProjectId,AS.001.revA,41532e30-3031-42e7-9265-76412e6b6963,Rev A*
G04 #@! TF.SameCoordinates,Original*
G04 #@! TF.FileFunction,Legend,Bot*
G04 #@! TF.FilePolarity,Positive*
%FSLAX46Y46*%
G04 Gerber Fmt 4.6, Leading zero omitted, Abs format (unit mm)*
G04 Created by KiCad (PCBNEW (5.1.0)-1) date 2019-04-13 14:57:07*
%MOMM*%
%LPD*%
G04 APERTURE LIST*
%ADD10C,0.100000*%
%ADD11C,0.150000*%
%ADD12C,0.300000*%
%ADD13C,0.203200*%
G04 APERTURE END LIST*
D10*
G36*
X118618000Y-100838000D02*
G01*
X104902000Y-100838000D01*
X104902000Y-97536000D01*
X118618000Y-97536000D01*
X118618000Y-100838000D01*
G37*
X118618000Y-100838000D02*
X104902000Y-100838000D01*
X104902000Y-97536000D01*
X118618000Y-97536000D01*
X118618000Y-100838000D01*
D11*
X112234023Y-93004666D02*
X111757833Y-93004666D01*
X112329261Y-93290380D02*
X111995928Y-92290380D01*
X111662595Y-93290380D01*
X111186404Y-93290380D02*
X111281642Y-93242761D01*
X111329261Y-93147523D01*
X111329261Y-92290380D01*
X110376880Y-93290380D02*
X110376880Y-92766571D01*
X110424500Y-92671333D01*
X110519738Y-92623714D01*
X110710214Y-92623714D01*
X110805452Y-92671333D01*
X110376880Y-93242761D02*
X110472119Y-93290380D01*
X110710214Y-93290380D01*
X110805452Y-93242761D01*
X110853071Y-93147523D01*
X110853071Y-93052285D01*
X110805452Y-92957047D01*
X110710214Y-92909428D01*
X110472119Y-92909428D01*
X110376880Y-92861809D01*
X109900690Y-93290380D02*
X109900690Y-92623714D01*
X109900690Y-92814190D02*
X109853071Y-92718952D01*
X109805452Y-92671333D01*
X109710214Y-92623714D01*
X109614976Y-92623714D01*
X109281642Y-93290380D02*
X109281642Y-92623714D01*
X109281642Y-92718952D02*
X109234023Y-92671333D01*
X109138785Y-92623714D01*
X108995928Y-92623714D01*
X108900690Y-92671333D01*
X108853071Y-92766571D01*
X108853071Y-93290380D01*
X108853071Y-92766571D02*
X108805452Y-92671333D01*
X108710214Y-92623714D01*
X108567357Y-92623714D01*
X108472119Y-92671333D01*
X108424500Y-92766571D01*
X108424500Y-93290380D01*
X106614976Y-93195142D02*
X106662595Y-93242761D01*
X106805452Y-93290380D01*
X106900690Y-93290380D01*
X107043547Y-93242761D01*
X107138785Y-93147523D01*
X107186404Y-93052285D01*
X107234023Y-92861809D01*
X107234023Y-92718952D01*
X107186404Y-92528476D01*
X107138785Y-92433238D01*
X107043547Y-92338000D01*
X106900690Y-92290380D01*
X106805452Y-92290380D01*
X106662595Y-92338000D01*
X106614976Y-92385619D01*
X106043547Y-93290380D02*
X106138785Y-93242761D01*
X106186404Y-93147523D01*
X106186404Y-92290380D01*
X105519738Y-93290380D02*
X105614976Y-93242761D01*
X105662595Y-93195142D01*
X105710214Y-93099904D01*
X105710214Y-92814190D01*
X105662595Y-92718952D01*
X105614976Y-92671333D01*
X105519738Y-92623714D01*
X105376880Y-92623714D01*
X105281642Y-92671333D01*
X105234023Y-92718952D01*
X105186404Y-92814190D01*
X105186404Y-93099904D01*
X105234023Y-93195142D01*
X105281642Y-93242761D01*
X105376880Y-93290380D01*
X105519738Y-93290380D01*
X104329261Y-93242761D02*
X104424500Y-93290380D01*
X104614976Y-93290380D01*
X104710214Y-93242761D01*
X104757833Y-93195142D01*
X104805452Y-93099904D01*
X104805452Y-92814190D01*
X104757833Y-92718952D01*
X104710214Y-92671333D01*
X104614976Y-92623714D01*
X104424500Y-92623714D01*
X104329261Y-92671333D01*
X103900690Y-93290380D02*
X103900690Y-92290380D01*
X103805452Y-92909428D02*
X103519738Y-93290380D01*
X103519738Y-92623714D02*
X103900690Y-93004666D01*
X112234023Y-94654666D02*
X111757833Y-94654666D01*
X112329261Y-94940380D02*
X111995928Y-93940380D01*
X111662595Y-94940380D01*
X111376880Y-94892761D02*
X111234023Y-94940380D01*
X110995928Y-94940380D01*
X110900690Y-94892761D01*
X110853071Y-94845142D01*
X110805452Y-94749904D01*
X110805452Y-94654666D01*
X110853071Y-94559428D01*
X110900690Y-94511809D01*
X110995928Y-94464190D01*
X111186404Y-94416571D01*
X111281642Y-94368952D01*
X111329261Y-94321333D01*
X111376880Y-94226095D01*
X111376880Y-94130857D01*
X111329261Y-94035619D01*
X111281642Y-93988000D01*
X111186404Y-93940380D01*
X110948309Y-93940380D01*
X110805452Y-93988000D01*
X110376880Y-94845142D02*
X110329261Y-94892761D01*
X110376880Y-94940380D01*
X110424500Y-94892761D01*
X110376880Y-94845142D01*
X110376880Y-94940380D01*
X109710214Y-93940380D02*
X109614976Y-93940380D01*
X109519738Y-93988000D01*
X109472119Y-94035619D01*
X109424500Y-94130857D01*
X109376880Y-94321333D01*
X109376880Y-94559428D01*
X109424500Y-94749904D01*
X109472119Y-94845142D01*
X109519738Y-94892761D01*
X109614976Y-94940380D01*
X109710214Y-94940380D01*
X109805452Y-94892761D01*
X109853071Y-94845142D01*
X109900690Y-94749904D01*
X109948309Y-94559428D01*
X109948309Y-94321333D01*
X109900690Y-94130857D01*
X109853071Y-94035619D01*
X109805452Y-93988000D01*
X109710214Y-93940380D01*
X108757833Y-93940380D02*
X108662595Y-93940380D01*
X108567357Y-93988000D01*
X108519738Y-94035619D01*
X108472119Y-94130857D01*
X108424500Y-94321333D01*
X108424500Y-94559428D01*
X108472119Y-94749904D01*
X108519738Y-94845142D01*
X108567357Y-94892761D01*
X108662595Y-94940380D01*
X108757833Y-94940380D01*
X108853071Y-94892761D01*
X108900690Y-94845142D01*
X108948309Y-94749904D01*
X108995928Y-94559428D01*
X108995928Y-94321333D01*
X108948309Y-94130857D01*
X108900690Y-94035619D01*
X108853071Y-93988000D01*
X108757833Y-93940380D01*
X107472119Y-94940380D02*
X108043547Y-94940380D01*
X107757833Y-94940380D02*
X107757833Y-93940380D01*
X107853071Y-94083238D01*
X107948309Y-94178476D01*
X108043547Y-94226095D01*
X111614976Y-96590380D02*
X111948309Y-96114190D01*
X112186404Y-96590380D02*
X112186404Y-95590380D01*
X111805452Y-95590380D01*
X111710214Y-95638000D01*
X111662595Y-95685619D01*
X111614976Y-95780857D01*
X111614976Y-95923714D01*
X111662595Y-96018952D01*
X111710214Y-96066571D01*
X111805452Y-96114190D01*
X112186404Y-96114190D01*
X110805452Y-96542761D02*
X110900690Y-96590380D01*
X111091166Y-96590380D01*
X111186404Y-96542761D01*
X111234023Y-96447523D01*
X111234023Y-96066571D01*
X111186404Y-95971333D01*
X111091166Y-95923714D01*
X110900690Y-95923714D01*
X110805452Y-95971333D01*
X110757833Y-96066571D01*
X110757833Y-96161809D01*
X111234023Y-96257047D01*
X110424500Y-95923714D02*
X110186404Y-96590380D01*
X109948309Y-95923714D01*
X108853071Y-96304666D02*
X108376880Y-96304666D01*
X108948309Y-96590380D02*
X108614976Y-95590380D01*
X108281642Y-96590380D01*
D12*
X153320000Y-76200000D02*
G75*
G03X153320000Y-76200000I-6000000J0D01*
G01*
D13*
X124841000Y-70231000D02*
X136779000Y-70231000D01*
X124841000Y-82169000D02*
X136779000Y-82169000D01*
X136779000Y-82169000D02*
X136779000Y-70231000D01*
X124841000Y-82169000D02*
X124841000Y-70231000D01*
X109601000Y-82169000D02*
X109601000Y-70231000D01*
X121539000Y-82169000D02*
X121539000Y-70231000D01*
X109601000Y-82169000D02*
X121539000Y-82169000D01*
X109601000Y-70231000D02*
X121539000Y-70231000D01*
X94361000Y-70231000D02*
X106299000Y-70231000D01*
X94361000Y-82169000D02*
X106299000Y-82169000D01*
X106299000Y-82169000D02*
X106299000Y-70231000D01*
X94361000Y-82169000D02*
X94361000Y-70231000D01*
X79121000Y-82169000D02*
X79121000Y-70231000D01*
X91059000Y-82169000D02*
X91059000Y-70231000D01*
X79121000Y-82169000D02*
X91059000Y-82169000D01*
X79121000Y-70231000D02*
X91059000Y-70231000D01*
X63881000Y-82169000D02*
X63881000Y-70231000D01*
X75819000Y-82169000D02*
X75819000Y-70231000D01*
X63881000Y-82169000D02*
X75819000Y-82169000D01*
X63881000Y-70231000D02*
X75819000Y-70231000D01*
D11*
X155074857Y-72588380D02*
X155551047Y-72588380D01*
X155551047Y-71588380D01*
X154789142Y-72540761D02*
X154646285Y-72588380D01*
X154408190Y-72588380D01*
X154312952Y-72540761D01*
X154265333Y-72493142D01*
X154217714Y-72397904D01*
X154217714Y-72302666D01*
X154265333Y-72207428D01*
X154312952Y-72159809D01*
X154408190Y-72112190D01*
X154598666Y-72064571D01*
X154693904Y-72016952D01*
X154741523Y-71969333D01*
X154789142Y-71874095D01*
X154789142Y-71778857D01*
X154741523Y-71683619D01*
X154693904Y-71636000D01*
X154598666Y-71588380D01*
X154360571Y-71588380D01*
X154217714Y-71636000D01*
X153265333Y-72588380D02*
X153836761Y-72588380D01*
X153551047Y-72588380D02*
X153551047Y-71588380D01*
X153646285Y-71731238D01*
X153741523Y-71826476D01*
X153836761Y-71874095D01*
X136905904Y-83716761D02*
X136763047Y-83764380D01*
X136524952Y-83764380D01*
X136429714Y-83716761D01*
X136382095Y-83669142D01*
X136334476Y-83573904D01*
X136334476Y-83478666D01*
X136382095Y-83383428D01*
X136429714Y-83335809D01*
X136524952Y-83288190D01*
X136715428Y-83240571D01*
X136810666Y-83192952D01*
X136858285Y-83145333D01*
X136905904Y-83050095D01*
X136905904Y-82954857D01*
X136858285Y-82859619D01*
X136810666Y-82812000D01*
X136715428Y-82764380D01*
X136477333Y-82764380D01*
X136334476Y-82812000D01*
X135382095Y-83764380D02*
X135953523Y-83764380D01*
X135667809Y-83764380D02*
X135667809Y-82764380D01*
X135763047Y-82907238D01*
X135858285Y-83002476D01*
X135953523Y-83050095D01*
X122173904Y-83716761D02*
X122031047Y-83764380D01*
X121792952Y-83764380D01*
X121697714Y-83716761D01*
X121650095Y-83669142D01*
X121602476Y-83573904D01*
X121602476Y-83478666D01*
X121650095Y-83383428D01*
X121697714Y-83335809D01*
X121792952Y-83288190D01*
X121983428Y-83240571D01*
X122078666Y-83192952D01*
X122126285Y-83145333D01*
X122173904Y-83050095D01*
X122173904Y-82954857D01*
X122126285Y-82859619D01*
X122078666Y-82812000D01*
X121983428Y-82764380D01*
X121745333Y-82764380D01*
X121602476Y-82812000D01*
X121221523Y-82859619D02*
X121173904Y-82812000D01*
X121078666Y-82764380D01*
X120840571Y-82764380D01*
X120745333Y-82812000D01*
X120697714Y-82859619D01*
X120650095Y-82954857D01*
X120650095Y-83050095D01*
X120697714Y-83192952D01*
X121269142Y-83764380D01*
X120650095Y-83764380D01*
X106933904Y-83970761D02*
X106791047Y-84018380D01*
X106552952Y-84018380D01*
X106457714Y-83970761D01*
X106410095Y-83923142D01*
X106362476Y-83827904D01*
X106362476Y-83732666D01*
X106410095Y-83637428D01*
X106457714Y-83589809D01*
X106552952Y-83542190D01*
X106743428Y-83494571D01*
X106838666Y-83446952D01*
X106886285Y-83399333D01*
X106933904Y-83304095D01*
X106933904Y-83208857D01*
X106886285Y-83113619D01*
X106838666Y-83066000D01*
X106743428Y-83018380D01*
X106505333Y-83018380D01*
X106362476Y-83066000D01*
X106029142Y-83018380D02*
X105410095Y-83018380D01*
X105743428Y-83399333D01*
X105600571Y-83399333D01*
X105505333Y-83446952D01*
X105457714Y-83494571D01*
X105410095Y-83589809D01*
X105410095Y-83827904D01*
X105457714Y-83923142D01*
X105505333Y-83970761D01*
X105600571Y-84018380D01*
X105886285Y-84018380D01*
X105981523Y-83970761D01*
X106029142Y-83923142D01*
X91693904Y-83970761D02*
X91551047Y-84018380D01*
X91312952Y-84018380D01*
X91217714Y-83970761D01*
X91170095Y-83923142D01*
X91122476Y-83827904D01*
X91122476Y-83732666D01*
X91170095Y-83637428D01*
X91217714Y-83589809D01*
X91312952Y-83542190D01*
X91503428Y-83494571D01*
X91598666Y-83446952D01*
X91646285Y-83399333D01*
X91693904Y-83304095D01*
X91693904Y-83208857D01*
X91646285Y-83113619D01*
X91598666Y-83066000D01*
X91503428Y-83018380D01*
X91265333Y-83018380D01*
X91122476Y-83066000D01*
X90265333Y-83351714D02*
X90265333Y-84018380D01*
X90503428Y-82970761D02*
X90741523Y-83685047D01*
X90122476Y-83685047D01*
X76453904Y-84224761D02*
X76311047Y-84272380D01*
X76072952Y-84272380D01*
X75977714Y-84224761D01*
X75930095Y-84177142D01*
X75882476Y-84081904D01*
X75882476Y-83986666D01*
X75930095Y-83891428D01*
X75977714Y-83843809D01*
X76072952Y-83796190D01*
X76263428Y-83748571D01*
X76358666Y-83700952D01*
X76406285Y-83653333D01*
X76453904Y-83558095D01*
X76453904Y-83462857D01*
X76406285Y-83367619D01*
X76358666Y-83320000D01*
X76263428Y-83272380D01*
X76025333Y-83272380D01*
X75882476Y-83320000D01*
X74977714Y-83272380D02*
X75453904Y-83272380D01*
X75501523Y-83748571D01*
X75453904Y-83700952D01*
X75358666Y-83653333D01*
X75120571Y-83653333D01*
X75025333Y-83700952D01*
X74977714Y-83748571D01*
X74930095Y-83843809D01*
X74930095Y-84081904D01*
X74977714Y-84177142D01*
X75025333Y-84224761D01*
X75120571Y-84272380D01*
X75358666Y-84272380D01*
X75453904Y-84224761D01*
X75501523Y-84177142D01*
M02*
