M48
; DRILL file {KiCad (5.1.0)-1} date 4/13/2019 2:57:49 PM
; FORMAT={-:-/ absolute / inch / decimal}
; #@! TF.CreationDate,2019-04-13T14:57:49-07:00
; #@! TF.GenerationSoftware,Kicad,Pcbnew,(5.1.0)-1
; #@! TF.FileFunction,Plated,1,2,PTH
FMAT,2
INCH
T1C0.0150
T2C0.0200
T3C0.0315
T4C0.0350
T5C0.0394
T6C0.0433
T7C0.0650
T8C0.0787
%
G90
G05
T1
X3.21Y-2.51
X3.35Y-3.04
X3.58Y-3.11
X3.62Y-3.14
X3.84Y-2.95
X3.99Y-2.87
X4.29Y-2.35
X4.58Y-2.62
X4.65Y-3.58
X4.72Y-2.99
X4.75Y-2.56
X5.11Y-2.41
T2
X2.68Y-3.04
X3.97Y-3.02
X5.3Y-2.54
T3
X5.8Y-2.872
X5.8Y-3.128
X5.1579Y-2.3
X5.35Y-2.3
X5.7Y-3.85
X5.7Y-3.9287
X3.5Y-2.15
X3.5Y-2.45
X3.6Y-2.15
X3.6Y-2.45
X3.7Y-2.15
X3.7Y-2.45
X3.8Y-2.15
X3.8Y-2.45
X3.9Y-2.15
X3.9Y-2.45
X4.0Y-2.15
X4.0Y-2.45
X4.1Y-2.15
X4.1Y-2.45
X4.2Y-2.15
X4.2Y-2.45
X4.3Y-2.15
X4.3Y-2.45
X4.4Y-2.15
X4.4Y-2.45
X4.5Y-2.15
X4.5Y-2.45
X4.6Y-2.15
X4.6Y-2.45
X4.7Y-2.15
X4.7Y-2.45
X4.8Y-2.15
X4.8Y-2.45
X4.8713Y-3.45
X4.95Y-3.45
T4
X2.1Y-2.9445
X2.1Y-3.1555
X2.4Y-2.9445
X2.4Y-3.1555
T5
X3.65Y-3.45
X3.75Y-3.45
X3.85Y-3.45
X3.95Y-3.45
X4.05Y-3.45
X4.15Y-3.45
X4.25Y-3.45
X4.35Y-3.45
X4.45Y-3.45
X4.55Y-3.45
X3.0Y-2.15
X3.0Y-2.25
X3.0Y-2.35
X3.0Y-2.45
X5.95Y-3.5
X5.95Y-3.6
T6
X5.5Y-3.45
X5.5Y-3.85
T7
X5.05Y-2.75
X5.05Y-3.25
X5.25Y-2.75
X5.25Y-3.25
X3.85Y-2.75
X3.85Y-3.25
X4.05Y-2.75
X4.05Y-3.25
X2.65Y-2.75
X2.65Y-3.25
X2.85Y-2.75
X2.85Y-3.25
X4.45Y-2.75
X4.45Y-3.25
X4.65Y-2.75
X4.65Y-3.25
X3.25Y-2.75
X3.25Y-3.25
X3.45Y-2.75
X3.45Y-3.25
T8
X3.15Y-3.6
X2.65Y-2.2
X2.95Y-3.6
X2.75Y-3.85
X5.75Y-2.2
X2.75Y-3.6
X2.95Y-3.85
X3.15Y-3.85
X6.05Y-2.65
X6.05Y-2.45
T0
M30
